<svg xmlns="http://www.w3.org/2000/svg" width="347" height="347" viewBox="0 0 347 347">
  <path fill="#2C00B9" d="M101.911714,5.19265 C92.9524286,0.371025 92.3652857,0.175525 92.1724286,0.10965 C91.0795714,-0.253725 89.9352857,0.315775 89.5238571,1.3804 C89.1124286,2.445025 89.6567143,3.65415 90.7131429,4.10465 C90.8888571,4.179025 91.4138571,4.44465 92.1252857,4.8144 C91.9238571,18.225275 73.7931429,29.0989 51.516,29.0989 C29.241,29.0989 11.1102857,18.225275 10.9088571,4.8144 C11.5988571,4.455275 12.1131429,4.196025 12.3038571,4.11315 C13.3752857,3.711525 13.9431429,2.5364 13.5745714,1.4484 C13.2017143,0.337025 11.9802857,-0.2601 10.8617143,0.10965 C10.6688571,0.175525 10.0817143,0.371025 1.12242857,5.19265 C0.081,5.75365 -0.304714286,7.0414 0.258857143,8.072025 C0.648857143,8.781775 1.38385714,9.185525 2.14457143,9.185525 C2.49171429,9.185525 2.841,9.10265 3.16457143,8.9284 C4.26814286,8.335525 5.54528571,7.64915 6.79457143,6.98615 C8.70385714,21.723025 28.0152857,33.3489 51.516,33.3489 C75.0188571,33.3489 94.3302857,21.723025 96.2395714,6.98615 C97.4888571,7.64915 98.7638571,8.335525 99.8695714,8.9284 C100.193143,9.10265 100.542429,9.185525 100.887429,9.185525 C101.648143,9.185525 102.385286,8.781775 102.773143,8.072025 C103.338857,7.0414 102.951,5.75365 101.911714,5.19265" transform="translate(121 173)"/>
</svg>
