<svg xmlns="http://www.w3.org/2000/svg" width="347" height="347" viewBox="0 0 347 347">
  <path fill="#2C00B9" d="M53.8209538,0 C52.6298769,0 51.6671077,0.975272727 51.6671077,2.18181818 C51.6671077,10.6189091 46.8403385,17.4850909 40.9043385,17.4850909 C34.9683385,17.4850909 30.1415692,10.6189091 30.1415692,2.18181818 C30.1415692,0.975272727 29.1788,0 27.9877231,0 C26.7966462,0 25.8338769,0.975272727 25.8338769,2.18181818 C25.8338769,10.6189091 21.0071077,17.4850909 15.0711077,17.4850909 C9.13510769,17.4850909 4.30833846,10.6189091 4.30833846,2.18181818 C4.30833846,0.975272727 3.34341538,0 2.15449231,0 C0.963415385,0 0.000646153846,0.975272727 0.000646153846,2.18181818 C0.000646153846,13.0254545 6.75941538,21.8487273 15.0711077,21.8487273 C20.5569538,21.8487273 25.3492615,17.9912727 27.9877231,12.2596364 C30.6240308,17.9912727 35.4184923,21.8487273 40.9043385,21.8487273 C49.2138769,21.8487273 55.9748,13.0254545 55.9748,2.18181818 C55.9748,0.975272727 55.0120308,0 53.8209538,0" transform="translate(146 182)"/>
</svg>
