<?xml version="1.0" encoding="UTF-8"?>
<svg width="37px" height="49px" viewBox="0 0 37 49" version="1.1" xmlns="http://www.w3.org/2000/svg" xmlns:xlink="http://www.w3.org/1999/xlink">
    <!-- Generator: Sketch 48.2 (47327) - http://www.bohemiancoding.com/sketch -->
    <title>picto_encre</title>
    <desc>Created with Sketch.</desc>
    <defs>
        <polygon id="path-1" points="0 0.0913598901 15.6174596 0.0913598901 15.6174596 29.3374615 0 29.3374615"></polygon>
        <polygon id="path-3" points="0.638933863 0.375273684 12.0831025 0.375273684 12.0831025 22 0.638933863 22"></polygon>
        <polygon id="path-5" points="0.00329079478 0.0496852941 9.40987654 0.0496852941 9.40987654 17.5528324 0.00329079478 17.5528324"></polygon>
    </defs>
    <g id="picto_encre" stroke="none" stroke-width="1" fill="none" fill-rule="evenodd">
        <g>
            <g id="Group-3">
                <mask id="mask-2" fill="white">
                    <use xlink:href="#path-1"></use>
                </mask>
                <g id="Clip-2"></g>
                <path d="M7.80836923,0.0908818681 L0.850830769,16.0926676 C-1.68209231,21.9149753 1.71852308,28.9944808 7.37267692,29.3243159 C7.51790769,29.3326813 7.66313846,29.3374615 7.80836923,29.3374615 C7.95483077,29.3374615 8.10006154,29.3326813 8.24406154,29.3243159 C13.8994462,28.9944808 17.2988308,21.9149753 14.7671385,16.0926676 L7.80836923,0.0908818681 Z" id="Fill-1" fill="#FF674A" mask="url(#mask-2)"></path>
            </g>
            <g id="Group-6" transform="translate(15.000000, 27.000000)">
                <mask id="mask-4" fill="white">
                    <use xlink:href="#path-3"></use>
                </mask>
                <g id="Clip-5"></g>
                <path d="M6.36101818,0.375273684 L1.26265455,12.2078 C-0.593981818,16.5128526 1.89847273,21.7465368 6.04074545,21.9908526 C6.14710909,21.9966421 6.25347273,22.0001158 6.36101818,22.0001158 C6.46856364,22.0001158 6.57492727,21.9966421 6.68129091,21.9908526 C10.8235636,21.7465368 13.3160182,16.5128526 11.4593818,12.2078 L6.36101818,0.375273684 Z" id="Fill-4" fill="#FF674A" mask="url(#mask-4)"></path>
            </g>
            <g id="Group-9" transform="translate(27.000000, 12.000000)">
                <mask id="mask-6" fill="white">
                    <use xlink:href="#path-5"></use>
                </mask>
                <g id="Clip-8"></g>
                <path d="M4.70679012,0.0496852941 L0.515432099,9.62674412 C-1.00925926,13.1121265 1.03765432,17.34795 4.44382716,17.5456853 C4.53024691,17.55045 4.6191358,17.5528324 4.70679012,17.5528324 C4.79444444,17.5528324 4.88333333,17.55045 4.96975309,17.5456853 C8.37469136,17.34795 10.4228395,13.1121265 8.89814815,9.62674412 L4.70679012,0.0496852941 Z" id="Fill-7" fill="#FF674A" mask="url(#mask-6)"></path>
            </g>
        </g>
    </g>
</svg>