<?xml version="1.0" encoding="UTF-8"?>
<svg width="46px" height="57px" viewBox="0 0 46 57" version="1.1" xmlns="http://www.w3.org/2000/svg" xmlns:xlink="http://www.w3.org/1999/xlink">
    <!-- Generator: Sketch 48.2 (47327) - http://www.bohemiancoding.com/sketch -->
    <title>picto_chat</title>
    <desc>Created with Sketch.</desc>
    <defs>
        <polygon id="path-1" points="0 0.255541667 45.885 0.255541667 45.885 49.9793982 0 49.9793982"></polygon>
    </defs>
    <g id="picto_chat" stroke="none" stroke-width="1" fill="none" fill-rule="evenodd">
        <g transform="translate(23.000000, 28.500000) rotate(-180.000000) translate(-23.000000, -28.500000) ">
            <g id="Group-3">
                <mask id="mask-2" fill="white">
                    <use xlink:href="#path-1"></use>
                </mask>
                <g id="Clip-2"></g>
                <path d="M45.6736509,29.9592917 L43.5706145,21.555125 C42.6259418,17.7805417 38.7891236,15.4834583 35.0008145,16.4247083 C34.9288873,16.442625 34.8590509,16.4630417 34.7883782,16.482625 L34.7883782,9.28970833 C34.7883782,4.300125 30.7290873,0.255541667 25.7209418,0.255541667 L20.1637236,0.255541667 C15.1559964,0.255541667 11.0967055,4.300125 11.0967055,9.28970833 L11.0967055,16.516375 C10.9147964,16.460125 10.72996,16.4084583 10.5409418,16.3655417 C6.73214182,15.5092917 2.94801455,17.891375 2.08823273,21.686375 L0.174632727,30.1355417 C-0.684312727,33.930125 1.70601455,37.7009583 5.51523273,38.5572083 C7.01357818,38.893875 8.50774182,38.7280417 9.82208727,38.1734583 L9.09486909,41.3830417 C8.23592364,45.1780417 10.6262509,48.9484583 14.4354691,49.805125 C18.2438509,50.661375 22.0283964,48.2792917 22.88776,44.483875 L22.9417055,44.246375 L23.0337055,44.615125 C23.9783782,48.3897083 27.8151964,50.6872083 31.6035055,49.7459583 C35.3922327,48.8047083 37.6980873,44.9822083 36.7534145,41.2072083 L35.97936,38.115125 C37.3614509,38.718875 38.94636,38.890125 40.52416,38.4980417 C44.3124691,37.5572083 46.6179055,33.7342917 45.6736509,29.9592917" id="Fill-1" fill="#FF674A" mask="url(#mask-2)"></path>
            </g>
            <path d="M9.89200166,32.6936371 C9.4177204,35.4278348 7.51453557,37.3339662 5.64124581,36.9510732 C3.76795604,36.5681803 2.63355931,34.0409992 3.10784056,31.3063629 C3.58252581,28.5721652 5.48571064,26.6660338 7.35859642,27.0489268 C9.23229017,27.4322583 10.3666869,29.9594394 9.89200166,32.6936371" id="Fill-4" fill="#FFFFFF"></path>
            <path d="M35.107843,32.6936371 C35.5821349,35.4278348 37.4853627,37.3339662 39.3586947,36.9510732 C41.2320266,36.5681803 42.366449,34.0409992 41.892157,31.3063629 C41.4178651,28.5721652 39.5146373,26.6660338 37.6413053,27.0489268 C35.7679734,27.4322583 34.633551,29.9594394 35.107843,32.6936371" id="Fill-6" fill="#FFFFFF"></path>
            <path d="M27.0345499,41.8491356 C27.3037111,44.3270613 29.0736497,46.1790261 30.9875488,45.9862113 C32.9018556,45.7933964 34.2346112,43.6280585 33.9654501,41.1505255 C33.6962889,38.6725998 31.9259425,36.8206351 30.0124512,37.0138426 C28.0981444,37.2066574 26.7653888,39.37121 27.0345499,41.8491356" id="Fill-8" fill="#FFFFFF"></path>
            <path d="M18.9654505,41.8491356 C18.6958849,44.3270613 16.9259686,46.1790261 15.0125015,45.9862113 C13.0982188,45.7933964 11.7650722,43.6280585 12.0346378,41.1505255 C12.3037955,38.6725998 14.0737118,36.8206351 15.9875867,37.0138426 C17.9018695,37.2066574 19.2346083,39.37121 18.9654505,41.8491356" id="Fill-10" fill="#FFFFFF"></path>
            <path d="M32,24.2212569 C32,28.6322736 27.5230203,35 22.0002056,35 C16.477391,35 12,28.6322736 12,24.2212569 C12,19.8102403 16.477391,23.3308866 22.0002056,23.3308866 C27.5230203,23.3308866 32,19.8102403 32,24.2212569" id="Fill-12" fill="#FFFFFF"></path>
            <path d="M13.8090685,56.993579 C12.7661009,56.8240592 13.0297227,49 13.0297227,49 L17,49.6456179 C13.5463328,53.9395178 14.8520361,57.1635496 13.8090685,56.993579" id="Fill-14" fill="#FF674A"></path>
            <path d="M32.1908419,56.993579 C33.233925,56.8240592 32.970274,49 32.970274,49 L29,49.6456179 C32.4536067,53.9395178 31.1477587,57.1635496 32.1908419,56.993579" id="Fill-16" fill="#FF674A"></path>
            <path d="M42.5476253,44.9858338 C43.5052234,44.7276479 42.644917,37 42.644917,37 L39,37.9834373 C42.5521794,41.9373574 41.5900273,45.2440198 42.5476253,44.9858338" id="Fill-18" fill="#FF674A"></path>
            <path d="M2.32421197,44.9731543 C1.28981504,44.6087981 3.06135249,37 3.06135249,37 L7,38.3873387 C2.64177783,41.9334088 3.35860891,45.3375104 2.32421197,44.9731543" id="Fill-20" fill="#FF674A"></path>
        </g>
    </g>
</svg>