<svg xmlns="http://www.w3.org/2000/svg" xmlns:xlink="http://www.w3.org/1999/xlink" width="347" height="347" viewBox="0 0 347 347">
  <defs>
    <polygon id="visage_02-a" points="0 1.086 201.632 1.086 201.632 215.863 0 215.863"/>
    <polygon id="visage_02-c" points="0 .158 31.916 .158 31.916 12.824 0 12.824"/>
    <polygon id="visage_02-e" points="1.922 .158 33.839 .158 33.839 12.824 1.922 12.824"/>
  </defs>
  <g fill="none" fill-rule="evenodd" transform="translate(72 65)">
    <path fill="#FFF" d="M197.361515,78.8756059 C197.361515,63.767351 185.117409,51.5208804 170.009936,51.5208804 C168.903052,51.5208804 167.815399,51.6063706 166.740567,51.7346059 L166.227725,48.3662922 C161.671978,18.4981549 144.801609,6.40556667 106.894031,6.40556667 L92.6605253,6.40556667 C53.4772516,6.40556667 37.0021989,19.966449 33.6494937,51.0186255 L33.5811147,51.6191941 C32.9315147,51.5743118 32.2797779,51.5208804 31.6173568,51.5208804 C16.51202,51.5208804 4.26791474,63.767351 4.26791474,78.8756059 C4.26791474,93.9817235 16.5077463,106.228194 31.6109463,106.230331 C37.4723042,131.759841 57.2145884,152.326645 82.8160937,159.005567 L82.8160937,182.459802 L82.8160937,197.322273 L82.8160937,206.26241 C82.8160937,209.784606 85.6687779,212.639978 89.1924305,212.639978 L112.434862,212.639978 C115.954241,212.639978 118.811199,209.784606 118.811199,206.26241 L118.811199,197.322273 L118.811199,182.459802 L118.811199,159.001292 C144.476809,152.30741 164.163536,131.680763 170.014209,106.230331 C185.119546,106.228194 197.361515,93.9817235 197.361515,78.8756059"/>
    <path fill="#FFF" d="M112.434648,212.639765 L89.1922168,212.639765 C85.6707011,212.639765 82.81588,209.784392 82.81588,206.262196 L82.81588,182.459588 L118.810985,182.459588 L118.810985,206.262196 C118.810985,209.784392 115.956164,212.639765 112.434648,212.639765"/>
    <g transform="translate(0 1.052)">
      <mask id="visage_02-b" fill="#fff">
        <use xlink:href="#visage_02-a"/>
      </mask>
      <path fill="#2C00B9" d="M175.241994,100.318471 C176.355288,92.9663137 176.37452,85.4218039 175.220625,77.9200392 L171.694836,54.8163137 C183.64192,55.6712157 193.086762,65.6735686 193.086762,77.834549 C193.086762,88.7559216 185.456099,97.9461176 175.241994,100.318471 Z M151.418341,132.740627 C138.723362,147.530431 120.282415,155.993961 100.815783,155.993961 C81.9047305,155.993961 63.8078147,147.915137 51.1577095,133.852 C44.6595726,126.606706 39.8944147,118.100431 37.0972884,108.974353 C36.2404147,106.260039 35.5566253,103.481608 35.08652,100.660431 C34.0180989,94.5906275 33.7830463,88.3284706 34.4668358,82.0876863 L37.3515726,55.4788627 L37.9050147,50.4349412 C38.0353621,49.2380784 38.1849411,48.0625882 38.3772568,46.9298431 C42.3517832,20.1500392 57.8866253,9.6347451 92.6551832,9.6347451 L106.90792,9.6347451 C142.507709,9.6347451 157.484836,19.8508235 161.886731,47.2718039 C161.931604,47.4855294 161.950836,47.7206275 161.993573,47.9557255 L163.190204,55.799451 L166.758731,79.2023922 C167.869888,86.4049412 167.763046,93.6502353 166.547183,100.660431 C166.074941,103.481608 165.391152,106.260039 164.557783,108.995725 C161.886731,117.630235 157.442099,125.730431 151.418341,132.740627 Z M87.0887095,177.133549 L114.538583,177.133549 L114.538583,164.540843 L87.0887095,164.540843 L87.0887095,177.133549 Z M114.538583,205.210667 C114.538583,206.371196 113.594099,207.313725 112.433794,207.313725 L89.1913621,207.313725 C88.0310568,207.313725 87.0887095,206.371196 87.0887095,205.210667 L87.0887095,185.682569 L114.538583,185.682569 L114.538583,205.210667 Z M8.54694105,77.834549 C8.54694105,66.036902 17.3934674,56.3123922 28.8234358,54.9231765 L25.9814358,81.1686667 C25.2997832,87.6018039 25.4279937,94.0349412 26.3895726,100.318471 C16.1754674,97.9461176 8.54694105,88.7559216 8.54694105,77.834549 Z M170.369994,46.2031765 C165.391152,14.5931765 146.373257,1.08572549 106.90792,1.08572549 L92.6551832,1.08572549 C53.3137832,1.08572549 34.3172568,14.6359216 29.80852,46.2672941 C13.2052568,47.2076863 -0.000427368421,61.0143529 -0.000427368421,77.834549 C-0.000427368421,94.1418039 12.3932568,107.60651 28.2699937,109.273569 C31.3235411,120.387294 36.9455726,130.795725 44.8091516,139.558471 C53.9697937,149.763863 65.6818253,157.152353 78.5413411,161.142608 L78.5413411,177.133549 L78.5413411,205.210667 C78.5413411,211.083843 83.31932,215.862745 89.1913621,215.862745 L112.433794,215.862745 C118.305836,215.862745 123.085952,211.083843 123.085952,205.210667 L123.085952,177.133549 L123.085952,161.151157 C136.466857,157.011294 148.576341,149.191078 157.912204,138.318863 C165.220204,129.791216 170.455467,119.85298 173.361573,109.273569 C189.238309,107.60651 201.634131,94.1418039 201.634131,77.834549 C201.634131,60.5227843 187.635678,46.3955294 170.369994,46.2031765 Z" mask="url(#visage_02-b)"/>
    </g>
    <g transform="translate(42.745 87.627)">
      <g transform="translate(0 1.979)">
        <mask id="visage_02-d" fill="#fff">
          <use xlink:href="#visage_02-c"/>
        </mask>
        <path fill="#8896FB" d="M31.9158412,6.49105686 C31.9158412,9.98760588 24.770998,12.8237431 15.9569588,12.8237431 C7.14505686,12.8237431 0.00021372549,9.98760588 0.00021372549,6.49105686 C0.00021372549,2.99450784 7.14505686,0.158370588 15.9569588,0.158370588 C24.770998,0.158370588 31.9158412,2.99450784 31.9158412,6.49105686" mask="url(#visage_02-d)"/>
      </g>
      <g transform="translate(81.216 1.979)">
        <mask id="visage_02-f" fill="#fff">
          <use xlink:href="#visage_02-e"/>
        </mask>
        <path fill="#8896FB" d="M33.8402255,6.49105686 C33.8402255,9.98760588 26.6953824,12.8237431 17.8813431,12.8237431 C9.06730392,12.8237431 1.92246078,9.98760588 1.92246078,6.49105686 C1.92246078,2.99450784 9.06730392,0.158370588 17.8813431,0.158370588 C26.6953824,0.158370588 33.8402255,2.99450784 33.8402255,6.49105686" mask="url(#visage_02-f)"/>
      </g>
    </g>
  </g>
</svg>
