<svg xmlns="http://www.w3.org/2000/svg" xmlns:xlink="http://www.w3.org/1999/xlink" width="347" height="347" viewBox="0 0 347 347">
  <defs>
    <polygon id="visage_03-a" points="0 1.727 201.632 1.727 201.632 215.862 0 215.862"/>
    <polygon id="visage_03-c" points="0 .158 31.916 .158 31.916 12.824 0 12.824"/>
    <polygon id="visage_03-e" points="1.922 .158 33.839 .158 33.839 12.824 1.922 12.824"/>
  </defs>
  <g fill="none" fill-rule="evenodd" transform="translate(72 65)">
    <path fill="#FFF" d="M170.015705,51.5249412 C168.940874,51.5249412 167.887411,51.6040196 166.844632,51.7237059 L166.855316,51.2983922 C167.013442,45.1708824 166.167253,39.0198627 163.949211,33.2407255 C156.679674,14.3089216 139.670411,6.41176471 107.688295,6.41176471 L93.4526526,6.41176471 C59.1114632,6.41176471 42.2111789,15.9674314 36.3028105,37.5109608 C35.0292526,42.1530784 34.6424842,46.9512157 34.8561684,51.7343922 C33.7941579,51.6082941 32.7193263,51.5249412 31.6209895,51.5249412 C16.5177895,51.5249412 4.27368421,63.7714118 4.27368421,78.8796667 C4.27368421,93.9900588 16.5177895,106.236529 31.6209895,106.236529 C34.1852,106.236529 36.6553895,105.858235 39.0059158,105.199961 L39.8392842,115.745176 C41.4397789,136.036275 52.6133263,153.991353 72.5885263,162.811804 C75.8514842,164.252314 79.2832526,165.43849 82.8218632,166.372471 L82.8218632,181.818412 L82.8218632,196.680882 L82.8218632,205.62102 C82.8218632,209.143216 85.6766842,211.998588 89.2003368,211.998588 L112.442768,211.998588 C115.962147,211.998588 118.819105,209.143216 118.819105,205.62102 L118.819105,196.680882 L118.819105,181.818412 L118.819105,166.776412 C122.007274,165.966392 125.112105,164.929824 128.071632,163.621824 C149.019095,154.373922 165.242,137.566549 165.242,113.800275 L165.445,105.824039 C166.936516,106.076235 168.455811,106.236529 170.015705,106.236529 C185.121042,106.236529 197.367284,93.9900588 197.367284,78.8796667 C197.367284,63.7714118 185.121042,51.5249412 170.015705,51.5249412"/>
    <path fill="#FFF" d="M112.439777,211.998588 L89.1973453,211.998588 C85.6779663,211.998588 82.8231453,209.143216 82.8231453,205.62102 L82.8231453,181.818412 L118.816114,181.818412 L118.816114,205.62102 C118.816114,209.143216 115.961293,211.998588 112.439777,211.998588"/>
    <g transform="translate(0 .41)">
      <mask id="visage_03-b" fill="#fff">
        <use xlink:href="#visage_03-a"/>
      </mask>
      <path fill="#2C00B9" d="M170.007372,101.557224 L169.815056,101.557224 L171.013824,55.4138902 C183.277161,55.9268314 193.085266,66.0787922 193.085266,78.4748706 C193.085266,91.1915373 182.742951,101.557224 170.007372,101.557224 Z M162.442951,56.6748706 L161.310424,99.8474196 L161.09674,108.802518 L160.968529,113.397616 C160.968529,126.712714 155.540951,136.757812 148.508603,144.195459 C141.461298,151.633106 132.826319,156.463302 126.351687,159.305851 C125.283266,159.776047 124.195614,160.203498 123.082319,160.588204 C109.620214,165.482518 92.9101084,165.290165 78.5505295,160.182125 C77.1188453,159.669184 75.7085295,159.113498 74.3217189,158.493694 C56.6692663,150.714086 45.6666663,134.855655 44.1046347,115.000557 L43.5298242,107.755263 L42.8032979,98.6505569 L39.5104242,56.7817333 L39.1898979,52.8491843 C39.0638242,51.1180078 39.0189505,49.4082039 39.0638242,47.7411451 C39.1471611,44.4070275 39.5980347,41.2225176 40.4292663,38.2303608 C45.8782137,18.3752627 61.2421084,10.2750667 93.4443189,10.2750667 L107.675687,10.2750667 C145.604635,10.2750667 155.391372,22.4574196 159.964214,34.3619294 C161.524108,38.4440863 162.398077,42.9323216 162.571161,47.7411451 C162.613898,48.7456549 162.613898,49.7501647 162.592529,50.7760471 L162.442951,56.6748706 Z M114.534951,177.134831 L87.0978979,177.134831 L87.0978979,171.338596 C91.9698979,172.278988 96.9060032,172.749184 101.82074,172.749184 C106.115793,172.749184 110.389477,172.385851 114.534951,171.659184 L114.534951,177.134831 Z M114.534951,205.214086 C114.534951,206.368204 113.59474,207.308596 112.442982,207.308596 L89.1920032,207.308596 C88.0402453,207.308596 87.0978979,206.368204 87.0978979,205.214086 L87.0978979,185.683851 L114.534951,185.683851 L114.534951,205.214086 Z M31.6254768,101.557224 C18.8898979,101.557224 8.54544526,91.1915373 8.54544526,78.4748706 C8.54544526,66.0146745 18.4625295,55.8413412 30.8134768,55.4138902 L34.4482453,101.386243 C33.5272663,101.493106 32.5849189,101.557224 31.6254768,101.557224 Z M171.097161,46.8648706 C170.842877,41.3293804 169.793687,36.1144784 167.934635,31.3056549 C160.092424,10.8521255 141.501898,1.72604706 107.675687,1.72604706 L93.4443189,1.72604706 C57.56674,1.72604706 38.6770558,12.2840863 32.1810558,35.9648706 C31.2194768,39.4272235 30.6852663,43.0605569 30.5356874,46.8648706 C13.5905295,47.4419294 -0.00192315789,61.3982039 -0.00192315789,78.4748706 C-0.00192315789,95.9148706 14.1888453,110.106243 31.6254768,110.106243 C32.80074,110.106243 33.9760032,110.042125 35.1298979,109.892518 L35.5786347,115.663106 C37.3928137,138.766831 50.25874,157.211341 70.8578979,166.316047 C73.3580032,167.42742 75.9243505,168.367812 78.5505295,169.179969 L78.5505295,177.134831 L78.5483926,177.134831 L78.5483926,205.209812 C78.5483926,205.945027 78.6231821,206.665282 78.7663505,207.35989 C79.4757821,210.82438 81.8690453,213.675478 85.0508032,215.021949 C86.3286347,215.562675 87.7261295,215.86189 89.1984137,215.86189 L112.440845,215.86189 C118.312887,215.86189 123.090866,211.085125 123.090866,205.209812 L123.090866,177.134831 L123.082319,177.134831 L123.082319,169.628792 C125.390108,168.902125 127.633793,168.068596 129.792003,167.128204 C155.028108,155.971733 169.515898,136.394478 169.515898,113.504478 L169.603508,110.106243 L170.007372,110.106243 C187.444003,110.106243 201.632635,95.9148706 201.632635,78.4748706 C201.632635,61.3982039 188.040182,47.4419294 171.097161,46.8648706 Z" mask="url(#visage_03-b)"/>
    </g>
    <g transform="translate(44.882 87.627)">
      <g transform="translate(0 1.979)">
        <mask id="visage_03-d" fill="#fff">
          <use xlink:href="#visage_03-c"/>
        </mask>
        <path fill="#8896FB" d="M31.9158412,6.49105686 C31.9158412,9.98760588 24.770998,12.8237431 15.9569588,12.8237431 C7.14505686,12.8237431 0.00021372549,9.98760588 0.00021372549,6.49105686 C0.00021372549,2.99450784 7.14505686,0.158370588 15.9569588,0.158370588 C24.770998,0.158370588 31.9158412,2.99450784 31.9158412,6.49105686" mask="url(#visage_03-d)"/>
      </g>
      <g transform="translate(81.216 1.979)">
        <mask id="visage_03-f" fill="#fff">
          <use xlink:href="#visage_03-e"/>
        </mask>
        <path fill="#8896FB" d="M33.8402255,6.49105686 C33.8402255,9.98760588 26.6953824,12.8237431 17.8813431,12.8237431 C9.06730392,12.8237431 1.92246078,9.98760588 1.92246078,6.49105686 C1.92246078,2.99450784 9.06730392,0.158370588 17.8813431,0.158370588 C26.6953824,0.158370588 33.8402255,2.99450784 33.8402255,6.49105686" mask="url(#visage_03-f)"/>
      </g>
    </g>
  </g>
</svg>
