<svg xmlns="http://www.w3.org/2000/svg" xmlns:xlink="http://www.w3.org/1999/xlink" width="347" height="347" viewBox="0 0 347 347">
  <defs>
    <polygon id="visage_06-a" points=".001 .107 205.656 .107 205.656 215.863 .001 215.863"/>
    <polygon id="visage_06-c" points="0 .158 31.916 .158 31.916 12.824 0 12.824"/>
    <polygon id="visage_06-e" points="1.922 .158 33.839 .158 33.839 12.824 1.922 12.824"/>
  </defs>
  <g fill="none" fill-rule="evenodd" transform="translate(70 65)">
    <path fill="#FFF" d="M174.072702,51.8034255 C173.560537,51.8034255 173.061176,51.8525824 172.555413,51.8803667 C167.068846,25.9148569 143.85497,6.41454314 116.044413,6.41454314 L89.6231041,6.41454314 C61.8104134,6.41454314 38.5965371,25.9148569 33.1099701,51.8803667 C32.6042072,51.8525824 32.1048464,51.8034255 31.5926814,51.8034255 C16.5072897,51.8034255 4.27935155,64.0498961 4.27935155,79.158151 C4.27935155,94.2685431 16.5072897,106.515014 31.5926814,106.515014 C31.6865784,106.515014 31.7804753,106.50219 31.8765062,106.500053 L31.8765062,116.68621 C31.8765062,136.011269 43.8206196,153.361504 61.9683309,160.397347 L74.087434,165.097171 C77.6149701,166.462876 81.2129289,167.5657 84.8578361,168.412053 L84.8578361,183.443367 L84.8578361,198.305837 L84.8578361,207.243837 C84.8578361,210.768171 87.7088876,213.623543 91.2278876,213.623543 L114.43963,213.623543 C117.956496,213.623543 120.807547,210.768171 120.807547,207.243837 L120.807547,198.305837 L120.807547,183.443367 L120.807547,168.412053 C124.452455,167.5657 128.052547,166.462876 131.577949,165.097171 L143.699187,160.397347 C161.846898,153.361504 173.788877,136.011269 173.788877,116.68621 L173.788877,106.500053 C173.882774,106.50219 173.976671,106.515014 174.072702,106.515014 C189.158094,106.515014 201.388166,94.2685431 201.388166,79.158151 C201.388166,64.0498961 189.158094,51.8034255 174.072702,51.8034255"/>
    <path fill="#FFF" d="M114.43899,213.623329 L91.2272474,213.623329 C87.7103814,213.623329 84.8593299,210.767957 84.8593299,207.245761 L84.8593299,183.443153 L120.806907,183.443153 L120.806907,207.245761 C120.806907,210.767957 117.955856,213.623329 114.43899,213.623329"/>
    <g transform="translate(0 2.03)">
      <mask id="visage_06-b" fill="#fff">
        <use xlink:href="#visage_06-a"/>
      </mask>
      <path fill="#2C00B9" d="M178.063534,99.8732804 L178.063534,61.6591627 C178.063534,59.1799471 177.914153,56.7221039 177.591915,54.3070059 C188.646142,56.0168098 197.120338,65.5917118 197.120338,77.1328882 C197.120338,88.4817118 188.880885,97.9711235 178.063534,99.8732804 Z M169.527452,114.663084 C169.527452,132.338182 158.769854,147.940143 142.147967,154.37328 L130.04807,159.075241 C128.40274,159.716418 126.738204,160.295614 125.075802,160.785045 C110.562328,165.316025 95.0906784,165.294653 80.5793381,160.785045 C78.9148021,160.295614 77.2737402,159.716418 75.6305443,159.075241 L63.5071732,154.37328 C46.8831526,147.940143 36.1511629,132.338182 36.1511629,114.663084 L36.1511629,108.4223 L36.1511629,99.7664176 L36.1511629,61.6591627 C36.1511629,59.2654373 36.3218845,56.9144569 36.6398536,54.6062216 C37.0026371,51.7423 37.6215031,48.9638686 38.4559052,46.2709275 C45.1119155,24.5136725 65.5366268,8.65524118 89.6297196,8.65524118 L116.046761,8.65524118 C140.139854,8.65524118 160.564565,24.5136725 167.222709,46.2709275 C168.054977,48.9638686 168.673843,51.7423 169.036627,54.6062216 C169.35673,56.9144569 169.527452,59.2654373 169.527452,61.6591627 L169.527452,99.7664176 L169.527452,108.4223 L169.527452,114.663084 Z M116.53972,177.135045 L89.1154206,177.135045 L89.1154206,171.578182 C93.6608845,172.347594 98.2511629,172.7323 102.839307,172.7323 C107.406111,172.7323 112.015596,172.347594 116.53972,171.599555 L116.53972,177.135045 Z M116.53972,205.218575 C116.53972,206.372692 115.598616,207.315222 114.446245,207.315222 L91.2302351,207.315222 C90.0778639,207.315222 89.1154206,206.372692 89.1154206,205.218575 L89.1154206,185.684065 L116.53972,185.684065 L116.53972,205.218575 Z M8.53693608,77.1328882 C8.53693608,65.5917118 17.0282041,56.0168098 28.0845649,54.3070059 C27.7623278,56.7221039 27.6150804,59.1799471 27.6150804,61.6591627 L27.6150804,99.8732804 C16.7955959,97.9711235 8.53693608,88.5030843 8.53693608,77.1328882 Z M175.884699,45.5656333 C168.759204,19.4056333 144.623431,0.106221569 116.046761,0.106221569 L89.6297196,0.106221569 C61.0338433,0.106221569 36.9172763,19.4056333 29.7917814,45.5656333 C13.2104412,46.4867902 0.000853608247,60.2913196 0.000853608247,77.1328882 C0.000853608247,93.2264176 12.0559361,106.541516 27.6150804,108.50779 L27.6150804,114.663084 C27.6150804,135.907398 40.4810907,154.629751 60.4363175,162.345241 L72.5575546,167.047202 C75.2037402,168.073084 77.871266,168.970731 80.5793381,169.697398 L80.5793381,177.135045 L80.5793381,205.218575 C80.5793381,211.096025 85.3616784,215.864241 91.2302351,215.864241 L114.446245,215.864241 C120.295596,215.864241 125.075802,211.096025 125.075802,205.218575 L125.075802,177.135045 L125.075802,169.697398 C127.783874,168.970731 130.47274,168.073084 133.118926,167.047202 L145.240163,162.345241 C165.171915,154.629751 178.063534,135.907398 178.063534,114.663084 L178.063534,108.50779 C193.59707,106.541516 205.656421,93.2264176 205.656421,77.1328882 C205.656421,60.3126922 192.468173,46.5060255 175.884699,45.5656333 Z" mask="url(#visage_06-b)"/>
    </g>
    <g transform="translate(47.02 87.627)">
      <g transform="translate(0 1.979)">
        <mask id="visage_06-d" fill="#fff">
          <use xlink:href="#visage_06-c"/>
        </mask>
        <path fill="#8896FB" d="M31.9158412,6.49105686 C31.9158412,9.98760588 24.770998,12.8237431 15.9569588,12.8237431 C7.14505686,12.8237431 0.00021372549,9.98760588 0.00021372549,6.49105686 C0.00021372549,2.99450784 7.14505686,0.158370588 15.9569588,0.158370588 C24.770998,0.158370588 31.9158412,2.99450784 31.9158412,6.49105686" mask="url(#visage_06-d)"/>
      </g>
      <g transform="translate(81.216 1.979)">
        <mask id="visage_06-f" fill="#fff">
          <use xlink:href="#visage_06-e"/>
        </mask>
        <path fill="#8896FB" d="M33.8402255,6.49105686 C33.8402255,9.98760588 26.6953824,12.8237431 17.8813431,12.8237431 C9.06730392,12.8237431 1.92246078,9.98760588 1.92246078,6.49105686 C1.92246078,2.99450784 9.06730392,0.158370588 17.8813431,0.158370588 C26.6953824,0.158370588 33.8402255,2.99450784 33.8402255,6.49105686" mask="url(#visage_06-f)"/>
      </g>
    </g>
  </g>
</svg>
