<svg xmlns="http://www.w3.org/2000/svg" xmlns:xlink="http://www.w3.org/1999/xlink" width="347" height="347" viewBox="0 0 347 347">
  <defs>
    <polygon id="visage_05-a" points=".001 1.09 201.632 1.09 201.632 215.863 .001 215.863"/>
    <polygon id="visage_05-c" points="0 .158 31.916 .158 31.916 12.824 0 12.824"/>
    <polygon id="visage_05-e" points="1.922 .158 33.839 .158 33.839 12.824 1.922 12.824"/>
  </defs>
  <g fill="none" fill-rule="evenodd" transform="translate(72 65)">
    <path fill="#FFF" d="M170.017628,52.1009314 C168.934249,52.1009314 167.872239,52.1821471 166.820913,52.3039706 C161.574965,26.1268725 138.469292,6.40642157 110.754449,6.40642157 L90.8903653,6.40642157 C63.1755232,6.40642157 40.0698495,26.1268725 34.8217653,52.3039706 C33.7725758,52.1821471 32.7084284,52.1009314 31.6229126,52.1009314 C16.5197126,52.1009314 4.27560737,64.347402 4.27560737,79.4556569 C4.27560737,94.566049 16.5197126,106.81252 31.6229126,106.81252 C32.3237968,106.81252 33.0139968,106.759088 33.70206,106.707794 L33.70206,128.407343 C33.70206,146.584696 48.4355863,161.321069 66.6094284,161.321069 L82.8237863,161.321069 L82.8237863,182.460657 L82.8237863,197.323127 L82.8237863,206.261127 C82.8237863,209.785461 85.6786074,212.640833 89.20226,212.640833 L112.444692,212.640833 C115.964071,212.640833 118.821028,209.785461 118.821028,206.261127 L118.821028,197.323127 L118.821028,182.460657 L118.821028,161.321069 L135.035386,161.321069 C153.209228,161.321069 167.942755,146.584696 167.942755,128.407343 L167.942755,106.707794 C168.630818,106.759088 169.316744,106.81252 170.017628,106.81252 C185.122965,106.81252 197.371344,94.566049 197.371344,79.4556569 C197.371344,64.347402 185.122965,52.1009314 170.017628,52.1009314"/>
    <path fill="#FFF" d="M112.444051,212.640192 L89.1994821,212.640192 C85.6801032,212.640192 82.8252821,209.78482 82.8252821,206.262624 L82.8252821,182.460016 L118.818251,182.460016 L118.818251,206.262624 C118.818251,209.78482 115.963429,212.640192 112.444051,212.640192"/>
    <g transform="translate(0 1.047)">
      <mask id="visage_05-b" fill="#fff">
        <use xlink:href="#visage_05-a"/>
      </mask>
      <path fill="#2C00B9" d="M172.208746,101.3918 L172.208746,62.5578784 C172.208746,60.1427804 172.059167,57.7490549 171.781378,55.3980745 C183.681452,56.2957216 193.085694,66.276702 193.085694,78.4163098 C193.085694,90.4063098 183.897273,100.280427 172.208746,101.3918 Z M163.661378,127.359447 C163.661378,143.153761 150.818957,155.998663 135.027694,155.998663 L123.104115,155.998663 L78.5509568,155.998663 L66.6060095,155.998663 C50.8126095,155.998663 37.9723253,143.153761 37.9723253,127.359447 L37.9723253,109.406506 L37.9723253,100.601016 L37.9723253,62.5578784 C37.9723253,60.4633686 38.1005358,58.3688588 38.35482,56.3384667 C38.6774832,53.4531725 39.2522937,50.6533686 40.0429253,47.9390549 C46.3893463,25.8398392 66.7769568,9.63944706 90.8783989,9.63944706 L110.753167,9.63944706 C134.856746,9.63944706 155.24222,25.8398392 161.586504,47.9390549 C162.377136,50.6533686 162.95622,53.4531725 163.274609,56.3384667 C163.531031,58.3688588 163.661378,60.4633686 163.661378,62.5578784 L163.661378,100.601016 L163.661378,109.406506 L163.661378,127.359447 Z M87.0983253,177.136114 L114.556746,177.136114 L114.556746,164.547682 L87.0983253,164.547682 L87.0983253,177.136114 Z M114.556746,205.219643 C114.556746,206.373761 113.593031,207.314153 112.439136,207.314153 L89.1902937,207.314153 C88.0363989,207.314153 87.0983253,206.373761 87.0983253,205.219643 L87.0983253,185.685133 L114.556746,185.685133 L114.556746,205.219643 Z M8.54800947,78.4163098 C8.54800947,66.276702 17.9693463,56.3170941 29.8523253,55.3980745 C29.5745358,57.7490549 29.4249568,60.1427804 29.4249568,62.5578784 L29.4249568,101.3918 C17.7342937,100.280427 8.54800947,90.3849373 8.54800947,78.4163098 Z M170.133873,46.7849373 C163.169904,20.496702 139.194536,1.09042745 110.753167,1.09042745 L90.8783989,1.09042745 C62.4605358,1.09042745 38.4637989,20.496702 31.4955568,46.7849373 C14.1251674,46.8490549 0.000641052632,61.0190549 0.000641052632,78.4163098 C0.000641052632,95.1082706 13.0140095,108.829447 29.4249568,109.962192 L29.4249568,127.359447 C29.4249568,147.855722 46.1136937,164.547682 66.6060095,164.547682 L78.5509568,164.547682 L78.5509568,177.136114 L78.5509568,205.219643 C78.5509568,211.097094 83.3374832,215.863173 89.1902937,215.863173 L112.439136,215.863173 C118.315452,215.863173 123.104115,211.097094 123.104115,205.219643 L123.104115,177.136114 L123.104115,164.547682 L135.027694,164.547682 C155.539241,164.547682 172.208746,147.855722 172.208746,127.359447 L172.208746,109.962192 C188.638925,108.85082 201.633062,95.1296431 201.633062,78.4163098 C201.633062,61.0190549 187.529904,46.8490549 170.133873,46.7849373 Z" mask="url(#visage_05-b)"/>
    </g>
    <g transform="translate(44.882 87.627)">
      <g transform="translate(0 1.979)">
        <mask id="visage_05-d" fill="#fff">
          <use xlink:href="#visage_05-c"/>
        </mask>
        <path fill="#8896FB" d="M31.9158412,6.49105686 C31.9158412,9.98760588 24.770998,12.8237431 15.9569588,12.8237431 C7.14505686,12.8237431 0.00021372549,9.98760588 0.00021372549,6.49105686 C0.00021372549,2.99450784 7.14505686,0.158370588 15.9569588,0.158370588 C24.770998,0.158370588 31.9158412,2.99450784 31.9158412,6.49105686" mask="url(#visage_05-d)"/>
      </g>
      <g transform="translate(81.216 1.979)">
        <mask id="visage_05-f" fill="#fff">
          <use xlink:href="#visage_05-e"/>
        </mask>
        <path fill="#8896FB" d="M33.8402255,6.49105686 C33.8402255,9.98760588 26.6953824,12.8237431 17.8813431,12.8237431 C9.06730392,12.8237431 1.92246078,9.98760588 1.92246078,6.49105686 C1.92246078,2.99450784 9.06730392,0.158370588 17.8813431,0.158370588 C26.6953824,0.158370588 33.8402255,2.99450784 33.8402255,6.49105686" mask="url(#visage_05-f)"/>
      </g>
    </g>
  </g>
</svg>
