<svg xmlns="http://www.w3.org/2000/svg" xmlns:xlink="http://www.w3.org/1999/xlink" width="347" height="347" viewBox="0 0 347 347">
  <defs>
    <polygon id="visage_01-a" points=".001 1.086 201.631 1.086 201.631 215.863 .001 215.863"/>
    <polygon id="visage_01-c" points="0 .159 31.802 .159 31.802 12.857 0 12.857"/>
    <polygon id="visage_01-e" points=".916 .159 32.718 .159 32.718 12.857 .916 12.857"/>
  </defs>
  <g fill="none" fill-rule="evenodd" transform="translate(72 65)">
    <path fill="#FFF" d="M197.360446,78.8756059 C197.360446,63.767351 185.114204,51.5208804 170.008867,51.5208804 C168.694709,51.5208804 167.412604,51.6448412 166.149731,51.8243706 L165.621931,48.3662922 C161.06832,18.4981549 144.195815,6.40556667 106.290373,6.40556667 L92.0568674,6.40556667 C52.8714568,6.40556667 36.3985411,19.966449 33.0436989,51.0186255 L32.9817305,51.5892725 C32.5244463,51.5657627 32.0757095,51.5208804 31.6162884,51.5208804 C16.5109516,51.5208804 4.26470947,63.767351 4.26470947,78.8756059 C4.26470947,92.451449 14.1604253,103.682724 27.1225095,105.830665 L26.7400147,109.369959 C23.7441621,137.111527 45.4758463,161.320214 73.3744568,161.320214 L82.8150253,161.320214 L82.8150253,182.459802 L82.8150253,197.322273 L82.8150253,206.26241 C82.8150253,209.784606 85.6677095,212.639978 89.1913621,212.639978 L112.433794,212.639978 C115.953173,212.639978 118.810131,209.784606 118.810131,206.26241 L118.810131,197.322273 L118.810131,182.459802 L118.810131,161.320214 L128.246425,161.320214 C156.96772,161.320214 178.945141,135.732998 174.611625,107.333155 L174.387257,105.8499 C187.407036,103.748978 197.360446,92.4899196 197.360446,78.8756059"/>
    <path fill="#FFF" d="M112.43358,212.639765 L89.1911484,212.639765 C85.6696326,212.639765 82.8148116,209.784392 82.8148116,206.262196 L82.8148116,182.459588 L118.809917,182.459588 L118.809917,206.262196 C118.809917,209.784392 115.955096,212.639765 112.43358,212.639765"/>
    <g transform="translate(0 1.052)">
      <mask id="visage_01-b" fill="#fff">
        <use xlink:href="#visage_01-a"/>
      </mask>
      <path fill="#2C00B9" d="M177.893174,99.5274725 L171.095879,54.7733549 C183.318616,55.3504137 193.083984,65.4596294 193.083984,77.8343353 C193.083984,87.7939431 186.758932,96.3002176 177.893174,99.5274725 Z M160.582616,141.139825 C152.483984,150.586492 140.690753,155.993747 128.254332,155.993747 L123.085311,155.993747 L78.5407,155.993747 L73.3802263,155.993747 C61.2857,155.993747 49.7253842,150.842963 41.6459842,141.84512 C33.7183,133.018257 29.8527526,121.241982 30.9211737,109.444335 C30.9404053,109.23061 30.9617737,108.995512 30.9852789,108.781786 L31.8378789,100.916688 L36.7526158,55.3290412 L37.2868263,50.4347275 C37.4171737,49.1951196 37.5881211,47.9768843 37.7804368,46.8013941 C41.8169316,20.1284529 57.3539105,9.63453137 92.0562263,9.63453137 L106.285458,9.63453137 C141.970721,9.63453137 156.949984,19.8933549 161.309142,47.4425706 C161.332647,47.613551 161.375384,47.7845314 161.394616,47.9555118 L162.614753,55.9915902 L169.474016,100.916688 L170.390721,106.922375 C170.518932,107.755904 170.627911,108.610806 170.689879,109.444335 C171.7583,120.921394 168.127805,132.334335 160.582616,141.139825 Z M87.0880684,177.135473 L114.537942,177.135473 L114.537942,164.542767 L87.0880684,164.542767 L87.0880684,177.135473 Z M114.537942,205.210453 C114.537942,206.370982 113.593458,207.313512 112.433153,207.313512 L89.1907211,207.313512 C88.0304158,207.313512 87.0880684,206.370982 87.0880684,205.210453 L87.0880684,185.684492 L114.537942,185.684492 L114.537942,205.210453 Z M8.54843684,77.8343353 C8.54843684,66.2504137 17.0958053,56.6541392 28.2052474,55.0084529 L23.4187211,99.3992373 C14.7239105,96.0864922 8.54843684,87.6657078 8.54843684,77.8343353 Z M201.631353,77.8343353 C201.631353,60.3943353 187.444858,46.2029627 170.008226,46.2029627 L169.771037,46.2029627 C164.770826,14.5929627 145.776437,1.08551176 106.285458,1.08551176 L92.0562263,1.08551176 C52.6934579,1.08551176 33.6990684,14.6357078 29.2117,46.3098255 C12.8840895,47.5280608 0.00106842105,61.2064922 0.00106842105,77.8343353 C0.00106842105,92.0898255 9.48651053,104.186688 22.4806474,108.097865 C20.9827211,122.438845 25.6431737,136.822571 35.3017,147.55159 C44.9794579,158.344727 58.8689316,164.542767 73.3802263,164.542767 L78.5407,164.542767 L78.5407,177.135473 L78.5407,205.210453 C78.5407,211.083629 83.3186789,215.862531 89.1907211,215.862531 L112.433153,215.862531 C118.305195,215.862531 123.085311,211.083629 123.085311,205.210453 L123.085311,177.135473 L123.085311,164.542767 L128.254332,164.542767 C143.190858,164.542767 157.334616,158.045512 167.059384,146.718061 C176.267037,136.010414 180.606963,122.075512 179.132542,108.119237 C192.122405,104.208061 201.631353,92.111198 201.631353,77.8343353 Z" mask="url(#visage_01-b)"/>
    </g>
    <g transform="translate(43 89)">
      <g transform="translate(0 .984)">
        <mask id="visage_01-d" fill="#fff">
          <use xlink:href="#visage_01-c"/>
        </mask>
        <path fill="#8896FB" d="M31.8019722,6.50807143 C31.8019722,10.0137857 24.6826204,12.8573571 15.9000278,12.8573571 C7.11956481,12.8573571 0.000212962963,10.0137857 0.000212962963,6.50807143 C0.000212962963,3.00235714 7.11956481,0.158785714 15.9000278,0.158785714 C24.6826204,0.158785714 31.8019722,3.00235714 31.8019722,6.50807143" mask="url(#visage_01-d)"/>
      </g>
      <g transform="translate(81.926 .984)">
        <mask id="visage_01-f" fill="#fff">
          <use xlink:href="#visage_01-e"/>
        </mask>
        <path fill="#8896FB" d="M32.7194907,6.50807143 C32.7194907,10.0137857 25.6001389,12.8573571 16.8175463,12.8573571 C8.0349537,12.8573571 0.915601852,10.0137857 0.915601852,6.50807143 C0.915601852,3.00235714 8.0349537,0.158785714 16.8175463,0.158785714 C25.6001389,0.158785714 32.7194907,3.00235714 32.7194907,6.50807143" mask="url(#visage_01-f)"/>
      </g>
    </g>
  </g>
</svg>
