<svg xmlns="http://www.w3.org/2000/svg" xmlns:xlink="http://www.w3.org/1999/xlink" width="347" height="347" viewBox="0 0 347 347">
  <defs>
    <polygon id="visage_04-a" points="0 1.727 205.655 1.727 205.655 215.863 0 215.863"/>
    <polygon id="visage_04-c" points="0 .158 31.916 .158 31.916 12.824 0 12.824"/>
    <polygon id="visage_04-e" points="1.922 .158 33.839 .158 33.839 12.824 1.922 12.824"/>
  </defs>
  <g fill="none" fill-rule="evenodd" transform="translate(70 65)">
    <path fill="#FFF" d="M174.06758,51.0303804 C173.971549,51.0303804 173.879787,51.0432039 173.783756,51.0453412 L173.783756,47.6791647 C173.783756,24.8874784 156.276251,6.4109098 134.677828,6.4109098 L70.9794464,6.4109098 C49.3810237,6.4109098 31.8713845,24.8874784 31.8713845,47.6791647 L31.8713845,51.0453412 C31.7753536,51.0432039 31.6835907,51.0303804 31.5875598,51.0303804 C16.5043021,51.0303804 4.27636392,63.276851 4.27636392,78.3851059 C4.27636392,93.4933608 16.5043021,105.741969 31.5875598,105.741969 C32.2853845,105.741969 32.9661371,105.688537 33.6468897,105.637243 C38.5786113,127.712949 53.4740753,146.307067 74.0844464,154.811204 L83.6427247,158.754439 C84.0417866,158.919008 84.4536526,159.032282 84.8548485,159.186165 L84.8548485,181.819694 L84.8548485,196.680027 L84.8548485,205.620165 C84.8548485,209.142361 87.7059,211.997733 91.2249,211.997733 L114.436642,211.997733 C117.951374,211.997733 120.80456,209.142361 120.80456,205.620165 L120.80456,196.680027 L120.80456,181.819694 L120.80456,159.186165 C121.205756,159.032282 121.615488,158.919008 122.012415,158.754439 L131.572828,154.811204 C152.181065,146.307067 167.078663,127.712949 172.008251,105.637243 C172.691137,105.688537 173.374024,105.741969 174.06758,105.741969 C189.152972,105.741969 201.383044,93.4933608 201.383044,78.3851059 C201.383044,63.276851 189.152972,51.0303804 174.06758,51.0303804"/>
    <path fill="#FFF" d="M114.433655,211.998588 L91.2219124,211.998588 C87.7071804,211.998588 84.8561289,209.143216 84.8561289,205.62102 L84.8561289,181.818412 L120.801572,181.818412 L120.801572,205.62102 C120.801572,209.143216 117.950521,211.998588 114.433655,211.998588"/>
    <g transform="translate(0 .41)">
      <mask id="visage_04-b" fill="#fff">
        <use xlink:href="#visage_04-a"/>
      </mask>
      <path fill="#2C00B9" d="M177.187305,100.852784 C177.765625,97.0484706 178.062254,93.1372941 178.062254,89.162 L178.062254,55.2437647 C188.860398,57.1459216 197.119058,66.6139608 197.119058,77.9841569 C197.119058,89.6321961 188.412254,99.3139608 177.187305,100.852784 Z M129.940089,150.458471 L120.379676,154.39102 C118.887996,155.010824 117.370707,155.545137 115.855553,155.993961 C107.31947,158.537294 98.3352433,158.537294 89.7991608,155.993961 C88.2840062,155.545137 86.7688515,155.010824 85.2771711,154.39102 L75.7146247,150.458471 C57.6373361,142.999451 44.3893361,127.547098 38.9027691,108.739255 C38.1345216,106.024941 37.4943155,103.24651 37.0461711,100.403961 C36.4486454,96.7492549 36.1498825,92.9876863 36.1498825,89.162 L36.1498825,55.3506275 L36.1498825,47.2718039 C36.1498825,47.079451 36.1498825,46.887098 36.1712227,46.6947451 C36.4486454,26.5404314 51.9629753,10.2759216 70.9749649,10.2759216 L134.677614,10.2759216 C153.691738,10.2759216 169.229542,26.5404314 169.502697,46.6947451 C169.526171,46.887098 169.526171,47.079451 169.526171,47.2718039 L169.526171,55.3506275 L169.526171,89.162 C169.526171,92.9876863 169.229542,96.7492549 168.629882,100.403961 C168.181738,103.24651 167.539398,106.024941 166.773285,108.739255 C161.288852,127.547098 148.015243,142.999451 129.940089,150.458471 Z M114.425759,207.309451 L91.2289546,207.309451 C90.7786763,207.309451 90.3838825,207.138471 90.0424392,206.903373 C89.5003979,206.520804 89.1226763,205.922373 89.1226763,205.210667 L89.1226763,185.682569 L116.534171,185.682569 L116.534171,205.210667 C116.534171,205.802686 116.284491,206.334863 115.889697,206.717431 C115.511975,207.080765 114.997676,207.309451 114.425759,207.309451 Z M116.538439,177.133549 L89.1141402,177.133549 L89.1141402,164.671216 C93.6190577,165.846706 98.2285423,166.445137 102.838027,166.445137 C107.426171,166.445137 112.035656,165.846706 116.538439,164.671216 L116.538439,177.133549 Z M8.53565567,77.9841569 C8.53565567,66.6139608 16.7943155,57.1459216 27.6138,55.2437647 L27.6138,89.162 C27.6138,93.1372941 27.9125629,97.0484706 28.4887485,100.852784 C17.2424598,99.3353333 8.53565567,89.6535686 8.53565567,77.9841569 Z M178.038779,46.6092549 C177.72081,21.7957255 158.386584,1.72690196 134.677614,1.72690196 L70.9749649,1.72690196 C47.2681299,1.72690196 27.9552433,21.7957255 27.6351402,46.6092549 C12.0781299,48.5541569 -0.000426804124,61.8906275 -0.000426804124,77.9841569 C-0.000426804124,94.9967059 13.4652433,108.910235 30.2813258,109.572784 C36.1712227,131.543765 51.4508103,149.667686 72.4495732,158.344941 L80.5780577,161.700431 L80.5780577,205.214941 C80.5780577,208.591804 82.1871093,211.566863 84.645501,213.516039 C86.4594186,214.962961 88.7278825,215.862745 91.2225526,215.862745 L114.434295,215.862745 C117.221326,215.862745 119.743738,214.757784 121.643016,212.994549 C123.738625,211.049647 125.074522,208.296863 125.074522,205.214941 L125.074522,161.700431 L133.20514,158.344941 C154.225243,149.667686 169.502697,131.543765 175.394728,109.572784 C192.18947,108.888863 205.65514,94.9753333 205.65514,77.9841569 C205.65514,61.8906275 193.597924,48.5755294 178.038779,46.6092549 Z" mask="url(#visage_04-b)"/>
    </g>
    <g transform="translate(44.882 87.627)">
      <g transform="translate(0 1.979)">
        <mask id="visage_04-d" fill="#fff">
          <use xlink:href="#visage_04-c"/>
        </mask>
        <path fill="#8896FB" d="M31.9158412,6.49105686 C31.9158412,9.98760588 24.770998,12.8237431 15.9569588,12.8237431 C7.14505686,12.8237431 0.00021372549,9.98760588 0.00021372549,6.49105686 C0.00021372549,2.99450784 7.14505686,0.158370588 15.9569588,0.158370588 C24.770998,0.158370588 31.9158412,2.99450784 31.9158412,6.49105686" mask="url(#visage_04-d)"/>
      </g>
      <g transform="translate(81.216 1.979)">
        <mask id="visage_04-f" fill="#fff">
          <use xlink:href="#visage_04-e"/>
        </mask>
        <path fill="#8896FB" d="M33.8402255,6.49105686 C33.8402255,9.98760588 26.6953824,12.8237431 17.8813431,12.8237431 C9.06730392,12.8237431 1.92246078,9.98760588 1.92246078,6.49105686 C1.92246078,2.99450784 9.06730392,0.158370588 17.8813431,0.158370588 C26.6953824,0.158370588 33.8402255,2.99450784 33.8402255,6.49105686" mask="url(#visage_04-f)"/>
      </g>
    </g>
  </g>
</svg>
