<svg xmlns="http://www.w3.org/2000/svg" xmlns:xlink="http://www.w3.org/1999/xlink" width="347" height="347" viewBox="0 0 347 347">
  <defs>
    <polygon id="boucle-d'oreille-a" points=".713 .826 8.445 .826 8.445 8.56 .713 8.56"/>
    <polygon id="boucle-d'oreille-c" points=".001 .826 7.733 .826 7.733 8.56 .001 8.56"/>
  </defs>
  <g fill="none" fill-rule="evenodd" transform="translate(86 149)">
    <g transform="translate(164.78 1.313)">
      <mask id="boucle-d'oreille-b" fill="#fff">
        <use xlink:href="#boucle-d'oreille-a"/>
      </mask>
      <path fill="#2C00B9" d="M8.44529585,4.69323392 C8.44529585,6.82895388 6.71403588,8.56021385 4.57831592,8.56021385 C2.44473596,8.56021385 0.713475987,6.82895388 0.713475987,4.69323392 C0.713475987,2.55751395 2.44473596,0.826253985 4.57831592,0.826253985 C6.71403588,0.826253985 8.44529585,2.55751395 8.44529585,4.69323392" mask="url(#boucle-d'oreille-b)"/>
    </g>
    <g transform="translate(0 1.313)">
      <mask id="boucle-d'oreille-d" fill="#fff">
        <use xlink:href="#boucle-d'oreille-c"/>
      </mask>
      <path fill="#2C00B9" d="M7.73267586,4.69323392 C7.73267586,6.82895388 6.00141589,8.56021385 3.86569593,8.56021385 C1.72997597,8.56021385 0.000855999985,6.82895388 0.000855999985,4.69323392 C0.000855999985,2.55751395 1.72997597,0.826253985 3.86569593,0.826253985 C6.00141589,0.826253985 7.73267586,2.55751395 7.73267586,4.69323392" mask="url(#boucle-d'oreille-d)"/>
    </g>
  </g>
</svg>
