<svg xmlns="http://www.w3.org/2000/svg" xmlns:xlink="http://www.w3.org/1999/xlink" width="347" height="347" viewBox="0 0 347 347">
  <defs>
    <polygon id="tache-de-rousseur-a" points="2.026 1.896 6.548 1.896 6.548 6.418 2.026 6.418"/>
  </defs>
  <g fill="none" fill-rule="evenodd" transform="translate(119 153)">
    <path fill="#2C00B9" d="M93.5757783 5.6674047C93.5757783 6.91502468 92.5614184 7.92724466 91.3137984 7.92724466 90.0640384 7.92724466 89.0539584 6.91502468 89.0539584 5.6674047 89.0539584 4.41978472 90.0640384 3.40542474 91.3137984 3.40542474 92.5614184 3.40542474 93.5757783 4.41978472 93.5757783 5.6674047M106.30086 7.92745866C106.30086 9.17507864 105.28864 10.1894386 104.04102 10.1894386 102.79126 10.1894386 101.78118 9.17507864 101.78118 7.92745866 101.78118 6.67983868 102.79126 5.6676187 104.04102 5.6676187 105.28864 5.6676187 106.30086 6.67983868 106.30086 7.92745866M91.3146544 17.2428785C91.3146544 18.4904985 90.3024344 19.5027185 89.0526744 19.5027185 87.8050544 19.5027185 86.7928345 18.4904985 86.7928345 17.2428785 86.7928345 15.9952585 87.8050544 14.9808985 89.0526744 14.9808985 90.3024344 14.9808985 91.3146544 15.9952585 91.3146544 17.2428785"/>
    <g transform="translate(10.7 .243)">
      <mask id="tache-de-rousseur-b" fill="#fff">
        <use xlink:href="#tache-de-rousseur-a"/>
      </mask>
      <path fill="#2C00B9" d="M2.02593796,4.15780593 C2.02593796,5.4054259 3.04029795,6.41764589 4.28791792,6.41764589 C5.5376779,6.41764589 6.54775788,5.4054259 6.54775788,4.15780593 C6.54775788,2.91018595 5.5376779,1.89582597 4.28791792,1.89582597 C3.04029795,1.89582597 2.02593796,2.91018595 2.02593796,4.15780593" mask="url(#tache-de-rousseur-b)"/>
    </g>
    <path fill="#2C00B9" d="M.000855999985 6.66100668C.000855999985 7.90862666 1.01307598 8.92298664 2.26069596 8.92298664 3.51045594 8.92298664 4.52053592 7.90862666 4.52053592 6.66100668 4.52053592 5.4133867 3.51045594 4.40116672 2.26069596 4.40116672 1.01307598 4.40116672.000855999985 5.4133867.000855999985 6.66100668M14.9872757 15.9764265C14.9872757 17.2240465 15.9994957 18.2362665 17.2492557 18.2362665 18.4968757 18.2362665 19.5090957 17.2240465 19.5090957 15.9764265 19.5090957 14.7288065 18.4968757 13.7144466 17.2492557 13.7144466 15.9994957 13.7144466 14.9872757 14.7288065 14.9872757 15.9764265"/>
  </g>
</svg>
