<svg xmlns="http://www.w3.org/2000/svg" width="347" height="347" viewBox="0 0 347 347">
  <path fill="#2C00B9" d="M91.3146544,15.2428785 C91.3146544,16.4904985 90.3024344,17.5027185 89.0526744,17.5027185 C87.8050544,17.5027185 86.7928345,16.4904985 86.7928345,15.2428785 C86.7928345,13.9952585 87.8050544,12.9808985 89.0526744,12.9808985 C90.3024344,12.9808985 91.3146544,13.9952585 91.3146544,15.2428785 Z M93.5757783,3.6674047 C93.5757783,4.91502468 92.5614184,5.92724466 91.3137984,5.92724466 C90.0640384,5.92724466 89.0539584,4.91502468 89.0539584,3.6674047 C89.0539584,2.41978472 90.0640384,1.40542474 91.3137984,1.40542474 C92.5614184,1.40542474 93.5757783,2.41978472 93.5757783,3.6674047 Z M106.30086,5.92745866 C106.30086,7.17507864 105.28864,8.1894386 104.04102,8.1894386 C102.79126,8.1894386 101.78118,7.17507864 101.78118,5.92745866 C101.78118,4.67983868 102.79126,3.6676187 104.04102,3.6676187 C105.28864,3.6676187 106.30086,4.67983868 106.30086,5.92745866 Z M14.9872757,13.9764265 C14.9872757,12.7288065 15.9994957,11.7144466 17.2492557,11.7144466 C18.4968757,11.7144466 19.5090957,12.7288065 19.5090957,13.9764265 C19.5090957,15.2240465 18.4968757,16.2362665 17.2492557,16.2362665 C15.9994957,16.2362665 14.9872757,15.2240465 14.9872757,13.9764265 Z M12.725938,2.40080593 C12.725938,1.15318595 13.740298,0.13882597 14.9879179,0.13882597 C16.2376779,0.13882597 17.2477579,1.15318595 17.2477579,2.40080593 C17.2477579,3.6484259 16.2376779,4.66064589 14.9879179,4.66064589 C13.740298,4.66064589 12.725938,3.6484259 12.725938,2.40080593 Z M0.000855999985,4.66100668 C0.000855999985,3.4133867 1.01307598,2.40116672 2.26069596,2.40116672 C3.51045594,2.40116672 4.52053592,3.4133867 4.52053592,4.66100668 C4.52053592,5.90862666 3.51045594,6.92298664 2.26069596,6.92298664 C1.01307598,6.92298664 0.000855999985,5.90862666 0.000855999985,4.66100668 Z" transform="translate(119 154)"/>
</svg>
