<svg xmlns="http://www.w3.org/2000/svg" xmlns:xlink="http://www.w3.org/1999/xlink" width="347" height="347" viewBox="0 0 347 347">
  <defs>
    <polygon id="noeud-a" points="0 1.135 95.753 1.135 95.753 36.38 0 36.38"/>
  </defs>
  <g fill="none" fill-rule="evenodd" transform="translate(125 39)">
    <path fill="#FF674A" d="M93.6168691,4.28727605 C75.8869689,4.28727605 62.2615887,11.0881961 53.9091686,16.8084162 C52.2164286,15.5629362 50.1449086,14.8032362 47.8829286,14.8032362 C45.6166685,14.8032362 43.5472885,15.5629362 41.8545485,16.8084162 C33.5021284,11.0881961 19.8767482,4.28727605 2.14684803,4.28727605 C2.14684803,4.28727605 1.21594801,31.4866764 37.8848485,27.1317763 C38.8585485,31.7627364 42.9609285,35.2423764 47.8829286,35.2423764 C52.8027886,35.2423764 56.9051687,31.7627364 57.8767287,27.1317763 C94.5456291,31.4866764 93.6168691,4.28727605 93.6168691,4.28727605"/>
    <g transform="translate(0 1.006)">
      <mask id="noeud-b" fill="#fff">
        <use xlink:href="#noeud-a"/>
      </mask>
      <path fill="#2C00B9" d="M83.999495,19.1307442 C78.5660349,23.4749443 70.6030948,25.1869443 60.2262347,24.2474843 C60.2454947,24.1618843 60.2454947,24.0955443 60.2454947,24.0099443 C60.2454947,23.2181443 60.1812947,22.4712843 60.0100947,21.7201443 C64.5468948,20.1579442 69.8562348,18.7904842 74.2860349,18.9381442 C75.3966949,19.0237442 76.4474349,18.0607442 76.4880949,16.8623442 C76.5308949,15.6874842 75.6106949,14.7030842 74.4336949,14.6581442 C69.3212348,14.4462842 63.3912948,15.9442842 58.4500347,17.6562842 C58.1482947,17.1212842 57.7844947,16.6055442 57.3800347,16.1154842 C65.1910348,11.1913441 76.8112349,5.97188407 91.3396951,5.45614406 C90.9544951,8.6254841 89.4992951,14.7223442 83.999495,19.1307442 M47.8762946,32.1012844 C44.8374945,32.1012844 42.1860345,30.4106844 40.7950345,27.9068843 C40.1744345,26.7512843 39.8106345,25.4223443 39.8106345,24.0099443 C39.8106345,23.9029443 39.8106345,23.8173443 39.8298945,23.7124843 C39.8298945,23.0255443 39.9582945,22.3642843 40.1508945,21.7201443 C40.4932945,20.5217442 41.1160345,19.4324842 41.9698945,18.5336842 C42.1196945,18.3410842 42.3144345,18.1698842 42.5048945,17.9986842 C43.5106945,17.0998842 44.7304945,16.4557442 46.0786945,16.1561442 C46.6586346,16.0063442 47.2556946,15.9442842 47.8762946,15.9442842 C48.4968946,15.9442842 49.0960946,16.0063442 49.6760346,16.1561442 C51.2810346,16.5199442 52.7148346,17.3545442 53.8062346,18.5336842 C53.9966946,18.7455442 54.1892946,18.9595442 54.3412346,19.1949442 C55.2186347,20.3505442 55.7750347,21.7201443 55.9248347,23.2181443 C55.9462347,23.3893443 55.9462347,23.5412843 55.9462347,23.7124843 C55.9654947,23.8173443 55.9654947,23.9029443 55.9654947,24.0099443 C55.9654947,25.4223443 55.6016947,26.7512843 54.9596947,27.9068843 C53.5900946,30.4106844 50.9150946,32.1012844 47.8762946,32.1012844 M11.7958941,19.1542842 C6.29609407,14.7886842 4.81949406,8.6468841 4.43429405,5.45614406 C18.9648942,5.97188407 30.5850944,11.1913441 38.3960945,16.1154842 C38.2698345,16.2631442 38.1606945,16.4129442 38.0536945,16.5648842 C33.9662944,15.3857442 29.5600344,14.5318842 25.6010343,14.6581442 C24.4218943,14.7030842 23.5016943,15.6874842 23.5444943,16.8623442 C23.5894343,18.0607442 24.6358943,19.0451442 25.7700943,18.9381442 C28.9586943,18.8118842 32.5966944,19.4731442 36.0656344,20.4361442 C35.7210944,21.5724843 35.5306344,22.7687443 35.5306344,24.0099443 C35.5306344,24.0762843 35.5306344,24.1618843 35.5498944,24.2260843 C25.2136943,25.1869443 17.2550342,23.4749443 11.7958941,19.1542842 M95.7480951,3.21128404 C95.7074351,2.05568402 94.7636951,1.13548401 93.6080951,1.13548401 C76.0836349,1.13548401 62.4924947,7.49128409 53.8254946,13.2029442 C52.0706946,12.2206841 50.0398346,11.6642841 47.8762946,11.6642841 C45.7148945,11.6642841 43.7032945,12.2206841 41.9270945,13.2029442 C33.2600944,7.49128409 19.6710942,1.13548401 2.14449403,1.13548401 C0.991034012,1.13548401 0.0494340006,2.05568402 0.00449400005,3.21128404 C-0.0169060002,3.67994404 -0.295106004,14.9812842 9.07809411,22.4712843 C14.3424942,26.6656843 21.4258943,28.7607443 30.2854944,28.7607443 C32.2350344,28.7607443 34.2444944,28.6537443 36.3630944,28.4418843 C38.1392945,33.0856844 42.6332945,36.3812844 47.8762946,36.3812844 C53.1406946,36.3812844 57.6346947,33.0856844 59.4108947,28.4418843 C61.5294947,28.6537443 63.5410948,28.7607443 65.4906348,28.7607443 C74.3480949,28.7607443 81.433635,26.6656843 86.674495,22.4712843 C96.0498351,14.9812842 95.7694951,3.67994404 95.7480951,3.21128404" mask="url(#noeud-b)"/>
    </g>
  </g>
</svg>
