<svg xmlns="http://www.w3.org/2000/svg" xmlns:xlink="http://www.w3.org/1999/xlink" width="347" height="347" viewBox="0 0 347 347">
  <defs>
    <polygon id="barette-a" points=".001 1.473 24.206 1.473 24.206 25.68 .001 25.68"/>
  </defs>
  <g fill="none" fill-rule="evenodd" transform="translate(203 65)">
    <path fill="#FF674A" d="M46.3213706,3.34375004 L43.6463705,0.00107000001 L19.4108702,19.3916102 C17.5875902,17.4142502 15.0003302,16.1559302 12.1027701,16.1559302 C6.59869008,16.1559302 2.13893003,20.6178302 2.13893003,26.1219103 C2.13893003,31.6238504 6.59869008,36.0836104 12.1027701,36.0836104 C17.6047102,36.0836104 22.0666103,31.6238504 22.0666103,26.1219103 C22.0666103,25.0775903 21.8611703,24.0931903 21.5658503,23.1494503 L46.3213706,3.34375004 Z"/>
    <g transform="translate(0 12.543)">
      <mask id="barette-b" fill="#fff">
        <use xlink:href="#barette-a"/>
      </mask>
      <path fill="#FFF" d="M12.1023421,5.75339007 C7.78810209,5.75339007 4.28064205,9.26513011 4.28064205,13.5772302 C4.28064205,17.8914702 7.78810209,21.4010703 12.1023421,21.4010703 C16.4165822,21.4010703 19.9261822,17.8914702 19.9261822,13.5772302 C19.9261822,9.26513011 16.4165822,5.75339007 12.1023421,5.75339007 M12.1023421,25.6810703 C5.42982206,25.6810703 0.000642000008,20.2497502 0.000642000008,13.5772302 C0.000642000008,6.90257008 5.42982206,1.47339002 12.1023421,1.47339002 C18.7770022,1.47339002 24.2061823,6.90257008 24.2061823,13.5772302 C24.2061823,20.2497502 18.7770022,25.6810703 12.1023421,25.6810703" mask="url(#barette-b)"/>
    </g>
  </g>
</svg>
