<svg xmlns="http://www.w3.org/2000/svg" width="347" height="347" viewBox="0 0 347 347">
  <g fill="none" transform="translate(203 64)">
    <path fill="#FF674A" d="M46.3213706,3.34375004 L43.6463705,0.00107000001 L19.4108702,19.3916102 C17.5875902,17.4142502 15.0003302,16.1559302 12.1027701,16.1559302 C6.59869008,16.1559302 2.13893003,20.6178302 2.13893003,26.1219103 C2.13893003,31.6238504 6.59869008,36.0836104 12.1027701,36.0836104 C17.6047102,36.0836104 22.0666103,31.6238504 22.0666103,26.1219103 C22.0666103,25.0775903 21.8611703,24.0931903 21.5658503,23.1494503 L46.3213706,3.34375004 Z"/>
    <path fill="#FFF" d="M12.1023421,18.2963901 C7.78810209,18.2963901 4.28064205,21.8081301 4.28064205,26.1202302 C4.28064205,30.4344702 7.78810209,33.9440703 12.1023421,33.9440703 C16.4165822,33.9440703 19.9261822,30.4344702 19.9261822,26.1202302 C19.9261822,21.8081301 16.4165822,18.2963901 12.1023421,18.2963901 M12.1023421,38.2240703 C5.42982206,38.2240703 0.000642000008,32.7927502 0.000642000008,26.1202302 C0.000642000008,19.4455701 5.42982206,14.01639 12.1023421,14.01639 C18.7770022,14.01639 24.2061823,19.4455701 24.2061823,26.1202302 C24.2061823,32.7927502 18.7770022,38.2240703 12.1023421,38.2240703"/>
  </g>
</svg>
