<svg xmlns="http://www.w3.org/2000/svg" xmlns:xlink="http://www.w3.org/1999/xlink" width="347" height="347" viewBox="0 0 347 347">
  <defs>
    <polygon id="pansement-a" points="0 1.922 36.461 1.922 36.461 42.8 0 42.8"/>
  </defs>
  <g fill="none" fill-rule="evenodd" transform="translate(115 148)">
    <path fill="#D3A98C" d="M8.61071774,40.9771467 L2.89049791,36.5666069 C0.842517974,34.9872869 0.461597986,32.049067 2.04091794,30.0010871 L21.2859373,5.03370785 C22.8631173,2.98572791 25.8013372,2.60480792 27.8493171,4.18626787 L33.571677,8.59466774 C35.6175169,10.1718477 35.9984369,13.1122076 34.4212569,15.1601875 L15.1740975,40.1275668 C13.5969176,42.1755467 10.6586977,42.5543267 8.61071774,40.9771467"/>
    <path fill="#2C00B9" d="M23.0869613 12.2271036C23.4015413 11.8183636 23.3245013 11.2298637 22.9157613 10.9152837 22.5070213 10.5985637 21.9185213 10.6734637 21.6039413 11.0843437 21.2872213 11.4930836 21.3621213 12.0837236 21.7730013 12.3983036 22.1817413 12.7150236 22.7723813 12.6358436 23.0869613 12.2271036M28.4893911 16.3921855C28.8039711 15.9834455 28.7269311 15.3949455 28.3181911 15.0803655 27.9094511 14.7636455 27.3209512 14.8385455 27.0063712 15.2494255 26.6896512 15.6581655 26.7666912 16.2466655 27.1754312 16.5612455 27.5841712 16.8779655 28.1748111 16.8009255 28.4893911 16.3921855M25.2918032 9.36827771C25.6063832 8.95953773 25.5293432 8.36889774 25.1206032 8.05431775 24.7118632 7.73759776 24.1233633 7.81463776 23.8087833 8.22551775 23.4920633 8.63425774 23.5669633 9.22275772 23.9778433 9.53733771 24.3865833 9.8540577 24.9772232 9.7770177 25.2918032 9.36827771M30.6940191 13.5312196C31.0085991 13.1224796 30.9315591 12.5339796 30.5228191 12.2193996 30.1140791 11.9026796 29.5255791 11.9775796 29.2109991 12.3884596 28.8942791 12.7971996 28.9691791 13.3878396 29.3800591 13.7024196 29.7887991 14.0191396 30.3794391 13.9399596 30.6940191 13.5312196M7.25031978 32.772387C7.56489977 32.363647 7.48999977 31.775147 7.08125978 31.460567 6.6703798 31.143847 6.08401981 31.218747 5.76729982 31.629627 5.45057983 32.038367 5.52761983 32.626867 5.93849982 32.941447 6.34723981 33.258167 6.93573979 33.181127 7.25031978 32.772387M12.6525356 36.9374689C12.9671156 36.5287289 12.8922156 35.9380889 12.4834756 35.6235089 12.0725956 35.3067889 11.4862356 35.3838289 11.1716557 35.7947089 10.8549357 36.2034489 10.9298357 36.7919489 11.3407157 37.1065289 11.7494556 37.4232489 12.3379556 37.3462089 12.6525356 36.9374689M9.45494771 29.9114211C9.7695277 29.5026811 9.6946277 28.9141811 9.28588772 28.5996011 8.87500773 28.2828811 8.28650775 28.3577811 7.97192776 28.7686611 7.65520777 29.1774011 7.73224776 29.7680411 8.14312775 30.0826211 8.55186774 30.3993411 9.14036772 30.3201611 9.45494771 29.9114211M14.8571635 34.076503C15.1717435 33.667763 15.0968435 33.079263 14.6881036 32.764683 14.2772236 32.447963 13.6908636 32.522863 13.3762836 32.933743 13.0595636 33.342483 13.1344636 33.930983 13.5453436 34.245563 13.9540836 34.5622829 14.5425836 34.4852429 14.8571635 34.076503"/>
    <polygon fill="#FFF" points="20.989 32.586 7.851 22.462 15.474 12.573 28.609 22.7"/>
    <g transform="translate(0 .219)">
      <mask id="pansement-b" fill="#fff">
        <use xlink:href="#pansement-a"/>
      </mask>
      <path fill="#2C00B9" d="M33.571891,14.2862116 L28.4144911,20.9801314 L16.9740515,12.1611916 L22.1335913,5.46727183 C22.7220913,4.70329186 23.5716713,4.21537187 24.5282513,4.09125187 C25.4805512,3.96071188 26.4307112,4.22393187 27.1968312,4.81457185 L32.917051,9.22297172 C34.4942309,10.4384917 34.7874109,12.7111716 33.571891,14.2862116 Z M14.3268716,39.2557308 C13.7383716,40.0175708 12.8887916,40.5076308 11.9322116,40.6317508 C10.9734917,40.7622908 10.0276117,40.4990708 9.26577172,39.9127108 L3.54555189,35.5021709 C1.96623194,34.286651 1.67305195,32.011831 2.88857191,30.4367911 L8.04597175,23.7428713 L19.4864114,32.559671 L14.3268716,39.2557308 Z M20.7918114,30.8647911 L9.35565171,22.0479913 L15.6686515,13.8560716 L27.1069512,22.6750113 L20.7918114,30.8647911 Z M34.226731,7.52809177 L28.5043711,3.1196919 C27.2845712,2.18023193 25.7758712,1.77363195 24.2543313,1.96837194 C22.7327913,2.16525193 21.3760313,2.94421191 20.4365714,4.16187187 L1.19155196,29.1313911 C-0.740867977,31.639471 -0.272207992,35.2603509 2.23587193,37.1949109 L7.95609176,41.6054507 L7.95823176,41.6075907 C9.00255172,42.4100907 10.2373317,42.7995707 11.4614116,42.7995707 C13.1862516,42.7995707 14.8918315,42.0291707 16.0238915,40.5611308 L21.1834314,33.867211 L25.6474712,28.0763711 L35.2689109,15.5916115 C37.2013309,13.0835316 36.7369509,9.46479171 34.226731,7.52809177 Z" mask="url(#pansement-b)"/>
    </g>
  </g>
</svg>
