<svg xmlns="http://www.w3.org/2000/svg" width="347" height="347" viewBox="0 0 347 347">
  <g fill="none" transform="translate(115 149)">
    <path fill="#D3A98C" d="M8.61071774,38.9771467 L2.89049791,34.5666069 C0.842517974,32.9872869 0.461597986,30.049067 2.04091794,28.0010871 L21.2859373,3.03370785 C22.8631173,0.98572791 25.8013372,0.60480792 27.8493171,2.18626787 L33.571677,6.59466774 C35.6175169,8.1718477 35.9984369,11.1122076 34.4212569,13.1601875 L15.1740975,38.1275668 C13.5969176,40.1755467 10.6586977,40.5543267 8.61071774,38.9771467"/>
    <polygon fill="#FFF" points="20.989 30.586 7.851 20.462 15.474 10.573 28.609 20.7"/>
    <path fill="#2C00B9" d="M33.571891,12.5052116 L28.4144911,19.1991314 L16.9740515,10.3801916 L22.1335913,3.68627183 C22.7220913,2.92229186 23.5716713,2.43437187 24.5282513,2.31025187 C25.4805512,2.17971188 26.4307112,2.44293187 27.1968312,3.03357185 L32.917051,7.44197172 C34.4942309,8.6574917 34.7874109,10.9301716 33.571891,12.5052116 Z M14.3268716,37.4747308 C13.7383716,38.2365708 12.8887916,38.7266308 11.9322116,38.8507508 C10.9734917,38.9812908 10.0276117,38.7180708 9.26577172,38.1317108 L3.54555189,33.7211709 C1.96623194,32.505651 1.67305195,30.230831 2.88857191,28.6557911 L8.04597175,21.9618713 L19.4864114,30.778671 L14.3268716,37.4747308 Z M20.7918114,29.0837911 L9.35565171,20.2669913 L15.6686515,12.0750716 L27.1069512,20.8940113 L20.7918114,29.0837911 Z M34.226731,5.74709177 L28.5043711,1.3386919 C27.2845712,0.39923193 25.7758712,-0.00736805 24.2543313,0.18737194 C22.7327913,0.38425193 21.3760313,1.16321191 20.4365714,2.38087187 L1.19155196,27.3503911 C-0.740867977,29.858471 -0.272207992,33.4793509 2.23587193,35.4139109 L7.95609176,39.8244507 L7.95823176,39.8265907 C9.00255172,40.6290907 10.2373317,41.0185707 11.4614116,41.0185707 C13.1862516,41.0185707 14.8918315,40.2481707 16.0238915,38.7801308 L21.1834314,32.086211 L25.6474712,26.2953711 L35.2689109,13.8106115 C37.2013309,11.3025316 36.7369509,7.68379171 34.226731,5.74709177 Z M23.0869613,10.2271036 C23.4015413,9.8183636 23.3245013,9.2298637 22.9157613,8.9152837 C22.5070213,8.5985637 21.9185213,8.6734637 21.6039413,9.0843437 C21.2872213,9.4930836 21.3621213,10.0837236 21.7730013,10.3983036 C22.1817413,10.7150236 22.7723813,10.6358436 23.0869613,10.2271036 M28.4893911,14.3921855 C28.8039711,13.9834455 28.7269311,13.3949455 28.3181911,13.0803655 C27.9094511,12.7636455 27.3209512,12.8385455 27.0063712,13.2494255 C26.6896512,13.6581655 26.7666912,14.2466655 27.1754312,14.5612455 C27.5841712,14.8779655 28.1748111,14.8009255 28.4893911,14.3921855 M25.2918032,7.36827771 C25.6063832,6.95953773 25.5293432,6.36889774 25.1206032,6.05431775 C24.7118632,5.73759776 24.1233633,5.81463776 23.8087833,6.22551775 C23.4920633,6.63425774 23.5669633,7.22275772 23.9778433,7.53733771 C24.3865833,7.8540577 24.9772232,7.7770177 25.2918032,7.36827771 M30.6940191,11.5312196 C31.0085991,11.1224796 30.9315591,10.5339796 30.5228191,10.2193996 C30.1140791,9.9026796 29.5255791,9.9775796 29.2109991,10.3884596 C28.8942791,10.7971996 28.9691791,11.3878396 29.3800591,11.7024196 C29.7887991,12.0191396 30.3794391,11.9399596 30.6940191,11.5312196 M7.25031978,30.772387 C7.56489977,30.363647 7.48999977,29.775147 7.08125978,29.460567 C6.6703798,29.143847 6.08401981,29.218747 5.76729982,29.629627 C5.45057983,30.038367 5.52761983,30.626867 5.93849982,30.941447 C6.34723981,31.258167 6.93573979,31.181127 7.25031978,30.772387 M12.6525356,34.9374689 C12.9671156,34.5287289 12.8922156,33.9380889 12.4834756,33.6235089 C12.0725956,33.3067889 11.4862356,33.3838289 11.1716557,33.7947089 C10.8549357,34.2034489 10.9298357,34.7919489 11.3407157,35.1065289 C11.7494556,35.4232489 12.3379556,35.3462089 12.6525356,34.9374689 M9.45494771,27.9114211 C9.7695277,27.5026811 9.6946277,26.9141811 9.28588772,26.5996011 C8.87500773,26.2828811 8.28650775,26.3577811 7.97192776,26.7686611 C7.65520777,27.1774011 7.73224776,27.7680411 8.14312775,28.0826211 C8.55186774,28.3993411 9.14036772,28.3201611 9.45494771,27.9114211 M14.8571635,32.076503 C15.1717435,31.667763 15.0968435,31.079263 14.6881036,30.764683 C14.2772236,30.447963 13.6908636,30.522863 13.3762836,30.933743 C13.0595636,31.342483 13.1344636,31.930983 13.5453436,32.245563 C13.9540836,32.5622829 14.5425836,32.4852429 14.8571635,32.076503"/>
  </g>
</svg>
