<svg xmlns="http://www.w3.org/2000/svg" xmlns:xlink="http://www.w3.org/1999/xlink" width="347" height="347" viewBox="0 0 347 347">
  <defs>
    <polygon id="lunette_02-a" points="0 .088 75.434 .088 75.434 53.5 0 53.5"/>
    <polygon id="lunette_02-c" points=".317 .088 75.75 .088 75.75 53.5 .317 53.5"/>
    <polygon id="lunette_02-e" points="0 .088 75.434 .088 75.434 53.5 0 53.5"/>
    <polygon id="lunette_02-g" points=".317 .088 75.75 .088 75.75 53.5 .317 53.5"/>
  </defs>
  <g fill="none" fill-rule="evenodd" transform="translate(95 107)">
    <path fill="#FFF" d="M57.4664894,51.4122594 L17.9663698,51.4122594 C9.2244699,51.4122594 2.13892998,44.3245795 2.13892998,35.5848196 L2.13892998,18.1074398 C2.13892998,9.36767988 9.2244699,2.27999995 17.9663698,2.27999995 L57.4664894,2.27999995 C66.2083893,2.27999995 73.2939292,9.36767988 73.2939292,18.1074398 L73.2939292,35.5848196 C73.2939292,44.3245795 66.2083893,51.4122594 57.4664894,51.4122594" opacity=".3"/>
    <g transform="translate(0 .052)">
      <mask id="lunette_02-b" fill="#fff">
        <use xlink:href="#lunette_02-a"/>
      </mask>
      <path fill="#2C00B9" d="M17.9663698,4.36773995 C10.4207299,4.36773995 4.27892995,10.5073999 4.27892995,18.0551798 L4.27892995,35.5325596 C4.27892995,43.0803395 10.4207299,49.2199995 17.9663698,49.2199995 L57.4664894,49.2199995 C65.0142693,49.2199995 71.1539292,43.0803395 71.1539292,35.5325596 L71.1539292,18.0551798 C71.1539292,10.5073999 65.0142693,4.36773995 57.4664894,4.36773995 L17.9663698,4.36773995 Z M57.4664894,53.4999994 L17.9663698,53.4999994 C8.06030991,53.4999994 -0.00106999999,45.4386195 -0.00106999999,35.5325596 L-0.00106999999,18.0551798 C-0.00106999999,8.14911991 8.06030991,0.087739999 17.9663698,0.087739999 L57.4664894,0.087739999 C67.3746893,0.087739999 75.4339292,8.14911991 75.4339292,18.0551798 L75.4339292,35.5325596 C75.4339292,45.4386195 67.3746893,53.4999994 57.4664894,53.4999994 Z" mask="url(#lunette_02-b)"/>
    </g>
    <path fill="#FFF" d="M136.962138,51.4122594 L97.4641589,51.4122594 C88.722259,51.4122594 81.6345791,44.3245795 81.6345791,35.5848196 L81.6345791,18.1074398 C81.6345791,9.36767988 88.722259,2.27999995 97.4641589,2.27999995 L136.962138,2.27999995 C145.704038,2.27999995 152.789578,9.36767988 152.789578,18.1074398 L152.789578,35.5848196 C152.789578,44.3245795 145.704038,51.4122594 136.962138,51.4122594" opacity=".3"/>
    <g transform="translate(79.18 .052)">
      <mask id="lunette_02-d" fill="#fff">
        <use xlink:href="#lunette_02-c"/>
      </mask>
      <path fill="#2C00B9" d="M18.2839458,4.36773995 C10.7361659,4.36773995 4.59650595,10.5073999 4.59650595,18.0551798 L4.59650595,35.5325596 C4.59650595,43.0803395 10.7361659,49.2199995 18.2839458,49.2199995 L57.7819254,49.2199995 C65.3297053,49.2199995 71.4715052,43.0803395 71.4715052,35.5325596 L71.4715052,18.0551798 C71.4715052,10.5073999 65.3297053,4.36773995 57.7819254,4.36773995 L18.2839458,4.36773995 Z M57.7819254,53.4999994 L18.2839458,53.4999994 C8.37574591,53.4999994 0.316505997,45.4386195 0.316505997,35.5325596 L0.316505997,18.0551798 C0.316505997,8.14911991 8.37574591,0.087739999 18.2839458,0.087739999 L57.7819254,0.087739999 C67.6901253,0.087739999 75.7515052,8.14911991 75.7515052,18.0551798 L75.7515052,35.5325596 C75.7515052,45.4386195 67.6901253,53.4999994 57.7819254,53.4999994 Z" mask="url(#lunette_02-d)"/>
    </g>
    <g transform="translate(0 .052)">
      <mask id="lunette_02-f" fill="#fff">
        <use xlink:href="#lunette_02-e"/>
      </mask>
      <path fill="#2C00B9" d="M17.9663698,4.36773995 C10.4207299,4.36773995 4.27892995,10.5073999 4.27892995,18.0551798 L4.27892995,35.5325596 C4.27892995,43.0803395 10.4207299,49.2199995 17.9663698,49.2199995 L57.4664894,49.2199995 C65.0142693,49.2199995 71.1539292,43.0803395 71.1539292,35.5325596 L71.1539292,18.0551798 C71.1539292,10.5073999 65.0142693,4.36773995 57.4664894,4.36773995 L17.9663698,4.36773995 Z M57.4664894,53.4999994 L17.9663698,53.4999994 C8.06030991,53.4999994 -0.00106999999,45.4386195 -0.00106999999,35.5325596 L-0.00106999999,18.0551798 C-0.00106999999,8.14911991 8.06030991,0.087739999 17.9663698,0.087739999 L57.4664894,0.087739999 C67.3746893,0.087739999 75.4339292,8.14911991 75.4339292,18.0551798 L75.4339292,35.5325596 C75.4339292,45.4386195 67.3746893,53.4999994 57.4664894,53.4999994 Z" mask="url(#lunette_02-f)"/>
    </g>
    <g opacity=".3" transform="translate(79.18 .052)">
      <mask id="lunette_02-h" fill="#fff">
        <use xlink:href="#lunette_02-g"/>
      </mask>
      <path fill="#2C00B9" d="M18.2839458,4.36773995 C10.7361659,4.36773995 4.59650595,10.5073999 4.59650595,18.0551798 L4.59650595,35.5325596 C4.59650595,43.0803395 10.7361659,49.2199995 18.2839458,49.2199995 L57.7819254,49.2199995 C65.3297053,49.2199995 71.4715052,43.0803395 71.4715052,35.5325596 L71.4715052,18.0551798 C71.4715052,10.5073999 65.3297053,4.36773995 57.7819254,4.36773995 L18.2839458,4.36773995 Z M57.7819254,53.4999994 L18.2839458,53.4999994 C8.37574591,53.4999994 0.316505997,45.4386195 0.316505997,35.5325596 L0.316505997,18.0551798 C0.316505997,8.14911991 8.37574591,0.087739999 18.2839458,0.087739999 L57.7819254,0.087739999 C67.6901253,0.087739999 75.7515052,8.14911991 75.7515052,18.0551798 L75.7515052,35.5325596 C75.7515052,45.4386195 67.6901253,53.4999994 57.7819254,53.4999994 Z" mask="url(#lunette_02-h)"/>
    </g>
  </g>
</svg>
