<svg xmlns="http://www.w3.org/2000/svg" xmlns:xlink="http://www.w3.org/1999/xlink" width="347" height="347" viewBox="0 0 347 347">
  <defs>
    <polygon id="lunette_01-a" points="1.493 .763 67.069 .763 67.069 66.34 1.493 66.34"/>
    <polygon id="lunette_01-c" points=".493 .763 66.069 .763 66.069 66.34 .493 66.34"/>
    <polygon id="lunette_01-e" points=".001 .763 65.577 .763 65.577 66.34 .001 66.34"/>
    <polygon id="lunette_01-g" points=".001 .763 65.577 .763 65.577 66.34 .001 66.34"/>
  </defs>
  <g fill="none" fill-rule="evenodd" transform="translate(103 100)">
    <g transform="translate(72.76 .377)">
      <mask id="lunette_01-b" fill="#fff">
        <use xlink:href="#lunette_01-a"/>
      </mask>
      <path fill="#2C00B9" d="M34.2798057,5.04269625 C18.5593649,5.04269625 5.77286428,17.8334769 5.77286428,33.5517776 C5.77286428,49.2722184 18.5593649,62.060859 34.2798057,62.060859 C50.0002465,62.060859 62.7888871,49.2722184 62.7888871,33.5517776 C62.7888871,17.8334769 50.0002465,5.04269625 34.2798057,5.04269625 M34.2798057,66.3408593 C16.2010848,66.3408593 1.49286407,51.6326385 1.49286407,33.5517776 C1.49286407,15.4730568 16.2010848,0.762696037 34.2798057,0.762696037 C52.3585266,0.762696037 67.0688873,15.4730568 67.0688873,33.5517776 C67.0688873,51.6326385 52.3585266,66.3408593 34.2798057,66.3408593" mask="url(#lunette_01-b)"/>
    </g>
    <path fill="#FFF" d="M137.689319,33.9297237 C137.689319,50.8549845 123.967638,64.5766652 107.040237,64.5766652 C90.1149764,64.5766652 76.3911557,50.8549845 76.3911557,33.9297237 C76.3911557,17.0023229 90.1149764,3.28064221 107.040237,3.28064221 C123.967638,3.28064221 137.689319,17.0023229 137.689319,33.9297237" opacity=".3"/>
    <g transform="translate(73.76 .377)">
      <mask id="lunette_01-d" fill="#fff">
        <use xlink:href="#lunette_01-c"/>
      </mask>
      <path fill="#2C00B9" d="M33.2798057,5.04269625 C17.5593649,5.04269625 4.77286428,17.8334769 4.77286428,33.5517776 C4.77286428,49.2722184 17.5593649,62.060859 33.2798057,62.060859 C49.0002465,62.060859 61.7888871,49.2722184 61.7888871,33.5517776 C61.7888871,17.8334769 49.0002465,5.04269625 33.2798057,5.04269625 M33.2798057,66.3408593 C15.2010848,66.3408593 0.492864073,51.6326385 0.492864073,33.5517776 C0.492864073,15.4730568 15.2010848,0.762696037 33.2798057,0.762696037 C51.3585266,0.762696037 66.0688873,15.4730568 66.0688873,33.5517776 C66.0688873,51.6326385 51.3585266,66.3408593 33.2798057,66.3408593" mask="url(#lunette_01-d)"/>
    </g>
    <g transform="translate(0 .377)">
      <mask id="lunette_01-f" fill="#fff">
        <use xlink:href="#lunette_01-e"/>
      </mask>
      <path fill="#2C00B9" d="M32.7897236,5.04269625 C17.0692828,5.04269625 4.28064221,17.8334769 4.28064221,33.5517776 C4.28064221,49.2722184 17.0692828,62.060859 32.7897236,62.060859 C48.5101644,62.060859 61.296665,49.2722184 61.296665,33.5517776 C61.296665,17.8334769 48.5101644,5.04269625 32.7897236,5.04269625 M32.7897236,66.3408593 C14.7110027,66.3408593 0.000642000031,51.6326385 0.000642000031,33.5517776 C0.000642000031,15.4730568 14.7110027,0.762696037 32.7897236,0.762696037 C50.8684445,0.762696037 65.5766652,15.4730568 65.5766652,33.5517776 C65.5766652,51.6326385 50.8684445,66.3408593 32.7897236,66.3408593" mask="url(#lunette_01-f)"/>
    </g>
    <path fill="#FFF" d="M63.4373071,33.9297237 C63.4373071,50.8549845 49.7156264,64.5766652 32.7903656,64.5766652 C15.8629648,64.5766652 2.1391441,50.8549845 2.1391441,33.9297237 C2.1391441,17.0023229 15.8629648,3.28064221 32.7903656,3.28064221 C49.7156264,3.28064221 63.4373071,17.0023229 63.4373071,33.9297237" opacity=".3"/>
    <g transform="translate(0 .377)">
      <mask id="lunette_01-h" fill="#fff">
        <use xlink:href="#lunette_01-g"/>
      </mask>
      <path fill="#2C00B9" d="M32.7897236,5.04269625 C17.0692828,5.04269625 4.28064221,17.8334769 4.28064221,33.5517776 C4.28064221,49.2722184 17.0692828,62.060859 32.7897236,62.060859 C48.5101644,62.060859 61.296665,49.2722184 61.296665,33.5517776 C61.296665,17.8334769 48.5101644,5.04269625 32.7897236,5.04269625 M32.7897236,66.3408593 C14.7110027,66.3408593 0.000642000031,51.6326385 0.000642000031,33.5517776 C0.000642000031,15.4730568 14.7110027,0.762696037 32.7897236,0.762696037 C50.8684445,0.762696037 65.5766652,15.4730568 65.5766652,33.5517776 C65.5766652,51.6326385 50.8684445,66.3408593 32.7897236,66.3408593" mask="url(#lunette_01-h)"/>
    </g>
  </g>
</svg>
