<svg xmlns="http://www.w3.org/2000/svg" width="347" height="347" viewBox="0 0 347 347">
  <path fill="#2C00B9" d="M107.039806,65.7178593 C88.9610848,65.7178593 74.2528641,51.0096385 74.2528641,32.9287776 C74.2528641,14.8500568 88.9610848,0.139696037 107.039806,0.139696037 C125.118527,0.139696037 139.828887,14.8500568 139.828887,32.9287776 C139.828887,51.0096385 125.118527,65.7178593 107.039806,65.7178593 Z M107.039806,4.41969625 C91.3193649,4.41969625 78.5328643,17.2104769 78.5328643,32.9287776 C78.5328643,48.6492184 91.3193649,61.437859 107.039806,61.437859 C122.760247,61.437859 135.548887,48.6492184 135.548887,32.9287776 C135.548887,17.2104769 122.760247,4.41969625 107.039806,4.41969625 Z M32.7897236,65.7178593 C14.7110027,65.7178593 0.000642000031,51.0096385 0.000642000031,32.9287776 C0.000642000031,14.8500568 14.7110027,0.139696037 32.7897236,0.139696037 C50.8684445,0.139696037 65.5766652,14.8500568 65.5766652,32.9287776 C65.5766652,51.0096385 50.8684445,65.7178593 32.7897236,65.7178593 Z M32.7897236,4.41969625 C17.0692828,4.41969625 4.28064221,17.2104769 4.28064221,32.9287776 C4.28064221,48.6492184 17.0692828,61.437859 32.7897236,61.437859 C48.5101644,61.437859 61.296665,48.6492184 61.296665,32.9287776 C61.296665,17.2104769 48.5101644,4.41969625 32.7897236,4.41969625 Z" transform="translate(103 100)"/>
</svg>
