<?xml version="1.0" encoding="UTF-8"?>
<svg width="50px" height="62px" viewBox="0 0 50 62" version="1.1" xmlns="http://www.w3.org/2000/svg" xmlns:xlink="http://www.w3.org/1999/xlink">
    <!-- Generator: Sketch 48.2 (47327) - http://www.bohemiancoding.com/sketch -->
    <title>picto_chienmers</title>
    <desc>Created with Sketch.</desc>
    <defs>
        <polygon id="path-1" points="0.00040408096 0.808032787 49.3193878 0.808032787 49.3193878 61.9998263 0.00040408096 61.9998263"></polygon>
    </defs>
    <g id="Symbols" stroke="none" stroke-width="1" fill="none" fill-rule="evenodd">
        <g id="picto_chienmers">
            <g id="Page-1">
                <polygon id="Fill-1" fill="#3F57FF" points="20 6 25 6 25 3 20 3"></polygon>
                <g id="Group-17">
                    <mask id="mask-2" fill="white">
                        <use xlink:href="#path-1"></use>
                    </mask>
                    <g id="Clip-3"></g>
                    <path d="M20.4979592,5.27745814 L24.9836735,5.27745814 L24.9836735,3.22467301 L20.4979592,3.22467301 L20.4979592,5.27745814 Z M25.1979592,5.65013115 L20.2816327,5.65013115 C20.1622449,5.65013115 20.0653061,5.5664339 20.0653061,5.46335413 L20.0653061,3.03789599 C20.0653061,2.93569725 20.1622449,2.852 20.2816327,2.852 L25.1979592,2.852 C25.3183673,2.852 25.4142857,2.93569725 25.4142857,3.03789599 L25.4142857,5.46335413 C25.4142857,5.5664339 25.3183673,5.65013115 25.1979592,5.65013115 Z" id="Fill-2" fill="#3F57FF" mask="url(#mask-2)"></path>
                    <polygon id="Fill-4" fill="#3F57FF" mask="url(#mask-2)" points="16.7819388 4.03609836 21.6992857 4.03609836 21.6992857 1.23796721 16.7819388 1.23796721 18.1135714 2.63652459"></polygon>
                    <path d="M17.2841837,3.82072459 L21.4831633,3.82072459 L21.4831633,1.45252787 L17.2841837,1.45252787 L18.2709184,2.48823279 C18.3494898,2.57157705 18.3494898,2.70167541 18.2709184,2.78400328 L17.2841837,3.82072459 Z M21.6994898,4.25167541 L16.7821429,4.25167541 C16.6954082,4.25167541 16.6178571,4.19983934 16.5831633,4.12056066 C16.5494898,4.04229836 16.5658163,3.94980656 16.625,3.88780656 L17.8158163,2.63662623 L16.625,1.3854459 C16.5658163,1.3234459 16.5494898,1.23197049 16.5831633,1.1526918 C16.6178571,1.07341311 16.6954082,1.02259344 16.7821429,1.02259344 L21.6994898,1.02259344 C21.8188776,1.02259344 21.9158163,1.11915082 21.9158163,1.23705246 L21.9158163,4.0362 C21.9158163,4.15511803 21.8188776,4.25167541 21.6994898,4.25167541 Z" id="Fill-5" fill="#3F57FF" mask="url(#mask-2)"></path>
                    <path d="M2.56897959,42.4118623 C8.18530612,39.3992721 14.664898,38.5383869 21.1465306,39.830223 C25.4659184,41.1200262 29.3546939,43.2727475 33.2434694,45.4244525 C38.8587755,48.0060918 44.9077551,46.7142557 49.2291837,42.4118623 C49.6597959,48.0060918 48.364898,53.1703869 49.2291837,58.7646164 C41.4516327,62.6370754 31.514898,63.4979607 23.7383673,58.7646164 C22.0108163,57.4727803 19.8506122,56.6129115 18.1220408,55.7520262 C12.9373469,53.6003213 6.4577551,54.4601902 2.56897959,58.7646164 C1.27204082,53.1703869 3.00061224,48.0060918 2.56897959,42.4118623" id="Fill-6" fill="#FFFFFF" mask="url(#mask-2)"></path>
                    <path d="M38.4227551,51.5723115 L15.5166327,51.5723115 C5.76459184,49.7509344 5.9094898,33.8382787 5.9094898,33.8382787 L2.35336735,31.9640492 L11.2370408,31.9640492 C11.3992857,35.8863115 14.6370408,38.9832623 18.5788776,38.9832623 L29.8737755,38.9832623 L29.8737755,31.9640492 L45.7992857,31.9640492 L45.7992857,38.9832623 C45.7992857,38.9832623 38.4227551,38.9832623 38.4227551,51.5723115" id="Fill-7" fill="#3F57FF" mask="url(#mask-2)"></path>
                    <path d="M15.5991837,50.7117311 L37.5706122,50.7117311 C37.7053061,45.676518 39.0420408,42.0429115 41.5502041,39.9034033 C42.8267347,38.8138295 44.1165306,38.3910098 44.9359184,38.2273705 L44.9359184,32.824223 L30.7379592,32.824223 L30.7379592,38.9835672 C30.7379592,39.4592393 30.3512245,39.8444525 29.8736735,39.8444525 L18.5787755,39.8444525 C14.4389796,39.8444525 11.0155102,36.8216984 10.4491837,32.824223 L5.83489796,32.824223 L6.31346939,33.0762885 C6.59918367,33.2267148 6.77673469,33.5235016 6.77367347,33.844682 C6.77265306,33.997141 6.7522449,48.9736984 15.5991837,50.7117311 M38.4226531,52.4324852 L15.5165306,52.4324852 C15.4634694,52.4324852 15.4093878,52.4274033 15.3583673,52.4182557 C11.0257143,51.6092066 7.86755102,48.094518 6.22367347,42.2543213 C5.26244898,38.833141 5.08387755,35.6010098 5.0522449,34.3599934 L1.94918367,32.7246164 C1.59816327,32.5396328 1.41959184,32.1412066 1.5144898,31.7570098 C1.61040816,31.3728131 1.95632653,31.1034689 2.35428571,31.1034689 L11.2379592,31.1034689 C11.7012245,31.1034689 12.0818367,31.4673377 12.1002041,31.9287803 C12.2440816,35.4017967 15.0889796,38.122682 18.5787755,38.122682 L29.0104082,38.122682 L29.0104082,31.9643541 C29.0104082,31.488682 29.3961224,31.1034689 29.8736735,31.1034689 L45.8002041,31.1034689 C46.2767347,31.1034689 46.6634694,31.488682 46.6634694,31.9643541 L46.6634694,38.9835672 C46.6634694,39.4592393 46.2767347,39.8444525 45.8002041,39.8444525 C45.54,39.848518 39.2869388,40.0761902 39.2869388,51.5726164 C39.2869388,52.0472721 38.9002041,52.4324852 38.4226531,52.4324852" id="Fill-8" fill="#3F57FF" mask="url(#mask-2)"></path>
                    <path d="M40.7556122,28.6657508 L11.0760204,28.6657508 C11.0760204,28.6657508 20.0811224,17.2536852 11.0760204,8.28299672 L40.7556122,8.28299672 C47.6005102,15.1009639 40.7556122,28.6657508 40.7556122,28.6657508" id="Fill-9" fill="#FFFFFF" mask="url(#mask-2)"></path>
                    <path d="M12.8886735,27.6970262 L40.1366327,27.6970262 C41.2478571,25.2312557 45.4590816,14.841682 40.3396939,9.25253443 L13.2182653,9.25253443 C18.6437755,16.3418787 14.9009184,24.3724033 12.8886735,27.6970262 M40.7560204,29.6332557 L11.0754082,29.6332557 C10.7029592,29.6332557 10.3631633,29.4218459 10.2009184,29.0884689 C10.0386735,28.7550918 10.0815306,28.357682 10.3121429,28.0669934 C10.3315306,28.0405672 12.482551,25.275977 13.5335714,21.5204033 C14.9009184,16.6315508 13.8427551,12.4084361 10.3886735,8.96794426 C10.110102,8.69148525 10.0264286,8.27476393 10.177449,7.91292787 C10.327449,7.5510918 10.682551,7.31528852 11.0754082,7.31528852 L40.7560204,7.31528852 C41.0131633,7.31528852 41.2611224,7.41692787 41.4427551,7.5988623 C44.482551,10.625682 45.4621429,15.337682 44.2754082,21.2215836 C43.4039796,25.5432885 41.6958163,28.9563377 41.6243878,29.1006656 C41.4590816,29.4269279 41.1233673,29.6332557 40.7560204,29.6332557" id="Fill-10" fill="#3F57FF" mask="url(#mask-2)"></path>
                    <path d="M38.6479592,37.0321934 C38.6479592,38.1105869 37.7704082,38.9836689 36.6887755,38.9836689 C35.6071429,38.9836689 34.7295918,38.1105869 34.7295918,37.0321934 C34.7295918,35.9548164 35.6071429,35.0817344 36.6887755,35.0817344 C37.7704082,35.0817344 38.6479592,35.9548164 38.6479592,37.0321934" id="Fill-11" fill="#3F57FF" mask="url(#mask-2)"></path>
                    <path d="M36.6888776,35.9423148 C36.0847959,35.9423148 35.5939796,36.4301836 35.5939796,37.0318885 C35.5939796,37.6335934 36.0847959,38.1234951 36.6888776,38.1234951 C37.2929592,38.1234951 37.7827551,37.6335934 37.7827551,37.0318885 C37.7827551,36.4301836 37.2929592,35.9423148 36.6888776,35.9423148 M36.6888776,39.8442492 C35.1327551,39.8442492 33.8654082,38.5829049 33.8654082,37.0318885 C33.8654082,35.4818885 35.1327551,34.2205443 36.6888776,34.2205443 C38.245,34.2205443 39.5123469,35.4818885 39.5123469,37.0318885 C39.5123469,38.5829049 38.245,39.8442492 36.6888776,39.8442492" id="Fill-12" fill="#FFFFFF" mask="url(#mask-2)"></path>
                    <path d="M25.1993878,1.7760459 L25.1993878,38.9831607" id="Fill-13" fill="#FFFFFF" mask="url(#mask-2)"></path>
                    <path d="M25.1983673,39.9522918 C24.6626531,39.9522918 24.2269388,39.5182918 24.2269388,38.9836689 L24.2269388,1.7755377 C24.2269388,1.24193115 24.6626531,0.807931148 25.1983673,0.807931148 C25.735102,0.807931148 26.1708163,1.24193115 26.1708163,1.7755377 L26.1708163,38.9836689 C26.1708163,39.5182918 25.735102,39.9522918 25.1983673,39.9522918" id="Fill-14" fill="#3F57FF" mask="url(#mask-2)"></path>
                    <path d="M1.01244898,45.8977869 C1.01244898,45.8977869 2.35632653,44.6506721 4.80530612,43.6464754 C7.25326531,42.6422787 10.7093878,41.6390984 13.0859184,41.7813934 C15.4614286,41.9257213 19.8542857,42.5711311 21.1502041,43.5753279 C22.4461224,44.5785082 26.262449,48.8829344 30.367551,49.5273279 C34.4706122,50.1727377 37.567551,50.6036885 39.9430612,49.9582787 C42.3195918,49.3118525 47.8277551,45.8977869 47.8277551,45.8977869 L47.8277551,56.3412295 L1.01244898,56.3412295 L1.01244898,45.8977869 Z" id="Fill-15" fill="#FFFFFF" mask="url(#mask-2)"></path>
                    <path d="M35.7652041,50.9678623 C32.1580612,50.9678623 28.599898,50.0033049 25.4641837,48.0518295 C25.3937755,48.0071082 25.3284694,47.9532393 25.2743878,47.8912393 C19.4172449,41.2796 8.27744898,40.7124525 1.43255102,46.6776656 C1.07336735,46.9907148 0.528469388,46.9541246 0.214183673,46.5973705 C-0.100102041,46.2396 -0.0633673469,45.6958295 0.294795918,45.3827803 C3.82438776,42.3061574 8.66520408,40.6423213 13.5856122,40.8130754 C18.6815306,40.992977 23.2560204,43.0664197 26.4845918,46.6563213 C32.8131633,50.5348787 41.027449,50.0236328 47.4447959,45.3360262 C47.8305102,45.0555016 48.3703061,45.1388459 48.6529592,45.5220262 C48.9345918,45.9052066 48.8509184,46.4438951 48.4662245,46.7244197 C44.6111224,49.5408459 40.1529592,50.9678623 35.7652041,50.9678623" id="Fill-16" fill="#3F57FF" mask="url(#mask-2)"></path>
                </g>
            </g>
        </g>
    </g>
</svg>