<svg xmlns="http://www.w3.org/2000/svg" width="347" height="347" viewBox="0 0 347 347">
  <g fill="none" transform="translate(71 66)">
    <path class="avatar__skin" fill="#FFF" d="M171.015705,49.5249412 C169.940874,49.5249412 168.887411,49.6040196 167.844632,49.7237059 L167.855316,49.2983922 C168.013442,43.1708824 167.167253,37.0198627 164.949211,31.2407255 C157.679674,12.3089216 140.670411,4.41176471 108.688295,4.41176471 L94.4526526,4.41176471 C60.1114632,4.41176471 43.2111789,13.9674314 37.3028105,35.5109608 C36.0292526,40.1530784 35.6424842,44.9512157 35.8561684,49.7343922 C34.7941579,49.6082941 33.7193263,49.5249412 32.6209895,49.5249412 C17.5177895,49.5249412 5.27368421,61.7714118 5.27368421,76.8796667 C5.27368421,91.9900588 17.5177895,104.236529 32.6209895,104.236529 C35.1852,104.236529 37.6553895,103.858235 40.0059158,103.199961 L40.8392842,113.745176 C42.4397789,134.036275 53.6133263,151.991353 73.5885263,160.811804 C76.8514842,162.252314 80.2832526,163.43849 83.8218632,164.372471 L83.8218632,179.818412 L83.8218632,194.680882 L83.8218632,203.62102 C83.8218632,207.143216 86.6766842,209.998588 90.2003368,209.998588 L113.442768,209.998588 C116.962147,209.998588 119.819105,207.143216 119.819105,203.62102 L119.819105,194.680882 L119.819105,179.818412 L119.819105,164.776412 C123.007274,163.966392 126.112105,162.929824 129.071632,161.621824 C150.019095,152.373922 166.242,135.566549 166.242,111.800275 L166.445,103.824039 C167.936516,104.076235 169.455811,104.236529 171.015705,104.236529 C186.121042,104.236529 198.367284,91.9900588 198.367284,76.8796667 C198.367284,61.7714118 186.121042,49.5249412 171.015705,49.5249412"/>
    <path class="avatar__sweater" fill="#FFF" d="M113.439777,209.998588 L90.1973453,209.998588 C86.6779663,209.998588 83.8231453,207.143216 83.8231453,203.62102 L83.8231453,179.818412 L119.816114,179.818412 L119.816114,203.62102 C119.816114,207.143216 116.961293,209.998588 113.439777,209.998588"/>
    <path fill="#2C00B9" d="M171.007372,99.967224 L170.815056,99.967224 L172.013824,53.8238902 C184.277161,54.3368314 194.085266,64.4887922 194.085266,76.8848706 C194.085266,89.6015373 183.742951,99.967224 171.007372,99.967224 Z M163.442951,55.0848706 L162.310424,98.2574196 L162.09674,107.212518 L161.968529,111.807616 C161.968529,125.122714 156.540951,135.167812 149.508603,142.605459 C142.461298,150.043106 133.826319,154.873302 127.351687,157.715851 C126.283266,158.186047 125.195614,158.613498 124.082319,158.998204 C110.620214,163.892518 93.9101084,163.700165 79.5505295,158.592125 C78.1188453,158.079184 76.7085295,157.523498 75.3217189,156.903694 C57.6692663,149.124086 46.6666663,133.265655 45.1046347,113.410557 L44.5298242,106.165263 L43.8032979,97.0605569 L40.5104242,55.1917333 L40.1898979,51.2591843 C40.0638242,49.5280078 40.0189505,47.8182039 40.0638242,46.1511451 C40.1471611,42.8170275 40.5980347,39.6325176 41.4292663,36.6403608 C46.8782137,16.7852627 62.2421084,8.6850667 94.4443189,8.6850667 L108.675687,8.6850667 C146.604635,8.6850667 156.391372,20.8674196 160.964214,32.7719294 C162.524108,36.8540863 163.398077,41.3423216 163.571161,46.1511451 C163.613898,47.1556549 163.613898,48.1601647 163.592529,49.1860471 L163.442951,55.0848706 Z M115.534951,175.544831 L88.0978979,175.544831 L88.0978979,169.748596 C92.9698979,170.688988 97.9060032,171.159184 102.82074,171.159184 C107.115793,171.159184 111.389477,170.795851 115.534951,170.069184 L115.534951,175.544831 Z M115.534951,203.624086 C115.534951,204.778204 114.59474,205.718596 113.442982,205.718596 L90.1920032,205.718596 C89.0402453,205.718596 88.0978979,204.778204 88.0978979,203.624086 L88.0978979,184.093851 L115.534951,184.093851 L115.534951,203.624086 Z M32.6254768,99.967224 C19.8898979,99.967224 9.54544526,89.6015373 9.54544526,76.8848706 C9.54544526,64.4246745 19.4625295,54.2513412 31.8134768,53.8238902 L35.4482453,99.796243 C34.5272663,99.903106 33.5849189,99.967224 32.6254768,99.967224 Z M172.097161,45.2748706 C171.842877,39.7393804 170.793687,34.5244784 168.934635,29.7156549 C161.092424,9.2621255 142.501898,0.13604706 108.675687,0.13604706 L94.4443189,0.13604706 C58.56674,0.13604706 39.6770558,10.6940863 33.1810558,34.3748706 C32.2194768,37.8372235 31.6852663,41.4705569 31.5356874,45.2748706 C14.5905295,45.8519294 0.99807684,59.8082039 0.99807684,76.8848706 C0.99807684,94.3248706 15.1888453,108.516243 32.6254768,108.516243 C33.80074,108.516243 34.9760032,108.452125 36.1298979,108.302518 L36.5786347,114.073106 C38.3928137,137.176831 51.25874,155.621341 71.8578979,164.726047 C74.3580032,165.83742 76.9243505,166.777812 79.5505295,167.589969 L79.5505295,175.544831 L79.5483926,175.544831 L79.5483926,203.619812 C79.5483926,204.355027 79.6231821,205.075282 79.7663505,205.76989 C80.4757821,209.23438 82.8690453,212.085478 86.0508032,213.431949 C87.3286347,213.972675 88.7261295,214.27189 90.1984137,214.27189 L113.440845,214.27189 C119.312887,214.27189 124.090866,209.495125 124.090866,203.619812 L124.090866,175.544831 L124.082319,175.544831 L124.082319,168.038792 C126.390108,167.312125 128.633793,166.478596 130.792003,165.538204 C156.028108,154.381733 170.515898,134.804478 170.515898,111.914478 L170.603508,108.516243 L171.007372,108.516243 C188.444003,108.516243 202.632635,94.3248706 202.632635,76.8848706 C202.632635,59.8082039 189.040182,45.8519294 172.097161,45.2748706 Z"/>
    <path fill="#8896FB" d="M77.7956324,94.092696 C77.7956324,97.5892451 70.6507892,100.425382 61.83675,100.425382 C53.024848,100.425382 45.8800049,97.5892451 45.8800049,94.092696 C45.8800049,90.596147 53.024848,87.7600098 61.83675,87.7600098 C70.6507892,87.7600098 77.7956324,90.596147 77.7956324,94.092696 Z M160.936989,94.1553276 C160.852276,97.6230502 153.740224,100.425382 144.978871,100.425382 C136.164832,100.425382 129.019989,97.5892451 129.019989,94.092696 C129.019989,90.596147 136.164832,87.7600098 144.978871,87.7600098 C153.740224,87.7600098 160.852276,90.5623418 160.936989,94.0300645 L160.936989,94.1553276 Z"/>
  </g>
</svg>
