<svg xmlns="http://www.w3.org/2000/svg" width="347" height="347" viewBox="0 0 347 347">
  <g fill="none" transform="translate(70 66)">
    <path class="avatar__skin" fill="#FFF" d="M174.072702,49.8034255 C173.560537,49.8034255 173.061176,49.8525824 172.555413,49.8803667 C167.068846,23.9148569 143.85497,4.41454314 116.044413,4.41454314 L89.6231041,4.41454314 C61.8104134,4.41454314 38.5965371,23.9148569 33.1099701,49.8803667 C32.6042072,49.8525824 32.1048464,49.8034255 31.5926814,49.8034255 C16.5072897,49.8034255 4.27935155,62.0498961 4.27935155,77.158151 C4.27935155,92.2685431 16.5072897,104.515014 31.5926814,104.515014 C31.6865784,104.515014 31.7804753,104.50219 31.8765062,104.500053 L31.8765062,114.68621 C31.8765062,134.011269 43.8206196,151.361504 61.9683309,158.397347 L74.087434,163.097171 C77.6149701,164.462876 81.2129289,165.5657 84.8578361,166.412053 L84.8578361,181.443367 L84.8578361,196.305837 L84.8578361,205.243837 C84.8578361,208.768171 87.7088876,211.623543 91.2278876,211.623543 L114.43963,211.623543 C117.956496,211.623543 120.807547,208.768171 120.807547,205.243837 L120.807547,196.305837 L120.807547,181.443367 L120.807547,166.412053 C124.452455,165.5657 128.052547,164.462876 131.577949,163.097171 L143.699187,158.397347 C161.846898,151.361504 173.788877,134.011269 173.788877,114.68621 L173.788877,104.500053 C173.882774,104.50219 173.976671,104.515014 174.072702,104.515014 C189.158094,104.515014 201.388166,92.2685431 201.388166,77.158151 C201.388166,62.0498961 189.158094,49.8034255 174.072702,49.8034255"/>
    <path class="avatar__sweater" fill="#F00" d="M114.43899,211.623329 L91.2272474,211.623329 C87.7103814,211.623329 84.8593299,208.767957 84.8593299,205.245761 L84.8593299,181.443153 L120.806907,181.443153 L120.806907,205.245761 C120.806907,208.767957 117.955856,211.623329 114.43899,211.623329"/>
    <path fill="#2C00B9" d="M178.063534,99.9032804 L178.063534,61.6891627 C178.063534,59.2099471 177.914153,56.7521039 177.591915,54.3370059 C188.646142,56.0468098 197.120338,65.6217118 197.120338,77.1628882 C197.120338,88.5117118 188.880885,98.0011235 178.063534,99.9032804 Z M169.527452,114.693084 C169.527452,132.368182 158.769854,147.970143 142.147967,154.40328 L130.04807,159.105241 C128.40274,159.746418 126.738204,160.325614 125.075802,160.815045 C110.562328,165.346025 95.0906784,165.324653 80.5793381,160.815045 C78.9148021,160.325614 77.2737402,159.746418 75.6305443,159.105241 L63.5071732,154.40328 C46.8831526,147.970143 36.1511629,132.368182 36.1511629,114.693084 L36.1511629,108.4523 L36.1511629,99.7964176 L36.1511629,61.6891627 C36.1511629,59.2954373 36.3218845,56.9444569 36.6398536,54.6362216 C37.0026371,51.7723 37.6215031,48.9938686 38.4559052,46.3009275 C45.1119155,24.5436725 65.5366268,8.68524118 89.6297196,8.68524118 L116.046761,8.68524118 C140.139854,8.68524118 160.564565,24.5436725 167.222709,46.3009275 C168.054977,48.9938686 168.673843,51.7723 169.036627,54.6362216 C169.35673,56.9444569 169.527452,59.2954373 169.527452,61.6891627 L169.527452,99.7964176 L169.527452,108.4523 L169.527452,114.693084 Z M116.53972,177.165045 L89.1154206,177.165045 L89.1154206,171.608182 C93.6608845,172.377594 98.2511629,172.7623 102.839307,172.7623 C107.406111,172.7623 112.015596,172.377594 116.53972,171.629555 L116.53972,177.165045 Z M116.53972,205.248575 C116.53972,206.402692 115.598616,207.345222 114.446245,207.345222 L91.2302351,207.345222 C90.0778639,207.345222 89.1154206,206.402692 89.1154206,205.248575 L89.1154206,185.714065 L116.53972,185.714065 L116.53972,205.248575 Z M8.53693608,77.1628882 C8.53693608,65.6217118 17.0282041,56.0468098 28.0845649,54.3370059 C27.7623278,56.7521039 27.6150804,59.2099471 27.6150804,61.6891627 L27.6150804,99.9032804 C16.7955959,98.0011235 8.53693608,88.5330843 8.53693608,77.1628882 Z M175.884699,45.5956333 C168.759204,19.4356333 144.623431,0.136221569 116.046761,0.136221569 L89.6297196,0.136221569 C61.0338433,0.136221569 36.9172763,19.4356333 29.7917814,45.5956333 C13.2104412,46.5167902 0.000853608247,60.3213196 0.000853608247,77.1628882 C0.000853608247,93.2564176 12.0559361,106.571516 27.6150804,108.53779 L27.6150804,114.693084 C27.6150804,135.937398 40.4810907,154.659751 60.4363175,162.375241 L72.5575546,167.077202 C75.2037402,168.103084 77.871266,169.000731 80.5793381,169.727398 L80.5793381,177.165045 L80.5793381,205.248575 C80.5793381,211.126025 85.3616784,215.894241 91.2302351,215.894241 L114.446245,215.894241 C120.295596,215.894241 125.075802,211.126025 125.075802,205.248575 L125.075802,177.165045 L125.075802,169.727398 C127.783874,169.000731 130.47274,168.103084 133.118926,167.077202 L145.240163,162.375241 C165.171915,154.659751 178.063534,135.937398 178.063534,114.693084 L178.063534,108.53779 C193.59707,106.571516 205.656421,93.2564176 205.656421,77.1628882 C205.656421,60.3426922 192.468173,46.5360255 175.884699,45.5956333 Z"/>
    <path fill="#8896FB" d="M78.9358412,94.0970569 C78.9358412,97.5936059 71.790998,100.429743 62.9769588,100.429743 C54.1650569,100.429743 47.0202137,97.5936059 47.0202137,94.0970569 C47.0202137,90.6005078 54.1650569,87.7643706 62.9769588,87.7643706 C71.790998,87.7643706 78.9358412,90.6005078 78.9358412,94.0970569 Z M162.075,94.1763352 C161.967976,97.636375 154.864672,100.429743 146.117343,100.429743 C137.303304,100.429743 130.158461,97.5936059 130.158461,94.0970569 C130.158461,90.6005078 137.303304,87.7643706 146.117343,87.7643706 C154.864672,87.7643706 161.967976,90.5577387 162.075,94.0177786 L162.075,94.1763352 Z"/>
  </g>
</svg>
