<?xml version="1.0" encoding="UTF-8"?>
<svg width="54px" height="51px" viewBox="0 0 54 51" version="1.1" xmlns="http://www.w3.org/2000/svg" xmlns:xlink="http://www.w3.org/1999/xlink">
    <!-- Generator: Sketch 48.2 (47327) - http://www.bohemiancoding.com/sketch -->
    <title>Page 1 Copy</title>
    <desc>Created with Sketch.</desc>
    <defs>
        <polygon id="path-1" points="0 0.87975 53.5243404 0.87975 53.5243404 50.9998841 0 50.9998841"></polygon>
    </defs>
    <g id="icons" stroke="none" stroke-width="1" fill="none" fill-rule="evenodd">
        <g id="Page-1-Copy">
            <g id="Group-3">
                <mask id="mask-2" fill="white">
                    <use xlink:href="#path-1"></use>
                </mask>
                <g id="Clip-2"></g>
                <path d="M40.7126681,1.00365682 C40.6471787,0.854134091 40.443817,0.834429545 40.3542,0.971202273 L34.9679872,9.08715682 C33.892583,10.7064068 31.2718596,11.7704523 28.3570085,11.7704523 L25.1675617,11.7704523 C22.2527106,11.7704523 19.6308383,10.7064068 18.556583,9.08715682 L13.1703702,0.971202273 C13.0807532,0.834429545 12.8762426,0.854134091 12.8119021,1.00365682 L1.80968936,26.5349523 C1.34207234,27.6187023 0.761859574,28.6456568 0.237944681,29.7027477 C-0.219331915,30.6288614 -0.0194170213,31.6407477 0.842285106,32.4845659 C11.0758596,42.5153386 26.2498596,50.2174977 26.7484979,50.9801795 L26.7576894,50.9917705 L26.7622851,50.9998841 C26.7622851,50.9998841 42.2786681,42.6810886 52.684583,32.4822477 C53.5451362,31.6395886 53.7439021,30.6277023 53.2843277,29.7015886 C52.7627106,28.647975 52.1836468,27.6244977 51.7194766,26.5430659 L40.7126681,1.00365682 Z" id="Fill-1" fill="#FFFFFF" mask="url(#mask-2)"></path>
            </g>
            <path d="M25.93795,50 C25.6172793,49.8235709 25.2310701,49.6134809 24.7641081,49.3604444 C19.9236191,46.7349003 9.85292093,41.2737222 2.04213192,33.4005721 C2.02340662,33.3831613 2.01053298,33.3669112 2,33.3541433 C2.11820343,33.1939643 2.62144575,32.886374 3.43365546,32.886374 C3.56122154,32.886374 3.69112828,32.894499 3.82337568,32.9095884 C3.98839235,32.9304813 4.15809034,32.939767 4.32544767,32.939767 L4.32661801,32.939767 C7.42682479,32.939767 10.7692901,29.6723459 14.0029146,26.5140323 C16.1680269,24.3968826 18.622211,22 19.8674432,22 C20.0137346,22 20.1155534,22.0383037 20.2232238,22.1346433 C26.2469174,27.5296605 26.1310547,44.6432865 25.93795,50" id="Fill-4" fill="#FF674A"></path>
            <path d="M19.8860597,21 C16.3029601,21 9.31503611,31.7133927 4.31159811,31.7133927 C4.18023734,31.7133927 4.0512223,31.7054366 3.92455298,31.6906611 C3.7509691,31.6713393 3.58207668,31.6611101 3.41787572,31.6611101 C1.62222087,31.6611101 0.368429209,32.8022353 1.33604204,33.7535518 C11.7463833,44.00663 26.3520592,50.2612237 26.8458349,50.9886342 L26.854045,51 C26.854045,51 28.4784617,28.014965 20.8888585,21.3727979 C20.5956425,21.1170676 20.2590305,21 19.8860597,21 M19.7476618,22.894677 C24.4907239,27.30233 25.2272826,40.3820799 25.0654273,47.8050767 C20.4314415,45.3500663 11.3182879,40.4809623 3.88115701,33.5637431 C4.02424642,33.5751089 4.16733584,33.5807918 4.31159811,33.5807918 C7.81259728,33.5807918 11.3065593,30.2460693 14.6844077,27.0193218 C16.2091309,25.5656374 18.7085042,23.1788217 19.7476618,22.894677" id="Fill-6" fill="#FFFFFF"></path>
            <path d="M28.0620476,50 C27.8689336,44.6432865 27.7530651,27.5296605 33.7782242,22.1346433 C33.8847295,22.0383037 33.9865533,22 34.1328519,22 C35.378145,22 37.8336197,24.3968826 39.9976677,26.5140323 C43.2326211,29.6723459 46.5752501,32.939767 49.6756088,32.939767 C49.8441447,32.939767 50.0126806,32.9304813 50.1777054,32.9095884 C50.3111296,32.894499 50.4410428,32.886374 50.5674447,32.886374 C51.3796942,32.886374 51.8829612,33.1939643 52,33.3541433 C51.9906369,33.3669112 51.9777626,33.3831613 51.9590364,33.4005721 C44.1478647,41.2737222 34.0766732,46.7349003 29.2359471,49.3604444 C28.7689622,49.6134809 28.382734,49.8235709 28.0620476,50" id="Fill-8" fill="#FF674A"></path>
            <path d="M34.1139359,21 C33.7409653,21 33.4043536,21.1170676 33.1111377,21.3727979 C25.5215392,28.014965 27.1459549,51 27.1459549,51 L27.154165,50.9886342 C27.6479404,50.2612237 42.2536073,44.00663 52.6639421,33.7535518 C53.6315543,32.8022353 52.3777634,31.6611101 50.5832825,31.6611101 C50.4179088,31.6611101 50.2490165,31.6713393 50.0754327,31.6906611 C49.9487635,31.7054366 49.8197485,31.7133927 49.6883878,31.7133927 C44.6849529,31.7133927 37.6970333,21.0011366 34.1139359,21 M34.2523338,22.894677 C35.2914906,23.1788217 37.7908624,25.5656374 39.3144118,27.0193218 C42.693431,30.2460693 46.1885637,33.5807918 49.6883878,33.5807918 C49.83265,33.5807918 49.9769122,33.5751089 50.1188287,33.5637431 C42.6828753,40.4798257 33.5685544,45.3500663 28.9345715,47.8050767 C28.7727163,40.3820799 29.5092745,27.30233 34.2523338,22.894677" id="Fill-10" fill="#FFFFFF"></path>
            <path d="M38,35 L34,40" id="Fill-12" fill="#FFFFFF"></path>
            <path d="M36.8091269,35.0003206 C37.0494,35.8432348 37.0294603,36.4803573 36.9307589,37.0571975 C36.8280696,37.6278015 36.6077362,38.1090213 36.309638,38.5289194 C36.0075519,38.9446601 35.6257072,39.2970003 35.1272153,39.5578775 C34.6237385,39.8156367 34.040503,40.0099955 33.1940638,39.999602 C32.9507997,39.1535697 32.9697424,38.5154078 33.0694408,37.9406464 C33.1731271,37.369003 33.3924635,36.8877832 33.6935526,36.4710032 C33.9986297,36.0573412 34.3804744,35.7060404 34.8799633,35.4441238 C35.3844371,35.1874039 35.9666756,34.9909665 36.8091269,35.0003206" id="Fill-14" fill="#FFFFFF"></path>
            <path d="M16,35 L20,40" id="Fill-16" fill="#FFFFFF"></path>
            <path d="M16.1906425,35.0003206 C17.0329243,34.9909665 17.6160425,35.1874039 18.119418,35.4441238 C18.6188064,35.7060404 19.0015712,36.0573412 19.3055901,36.4710032 C19.6066186,36.8877832 19.8259109,37.369003 19.9305732,37.9406464 C20.0302515,38.5154078 20.0491904,39.1535697 19.8059753,39.999602 C18.9587095,40.0099955 18.3755913,39.8156367 17.8732126,39.5578775 C17.3738242,39.2970003 16.9920562,38.9446601 16.6900309,38.5289194 C16.3919927,38.1090213 16.1727004,37.6278015 16.0700317,37.0571975 C15.9703534,36.4803573 15.9504177,35.8432348 16.1906425,35.0003206" id="Fill-18" fill="#FFFFFF"></path>
        </g>
    </g>
</svg>