<?xml version="1.0" encoding="UTF-8"?>
<svg width="44px" height="40px" viewBox="0 0 44 40" version="1.1" xmlns="http://www.w3.org/2000/svg" xmlns:xlink="http://www.w3.org/1999/xlink">
    <!-- Generator: Sketch 48.2 (47327) - http://www.bohemiancoding.com/sketch -->
    <title>Page 1</title>
    <desc>Created with Sketch.</desc>
    <defs>
        <polygon id="path-1" points="0.000417569277 0.315 43.212 0.315 43.212 39.9999 0.000417569277 39.9999"></polygon>
    </defs>
    <g id="picto_frite" stroke="none" stroke-width="1" fill="none" fill-rule="evenodd" transform="translate(0.000000, -1.000000)">
        <g id="Page-1">
            <g id="Group-3" transform="translate(0.000000, 0.685000)">
                <mask id="mask-2" fill="white">
                    <use xlink:href="#path-1"></use>
                </mask>
                <g id="Clip-2"></g>
                <path d="M39.0125,37.0539 C38.9855,37.0869 38.9575,37.1189 38.9305,37.1529 C37.3975,38.9889 35.0915,39.9999 32.6995,39.9999 L12.9465,39.9999 C10.4595,39.9999 8.0825,38.9009 6.5425,36.9479 C5.0725,35.0819 3.6735,32.7439 2.5225,30.0939 C-0.8065,22.4359 -0.8465,15.0669 2.4415,13.6299 C4.5415,12.7179 7.4825,14.4499 10.2065,17.8049 C10.1735,17.2479 10.1595,16.6849 10.1595,16.1199 C10.1595,7.3889 13.7305,0.3149 18.1325,0.3149 C22.5355,0.3149 26.1065,7.3889 26.1065,16.1199 C26.1065,16.5499 26.0995,16.9729 26.0785,17.3889 C28.1805,14.8049 30.6035,13.4899 32.5155,14.2139 C35.2415,15.2349 36.0195,20.0059 34.5355,25.3419 C37.4615,23.4299 40.3005,22.8929 41.9315,24.2349 C44.4495,26.3089 43.1395,32.0469 39.0125,37.0539" id="Fill-1" fill="#FFFFFF" mask="url(#mask-2)"></path>
            </g>
            <path d="M20.2049,16.0358 L15.7699,11.6018 C15.4439,11.2758 15.4439,10.7478 15.7699,10.4218 L16.5189,9.6728 C16.8459,9.3468 17.3739,9.3468 17.6999,9.6728 L22.1349,14.1058 C22.4609,14.4318 22.4609,14.9618 22.1349,15.2868 L21.3859,16.0358 C21.0589,16.3618 20.5309,16.3618 20.2049,16.0358" id="Fill-4" fill="#2C00B9"></path>
            <path d="M9.8709,31.693 L9.0669,31.003 C8.7179,30.703 8.6779,30.175 8.9779,29.826 L13.0619,25.068 C13.3629,24.718 13.8899,24.677 14.2399,24.978 L15.0439,25.669 C15.3929,25.968 15.4329,26.496 15.1329,26.845 L11.0489,31.603 C10.7479,31.953 10.2209,31.993 9.8709,31.693" id="Fill-6" fill="#2C00B9"></path>
            <path d="M30.4745,36.524 L26.7625,31.47 C26.4905,31.098 26.5705,30.576 26.9415,30.303 L27.7955,29.676 C28.1665,29.403 28.6895,29.483 28.9625,29.855 L32.6735,34.909 C32.9475,35.281 32.8675,35.803 32.4955,36.077 L31.6415,36.703 C31.2695,36.976 30.7465,36.896 30.4745,36.524" id="Fill-8" fill="#2C00B9"></path>
        </g>
    </g>
</svg>