<?xml version="1.0" encoding="UTF-8"?>
<svg width="44px" height="51px" viewBox="0 0 44 51" version="1.1" xmlns="http://www.w3.org/2000/svg" xmlns:xlink="http://www.w3.org/1999/xlink">
    <!-- Generator: Sketch 48.2 (47327) - http://www.bohemiancoding.com/sketch -->
    <title>picto_chevalier</title>
    <desc>Created with Sketch.</desc>
    <defs>
        <polygon id="path-1" points="0.0114 0.982 27.5427696 0.982 27.5427696 28.6278 0.0114 28.6278"></polygon>
    </defs>
    <g id="picto_chevalier" stroke="none" stroke-width="1" fill="none" fill-rule="evenodd" transform="translate(0.000000, -1.000000)">
        <g>
            <path d="M37.9249,12.3602 C37.9249,6.5312 33.1999,1.8062 27.3719,1.8062 C21.5429,1.8062 16.8189,6.5312 16.8189,12.3602 C16.8189,18.1882 21.5429,22.9132 27.3719,22.9132 C28.7689,22.9132 30.1009,22.6392 31.3209,22.1462 C33.2789,28.2442 42.7369,27.8332 42.7369,27.8332 C42.7369,27.8332 37.9249,23.7892 37.9249,12.3602" id="Fill-1" fill="#FFFFFF"></path>
            <g id="Group-5" transform="translate(16.000000, 0.017900)">
                <mask id="mask-2" fill="white">
                    <use xlink:href="#path-1"></use>
                </mask>
                <g id="Clip-4"></g>
                <path d="M15.3214,21.3228 C15.4384,21.3228 15.5544,21.3478 15.6634,21.3978 C15.8664,21.4938 16.0204,21.6688 16.0894,21.8828 C17.3444,25.7948 22.2464,26.7328 24.9264,26.9498 C23.4144,24.8458 21.1194,20.3368 21.1194,12.3418 C21.1194,6.9678 16.7464,2.5938 11.3724,2.5938 C5.9974,2.5938 1.6254,6.9678 1.6254,12.3418 C1.6254,17.7168 5.9974,22.0898 11.3724,22.0898 C12.6294,22.0898 13.8554,21.8508 15.0194,21.3818 C15.1164,21.3428 15.2184,21.3228 15.3214,21.3228 M26.3514,28.6278 C25.5344,28.6278 23.6334,28.5618 21.5654,28.0398 C18.2254,27.1958 15.9244,25.5148 14.8544,23.1548 C13.7304,23.5178 12.5624,23.7018 11.3724,23.7018 C5.1084,23.7018 0.0114,18.6048 0.0114,12.3418 C0.0114,6.0778 5.1084,0.9818 11.3724,0.9818 C17.6354,0.9818 22.7314,6.0778 22.7314,12.3418 C22.7314,23.2688 27.2104,27.1598 27.2554,27.1978 C27.5094,27.4118 27.6064,27.7598 27.5004,28.0738 C27.3924,28.3888 27.1034,28.6048 26.7714,28.6198 C26.7484,28.6218 26.5994,28.6278 26.3514,28.6278" id="Fill-3" fill="#3F57FF" mask="url(#mask-2)"></path>
            </g>
            <path d="M27.3721,31.451 C27.3721,32.553 26.4781,33.446 25.3771,33.446 C24.2741,33.446 23.3821,32.553 23.3821,31.451 C23.3821,30.349 24.2741,29.456 25.3771,29.456 C26.4781,29.456 27.3721,30.349 27.3721,31.451" id="Fill-6" fill="#3F57FF"></path>
            <path d="M14.5333,31.451 C14.5333,32.553 13.6403,33.446 12.5383,33.446 C11.4363,33.446 10.5433,32.553 10.5433,31.451 C10.5433,30.349 11.4363,29.456 12.5383,29.456 C13.6403,29.456 14.5333,30.349 14.5333,31.451" id="Fill-8" fill="#3F57FF"></path>
            <path d="M15.1095,35.7391 L10.5175,35.7391 C8.6265,35.7391 7.0775,34.2151 7.0775,32.3511 L7.0775,30.4851 C7.0775,28.6221 8.6265,27.0961 10.5175,27.0961 L27.3045,27.0961 C29.1965,27.0961 30.7455,28.6221 30.7455,30.4851 L30.7455,32.3511 C30.7455,34.2151 29.1965,35.7391 27.3045,35.7391 L22.7135,35.7391 L22.7135,51.2121 L36.8375,47.2931 L33.4785,21.1351 C32.9905,17.1301 30.2555,14.1731 27.0375,14.1731 L10.7855,14.1731 C7.5675,14.1731 4.8325,17.1301 4.3445,21.1351 L0.9855,47.2931 L15.1095,51.2121 L15.1095,35.7391 Z" id="Fill-10" fill="#3F57FF"></path>
            <path d="M1.8741,46.703 L14.3031,50.151 L14.3031,36.546 L10.5191,36.546 C8.1771,36.546 6.2711,34.664 6.2711,32.351 L6.2711,30.485 C6.2711,28.173 8.1771,26.291 10.5191,26.291 L27.3051,26.291 C29.6461,26.291 31.5511,28.173 31.5511,30.485 L31.5511,32.351 C31.5511,34.664 29.6461,36.546 27.3051,36.546 L23.5201,36.546 L23.5201,50.151 L35.9481,46.703 L32.6791,21.238 C32.2441,17.668 29.8191,14.978 27.0371,14.978 L10.7851,14.978 C8.0041,14.978 5.5791,17.668 5.1451,21.233 L1.8741,46.703 Z M22.7131,52.017 C22.5391,52.017 22.3671,51.961 22.2251,51.853 C22.0241,51.701 21.9071,51.464 21.9071,51.212 L21.9071,35.74 C21.9071,35.295 22.2681,34.933 22.7131,34.933 L27.3051,34.933 C28.7571,34.933 29.9381,33.775 29.9381,32.351 L29.9381,30.485 C29.9381,29.061 28.7571,27.903 27.3051,27.903 L10.5191,27.903 C9.0651,27.903 7.8841,29.061 7.8841,30.485 L7.8841,32.351 C7.8841,33.775 9.0651,34.933 10.5191,34.933 L15.1091,34.933 C15.5551,34.933 15.9151,35.295 15.9151,35.74 L15.9151,51.212 C15.9151,51.464 15.7981,51.701 15.5981,51.853 C15.3961,52.006 15.1371,52.056 14.8941,51.988 L0.7701,48.069 C0.3841,47.963 0.1351,47.588 0.1861,47.19 L3.5451,21.033 C4.0851,16.593 7.1311,13.366 10.7851,13.366 L27.0371,13.366 C30.6921,13.366 33.7371,16.593 34.2781,21.038 L37.6371,47.19 C37.6871,47.588 37.4381,47.963 37.0531,48.069 L22.9291,51.988 C22.8571,52.008 22.7851,52.017 22.7131,52.017 Z" id="Fill-12" fill="#3F57FF"></path>
            <path d="M16.1934,10.5467 L21.6294,10.5467 C22.6264,10.5467 23.4414,11.3627 23.4414,12.3597 C23.4414,13.3567 22.6264,14.1727 21.6294,14.1727 L16.1934,14.1727 C15.1964,14.1727 14.3814,13.3567 14.3814,12.3597 C14.3814,11.3627 15.1964,10.5467 16.1934,10.5467" id="Fill-14" fill="#FFFFFF"></path>
            <path d="M16.1934,11.3534 C15.6384,11.3534 15.1874,11.8044 15.1874,12.3594 C15.1874,12.9154 15.6384,13.3664 16.1934,13.3664 L21.6294,13.3664 C22.1844,13.3664 22.6354,12.9154 22.6354,12.3594 C22.6354,11.8044 22.1844,11.3534 21.6294,11.3534 L16.1934,11.3534 Z M21.6294,14.9784 L16.1934,14.9784 C14.7504,14.9784 13.5754,13.8034 13.5754,12.3594 C13.5754,10.9164 14.7504,9.7414 16.1934,9.7414 L21.6294,9.7414 C23.0734,9.7414 24.2484,10.9164 24.2484,12.3594 C24.2484,13.8034 23.0734,14.9784 21.6294,14.9784 Z" id="Fill-16" fill="#3F57FF"></path>
            <path d="M0.8067,43.0604 L7.3937,44.8884" id="Fill-18" fill="#2C00B9"></path>
            <path d="M7.3946,45.6952 C7.3236,45.6952 7.2506,45.6852 7.1776,45.6652 L0.5906,43.8372 C0.1626,43.7182 -0.0894,43.2742 0.0296,42.8442 C0.1486,42.4162 0.5906,42.1652 1.0216,42.2842 L7.6096,44.1112 C8.0386,44.2302 8.2906,44.6742 8.1706,45.1042 C8.0716,45.4612 7.7476,45.6952 7.3946,45.6952" id="Fill-20" fill="#FFFFFF"></path>
            <path d="M36.9464,43.0604 L30.3594,44.8884" id="Fill-22" fill="#2C00B9"></path>
            <path d="M30.3585,45.6952 C30.0055,45.6952 29.6815,45.4612 29.5835,45.1042 C29.4625,44.6742 29.7145,44.2302 30.1435,44.1112 L36.7305,42.2842 C37.1635,42.1652 37.6045,42.4162 37.7225,42.8442 C37.8425,43.2742 37.5905,43.7182 37.1625,43.8372 L30.5755,45.6652 C30.5035,45.6852 30.4295,45.6952 30.3585,45.6952" id="Fill-24" fill="#FFFFFF"></path>
        </g>
    </g>
</svg>