<?xml version="1.0" encoding="UTF-8"?>
<svg width="55px" height="48px" viewBox="0 0 55 48" version="1.1" xmlns="http://www.w3.org/2000/svg" xmlns:xlink="http://www.w3.org/1999/xlink">
    <!-- Generator: Sketch 48.2 (47327) - http://www.bohemiancoding.com/sketch -->
    <title>picto_poilu</title>
    <desc>Created with Sketch.</desc>
    <defs>
        <polygon id="path-1" points="0.6186 0.954444444 2.6726 0.954444444 2.6726 9.32444444 0.6186 9.32444444"></polygon>
        <polygon id="path-3" points="0.6186 0.525825 2.6726 0.525825 2.6726 9 0.6186 9"></polygon>
    </defs>
    <g id="picto_poilu" stroke="none" stroke-width="1" fill="none" fill-rule="evenodd">
        <g>
            <path d="M49,24.4994524 C49,33.6122673 39.5985215,41 27.9994514,41 C16.4025757,41 7,33.6122673 7,24.4994524 C7,15.3866375 16.4025757,8 27.9994514,8 C39.5985215,8 49,15.3866375 49,24.4994524" id="Fill-1" fill="#FFFFFF"></path>
            <path d="M28,8.81085759 C16.8677487,8.81085759 7.8118425,15.8494099 7.8118425,24.4994493 C7.8118425,33.1516916 16.8677487,40.1891424 28,40.1891424 C39.1322513,40.1891424 48.1881575,33.1516916 48.1881575,24.4994493 C48.1881575,15.8494099 39.1322513,8.81085759 28,8.81085759 M28,42 C15.8692516,42 6,34.1496459 6,24.4994493 C6,14.8503541 15.8692516,7 28,7 C40.1307484,7 50,14.8503541 50,24.4994493 C50,34.1496459 40.1307484,42 28,42" id="Fill-3" fill="#FFFFFF"></path>
            <path d="M44,24.9994524 C44,29.9706723 39.9737678,34 35.5559462,34 C31.1370428,34 28,29.9706723 28,24.9994524 C28,20.0293277 31.1370428,16 35.5559462,16 C39.9737678,16 44,20.0293277 44,24.9994524" id="Fill-5" fill="#FF674A"></path>
            <path d="M25,24.9994524 C25,29.9706723 21.8629572,34 17.4451356,34 C13.0262322,34 9,29.9706723 9,24.9994524 C9,20.0293277 13.0262322,16 17.4451356,16 C21.8629572,16 25,20.0293277 25,24.9994524" id="Fill-7" fill="#FF674A"></path>
            <path d="M22,23.9995038 C22,25.1039444 21.1047146,26 20,26 C18.8952854,26 18,25.1039444 18,23.9995038 C18,22.8960556 18.8952854,22 20,22 C21.1047146,22 22,22.8960556 22,23.9995038" id="Fill-9" fill="#FFFFFF"></path>
            <path d="M34,23.9995038 C34,25.1039444 33.1054852,26 31.9995036,26 C30.8945148,26 30,25.1039444 30,23.9995038 C30,22.8960556 30.8945148,22 31.9995036,22 C33.1054852,22 34,22.8960556 34,23.9995038" id="Fill-11" fill="#FFFFFF"></path>
            <g id="Group-15" transform="translate(26.000000, 0.000000)">
                <mask id="mask-2" fill="white">
                    <use xlink:href="#path-1"></use>
                </mask>
                <g id="Clip-14"></g>
                <path d="M1.6456,9.32444444 C1.0786,9.32444444 0.6186,8.81333333 0.6186,8.18333333 L0.6186,2.09555556 C0.6186,1.46555556 1.0786,0.954444444 1.6456,0.954444444 C2.2126,0.954444444 2.6726,1.46555556 2.6726,2.09555556 L2.6726,8.18333333 C2.6726,8.81333333 2.2126,9.32444444 1.6456,9.32444444" id="Fill-13" fill="#FFFFFF" mask="url(#mask-2)"></path>
            </g>
            <g id="Group-18" transform="translate(26.000000, 39.000000)">
                <mask id="mask-4" fill="white">
                    <use xlink:href="#path-3"></use>
                </mask>
                <g id="Clip-17"></g>
                <path d="M1.6456,9.00045 C1.0786,9.00045 0.6186,8.48295 0.6186,7.845075 L0.6186,1.6812 C0.6186,1.043325 1.0786,0.525825 1.6456,0.525825 C2.2126,0.525825 2.6726,1.043325 2.6726,1.6812 L2.6726,7.845075 C2.6726,8.48295 2.2126,9.00045 1.6456,9.00045" id="Fill-16" fill="#FFFFFF" mask="url(#mask-4)"></path>
            </g>
            <path d="M35.1936996,11 C35.0287534,11 34.8626457,10.96709 34.7035075,10.8967306 C34.1041257,10.6323154 33.8346362,9.94233931 34.1052873,9.35563268 L36.7188707,3.68716147 C36.9895217,3.09932001 37.6969316,2.83944415 38.2963134,3.10272449 C38.8968568,3.36600484 39.1651847,4.05711574 38.8945336,4.64382237 L36.2821118,10.3134284 C36.0834795,10.7435286 35.6490439,11 35.1936996,11" id="Fill-19" fill="#FFFFFF"></path>
            <path d="M19.192841,46 C19.0290395,46 18.8629144,45.96709 18.7037597,45.8967306 C18.1031539,45.6334502 17.8347981,44.9423393 18.1054773,44.3556327 L20.7181707,38.6871615 C20.9888499,38.09932 21.6963333,37.8394441 22.2957774,38.1027245 C22.8963833,38.3660048 23.164739,39.0571157 22.8952215,39.6438224 L20.2813665,45.3134284 C20.0838752,45.7435286 19.6482327,46 19.192841,46" id="Fill-21" fill="#FFFFFF"></path>
            <path d="M21.9903296,11 C21.587009,11 21.2063138,10.7247813 21.0499041,10.2727962 L19.0706822,4.57151826 C18.8660708,3.98192378 19.1208514,3.31401505 19.6392659,3.08130983 C20.1596477,2.84636705 20.7459381,3.13836736 20.9495658,3.72796184 L22.9287877,9.42923976 C23.1343828,10.0188342 22.8796022,10.686743 22.360204,10.9194482 C22.2392079,10.9742682 22.1132932,11 21.9903296,11" id="Fill-23" fill="#FFFFFF"></path>
            <path d="M35.9899905,47 C35.5867157,47 35.2060636,46.7247654 35.0496717,46.2727542 L33.0706742,40.5711474 C32.866086,39.981519 33.1208377,39.3135717 33.6391934,39.080853 C34.1595163,38.8470156 34.7447565,39.1379139 34.9503283,39.7275424 L36.9293258,45.4291491 C37.133914,46.0187776 36.8791623,46.6867249 36.3608066,46.9194435 C36.2388406,46.9742667 36.1129402,47 35.9899905,47" id="Fill-25" fill="#FFFFFF"></path>
            <path d="M53.9102496,25 L48.0908125,25 C47.488582,25 47,24.5523114 47,24.0004866 C47,23.4476886 47.488582,23 48.0908125,23 L53.9102496,23 C54.5124801,23 55,23.4476886 55,24.0004866 C55,24.5523114 54.5124801,25 53.9102496,25" id="Fill-27" fill="#FFFFFF"></path>
            <path d="M6.90918747,25 L1.09081253,25 C0.48858205,25 0,24.5523114 0,24.0004866 C0,23.4476886 0.48858205,23 1.09081253,23 L6.90918747,23 C7.51141795,23 8,23.4476886 8,24.0004866 C8,24.5523114 7.51141795,25 6.90918747,25" id="Fill-29" fill="#FFFFFF"></path>
            <path d="M47.1541485,18 C46.6994231,18 46.2682762,17.7665825 46.086386,17.3811047 C45.8449887,16.8726227 46.1268061,16.2915004 46.7162648,16.0832649 L52.4098749,14.0745188 C53.0004564,13.8662833 53.6730008,14.1093861 53.9143982,14.6178681 C54.1546728,15.1263502 53.8717326,15.7074725 53.2833966,15.915708 L47.5909093,17.9254226 C47.4471937,17.9757866 47.2989869,18 47.1541485,18" id="Fill-31" fill="#FFFFFF"></path>
            <path d="M4.15349985,36 C3.69989528,36 3.26874639,35.7675175 3.08685545,35.3810153 C2.8443342,34.8734285 3.12727566,34.2922222 3.71673704,34.0839566 L9.41037256,32.0749203 C9.99871115,31.865686 10.6735041,32.1097927 10.9137798,32.6193168 C11.1551782,33.1269036 10.8722368,33.7081099 10.2827754,33.9163755 L4.59026266,35.9263805 C4.44766914,35.9767517 4.29946171,36 4.15349985,36" id="Fill-33" fill="#FFFFFF"></path>
            <path d="M51.8401827,36 C51.6878305,36 51.5332213,35.9679802 51.3842548,35.9003827 L45.7032124,33.3376097 C45.1141174,33.0719637 44.8421406,32.355668 45.0938038,31.7378037 C45.3477241,31.1199395 46.0304874,30.8341328 46.6173253,31.0985929 L52.2983676,33.6613659 C52.8863341,33.9270119 53.1583109,34.6433076 52.9055192,35.2623578 C52.7170539,35.7236807 52.2893394,36 51.8401827,36" id="Fill-35" fill="#FFFFFF"></path>
            <path d="M10.8401984,19 C10.6867174,19 10.5332363,18.9679846 10.3831409,18.9003965 L4.70321403,16.3367925 C4.1141177,16.0711832 3.84214028,15.3561725 4.09380404,14.737208 C4.34659633,14.1194292 5.03048977,13.8336621 5.61732903,14.0992714 L11.2972559,16.6616896 C11.8863522,16.9272989 12.1583297,17.6434954 11.9055374,18.2612742 C11.7170717,18.7237189 11.2893561,19 10.8401984,19" id="Fill-37" fill="#FFFFFF"></path>
            <path d="M44.7876782,42 C44.4771443,42 44.1666104,41.897769 43.9292823,41.6953313 L39.3551067,37.7741133 C38.8816311,37.3692379 38.8816311,36.7103032 39.3551067,36.3044157 C39.829763,35.8985281 40.5972421,35.8985281 41.0707177,36.3044157 L45.6448933,40.2256337 C46.1183689,40.630509 46.1183689,41.2894437 45.6448933,41.6953313 C45.4075652,41.897769 45.098212,42 44.7876782,42" id="Fill-39" fill="#FFFFFF"></path>
            <path d="M16.7864974,13 C16.4759636,13 16.1666104,12.897769 15.9292823,12.6953313 L11.3551067,8.77411328 C10.8816311,8.36923791 10.8816311,7.71030323 11.3551067,7.30441567 C11.829763,6.89852811 12.5972421,6.89852811 13.0707177,7.30441567 L17.6448933,11.2256337 C18.1183689,11.6315212 18.1183689,12.2894437 17.6448933,12.6953313 C17.4075652,12.897769 17.0970313,13 16.7864974,13" id="Fill-41" fill="#FFFFFF"></path>
            <path d="M40.2135026,13 C39.9029687,13 39.5936156,12.8987683 39.3551067,12.6952927 C38.8816311,12.2893538 38.8816311,11.6313481 39.3551067,11.2254091 L43.9292823,7.30369496 C44.4039386,6.89876835 45.170237,6.89876835 45.6448933,7.30369496 C46.1183689,7.70963388 46.1183689,8.36865193 45.6448933,8.77459086 L41.0707177,12.6952927 C40.8333896,12.8987683 40.5240364,13 40.2135026,13" id="Fill-43" fill="#FFFFFF"></path>
            <path d="M11.2135026,42 C10.9029687,42 10.5936156,41.8977862 10.3551067,41.6953827 C9.8816311,41.2895636 9.8816311,40.63074 10.3551067,40.2249209 L14.9292823,36.3043643 C15.4039386,35.8985452 16.170237,35.8985452 16.6448933,36.3043643 C17.1183689,36.7101834 17.1183689,37.369007 16.6448933,37.7748261 L12.0718985,41.6953827 C11.8333896,41.8977862 11.5240364,42 11.2135026,42" id="Fill-45" fill="#FFFFFF"></path>
        </g>
    </g>
</svg>