<?xml version="1.0" encoding="UTF-8"?>
<svg width="40px" height="41px" viewBox="0 0 40 41" version="1.1" xmlns="http://www.w3.org/2000/svg" xmlns:xlink="http://www.w3.org/1999/xlink">
    <!-- Generator: Sketch 48.2 (47327) - http://www.bohemiancoding.com/sketch -->
    <title>drawing_blue</title>
    <desc>Created with Sketch.</desc>
    <defs>
        <polygon id="path-1" points="0 0.273007089 39.992 0.273007089 39.992 40 0 40"></polygon>
    </defs>
    <g id="Symbols" stroke="none" stroke-width="1" fill="none" fill-rule="evenodd">
        <g id="drawing_blue">
            <g id="Page-1">
                <polygon id="Fill-1" fill="#FFFFFF" points="10.4998 39.2867 1.4398 30.2267 24.4458 7.2207 38.5518 2.4397 33.5058 16.2807"></polygon>
                <g id="Group-4" transform="translate(0.000000, 0.726800)">
                    <mask id="mask-2" fill="white">
                        <use xlink:href="#path-1"></use>
                    </mask>
                    <g id="Clip-3"></g>
                    <path d="M10.4998,36.5223 L8.0068,34.0293 L26.6038,15.4333 C27.6338,14.4023 28.6048,13.9383 29.4868,14.0583 C30.3388,14.1723 31.0978,14.8113 31.6188,15.4033 L10.4998,36.5223 Z M24.5978,8.3803 C25.1838,8.8973 25.8228,9.6543 25.9398,10.5033 C26.0628,11.3893 25.6008,12.3623 24.5658,13.3963 L5.9698,31.9923 L3.4778,29.5003 L24.5978,8.3803 Z M34.7988,7.8023 L33.0078,12.7153 C32.2168,12.0213 31.1728,11.3833 29.8918,11.2063 C29.5318,11.1563 29.1738,11.1563 28.8168,11.1843 C28.8438,10.8273 28.8438,10.4693 28.7938,10.1093 C28.6198,8.8523 28.0038,7.8253 27.3238,7.0403 L32.3378,5.3413 L34.7988,7.8023 Z M39.8228,1.0353 C39.7598,0.9163 39.6788,0.8053 39.5818,0.7063 C39.2908,0.4083 38.8928,0.2573 38.4888,0.2743 C38.4268,0.2773 38.3648,0.2983 38.3028,0.3093 C38.2308,0.3223 38.1588,0.3253 38.0888,0.3493 L23.9828,5.1293 C23.9578,5.1383 23.9358,5.1543 23.9098,5.1643 C23.8508,5.1883 23.7928,5.2143 23.7368,5.2463 C23.7018,5.2663 23.6698,5.2873 23.6368,5.3103 C23.5828,5.3463 23.5328,5.3873 23.4838,5.4313 C23.4668,5.4473 23.4448,5.4583 23.4278,5.4753 L0.4218,28.4813 C-0.1412,29.0433 -0.1412,29.9563 0.4218,30.5183 L4.9498,35.0463 C4.9508,35.0473 4.9508,35.0483 4.9508,35.0483 C4.9518,35.0483 4.9528,35.0493 4.9528,35.0493 L9.4808,39.5783 C9.7628,39.8593 10.1308,40.0003 10.4998,40.0003 C10.8688,40.0003 11.2368,39.8593 11.5188,39.5783 L34.5238,16.5723 C34.5418,16.5553 34.5538,16.5333 34.5698,16.5153 C34.6118,16.4693 34.6498,16.4223 34.6858,16.3723 C34.7078,16.3393 34.7288,16.3073 34.7478,16.2723 C34.7778,16.2203 34.8048,16.1673 34.8278,16.1123 C34.8368,16.0893 34.8518,16.0703 34.8588,16.0473 L37.8188,7.9293 C37.8188,7.9283 37.8198,7.9273 37.8198,7.9263 L39.1788,4.1993 L39.9048,2.2073 C39.9528,2.0773 39.9798,1.9423 39.9888,1.8083 C40.0068,1.5403 39.9488,1.2723 39.8228,1.0353 Z" id="Fill-2" fill="#3F57FF" mask="url(#mask-2)"></path>
                </g>
            </g>
        </g>
    </g>
</svg>