<?xml version="1.0" encoding="UTF-8"?>
<svg width="40px" height="41px" viewBox="0 0 40 41" version="1.1" xmlns="http://www.w3.org/2000/svg" xmlns:xlink="http://www.w3.org/1999/xlink">
    <!-- Generator: Sketch 48.2 (47327) - http://www.bohemiancoding.com/sketch -->
    <title>drawing_white</title>
    <desc>Created with Sketch.</desc>
    <defs>
        <polygon id="path-1" points="0.00015 0.273 39.9919314 0.273 39.9919314 40 0.00015 40"></polygon>
    </defs>
    <g id="Symbols" stroke="none" stroke-width="1" fill="none" fill-rule="evenodd">
        <g id="drawing_white">
            <g id="Page-1">
                <polygon id="Fill-1" fill="#3F57FF" points="10.5004 39.2866 1.4394 30.2266 24.4454 7.2206 38.5524 2.4396 33.5064 16.2806"></polygon>
                <g id="Group-4" transform="translate(0.000000, 0.726800)">
                    <mask id="mask-2" fill="white">
                        <use xlink:href="#path-1"></use>
                    </mask>
                    <g id="Clip-3"></g>
                    <path d="M10.5004,36.5222 L8.0074,34.0292 L26.6044,15.4332 C27.6344,14.4022 28.6054,13.9382 29.4874,14.0582 C30.3394,14.1722 31.0974,14.8112 31.6184,15.4032 L10.5004,36.5222 Z M24.5984,8.3802 C25.1834,8.8972 25.8224,9.6542 25.9404,10.5032 C26.0634,11.3892 25.6014,12.3622 24.5664,13.3962 L5.9704,31.9922 L3.4784,29.5002 L24.5984,8.3802 Z M34.7984,7.8022 L33.0074,12.7152 C32.2174,12.0212 31.1734,11.3832 29.8924,11.2062 C29.5314,11.1562 29.1734,11.1562 28.8164,11.1842 C28.8444,10.8272 28.8444,10.4692 28.7944,10.1092 C28.6204,8.8522 28.0034,7.8252 27.3234,7.0402 L32.3374,5.3412 L34.7984,7.8022 Z M39.8224,1.0352 C39.7594,0.9162 39.6794,0.8052 39.5824,0.7062 C39.2914,0.4082 38.8934,0.2572 38.4894,0.2742 C38.4264,0.2772 38.3644,0.2982 38.3024,0.3092 C38.2304,0.3222 38.1584,0.3252 38.0894,0.3492 L23.9834,5.1292 C23.9574,5.1382 23.9354,5.1542 23.9104,5.1642 C23.8514,5.1882 23.7934,5.2142 23.7364,5.2462 C23.7024,5.2662 23.6694,5.2872 23.6364,5.3102 C23.5824,5.3462 23.5324,5.3872 23.4834,5.4312 C23.4664,5.4472 23.4444,5.4582 23.4284,5.4752 L0.4224,28.4812 C-0.1406,29.0432 -0.1406,29.9562 0.4224,30.5182 L4.9504,35.0462 C4.9504,35.0472 4.9504,35.0482 4.9514,35.0482 C4.9514,35.0482 4.9524,35.0492 4.9524,35.0492 L9.4814,39.5782 C9.7634,39.8592 10.1314,40.0002 10.5004,40.0002 C10.8694,40.0002 11.2374,39.8592 11.5194,39.5782 L34.5244,16.5722 C34.5414,16.5552 34.5544,16.5332 34.5694,16.5152 C34.6114,16.4692 34.6504,16.4222 34.6854,16.3722 C34.7074,16.3392 34.7284,16.3072 34.7474,16.2722 C34.7774,16.2202 34.8044,16.1672 34.8274,16.1122 C34.8364,16.0892 34.8514,16.0702 34.8594,16.0472 L37.8184,7.9292 C37.8194,7.9282 37.8194,7.9272 37.8204,7.9262 L39.1794,4.1992 L39.9054,2.2072 C39.9524,2.0772 39.9794,1.9422 39.9884,1.8082 C40.0074,1.5402 39.9494,1.2722 39.8224,1.0352 Z" id="Fill-2" fill="#FFFFFF" mask="url(#mask-2)"></path>
                </g>
            </g>
        </g>
    </g>
</svg>