<?xml version="1.0" encoding="UTF-8"?>
<svg width="35px" height="26px" viewBox="0 0 35 26" version="1.1" xmlns="http://www.w3.org/2000/svg" xmlns:xlink="http://www.w3.org/1999/xlink">
    <!-- Generator: Sketch 48.2 (47327) - http://www.bohemiancoding.com/sketch -->
    <title>home_blue</title>
    <desc>Created with Sketch.</desc>
    <defs>
        <polygon id="path-1" points="0.4956 0.86345 26.1196 0.86345 26.1196 19 0.4956 19"></polygon>
        <polygon id="path-3" points="0.000265793829 0.687 34.615 0.687 34.615 11.6348 0.000265793829 11.6348"></polygon>
    </defs>
    <g id="Symbols" stroke="none" stroke-width="1" fill="none" fill-rule="evenodd">
        <g id="home_blue">
            <g id="Page-1">
                <g id="Group-3" transform="translate(4.000000, 6.313400)">
                    <mask id="mask-2" fill="white">
                        <use xlink:href="#path-1"></use>
                    </mask>
                    <g id="Clip-2"></g>
                    <path d="M12.8406,0.9662 L1.1396,6.3852 C0.7466,6.5682 0.4956,6.9612 0.4956,7.3942 L0.4956,17.8882 C0.4956,18.5022 0.9926,19.0002 1.6066,19.0002 L11.5086,19.0002 C12.1226,19.0002 12.6196,18.5022 12.6196,17.8882 L12.6196,10.9872 C12.6196,10.3732 13.1176,9.8752 13.7326,9.8752 L17.7586,9.8752 C18.3726,9.8752 18.8696,10.3732 18.8696,10.9872 L18.8696,17.8882 C18.8696,18.5022 19.3676,19.0002 19.9826,19.0002 L25.0086,19.0002 C25.6226,19.0002 26.1196,18.5022 26.1196,17.8882 L26.1196,7.3942 C26.1196,6.9612 25.8686,6.5682 25.4756,6.3852 L13.7756,0.9662 C13.4786,0.8292 13.1366,0.8292 12.8406,0.9662" id="Fill-1" fill="#3F57FF" mask="url(#mask-2)"></path>
                </g>
                <g id="Group-6" transform="translate(0.000000, 0.313400)">
                    <mask id="mask-4" fill="white">
                        <use xlink:href="#path-3"></use>
                    </mask>
                    <g id="Clip-5"></g>
                    <path d="M33.7449,8.7728 L26.2159,5.2858 L26.2159,1.8458 C26.2159,1.2058 25.6959,0.6868 25.0569,0.6868 L24.0809,0.6868 C23.4409,0.6868 22.9229,1.2058 22.9229,1.8458 L22.9229,3.7608 L19.0809,1.9818 C17.9539,1.4598 16.6609,1.4598 15.5339,1.9808 L0.8699,8.7728 C0.1189,9.1208 -0.2091,10.0128 0.1399,10.7648 C0.4879,11.5158 1.3789,11.8418 2.1309,11.4958 L16.7949,4.7038 C17.1209,4.5528 17.4939,4.5528 17.8199,4.7038 L32.4839,11.4958 C32.6879,11.5898 32.9029,11.6348 33.1139,11.6348 C33.6809,11.6348 34.2229,11.3128 34.4759,10.7648 C34.8239,10.0128 34.4969,9.1208 33.7449,8.7728" id="Fill-4" fill="#3F57FF" mask="url(#mask-4)"></path>
                </g>
            </g>
        </g>
    </g>
</svg>