<svg xmlns="http://www.w3.org/2000/svg" viewBox="0 0 163.36 74.57"><defs><style>.cls-1{fill:#ff674a;}.cls-2{fill:#3f57ff;}</style></defs><title>Fichier 3</title><g id="Calque_2" data-name="Calque 2"><g id="icons_livres"><path class="cls-1" d="M14.3,73.3H0V.37H14.3Z"/><path class="cls-1" d="M28.69,7.35q0-7,7.78-7t7.78,7a6.81,6.81,0,0,1-1.95,5.18q-1.95,1.85-5.84,1.85Q28.69,14.38,28.69,7.35Zm14.91,66H29.3V20.9h14.3Z"/><path class="cls-1" d="M56.58,66.6q0-3.94,2.11-6t6.14-2a8.31,8.31,0,0,1,6,2.06A7.84,7.84,0,0,1,73,66.6a7.84,7.84,0,0,1-2.16,5.84,8.16,8.16,0,0,1-6,2.13,8.41,8.41,0,0,1-6.09-2.09A7.8,7.8,0,0,1,56.58,66.6Z"/><path class="cls-2" d="M100.27,72.94H86V0h14.3Z"/><path class="cls-2" d="M152.39,72.94l-1.92-6.7h-.75a15.08,15.08,0,0,1-6.52,5.65,22.25,22.25,0,0,1-9.61,2q-9.23,0-13.92-4.95T115,54.7V20.53h14.3V51.14q0,5.67,2,8.51t6.42,2.84q6,0,8.67-4t2.67-13.29V20.53h14.3V72.94Z"/></g></g></svg>