<svg xmlns="http://www.w3.org/2000/svg" width="103" height="47" viewBox="0 0 103 47">
  <g fill="none" fill-rule="evenodd">
    <path fill="#FFF" d="M9.38574219,46 L0.450195312,46 L0.450195312,0.4140625 L9.38574219,0.4140625 L9.38574219,46 Z M18.3798828,4.77929688 C18.3798828,1.86912607 20.0009604,0.4140625 23.2431641,0.4140625 C26.4853678,0.4140625 28.1064453,1.86912607 28.1064453,4.77929688 C28.1064453,6.16602256 27.7011759,7.24511333 26.890625,8.01660156 C26.0800741,8.78808979 24.8642659,9.17382812 23.2431641,9.17382812 C20.0009604,9.17382812 18.3798828,7.70899902 18.3798828,4.77929688 Z M27.6962891,46 L18.7607422,46 L18.7607422,13.2460938 L27.6962891,13.2460938 L27.6962891,46 Z"/>
    <path fill="#FF674A" d="M35.8115234,41.8105469 C35.8115234,40.1699137 36.2509722,38.9296917 37.1298828,38.0898438 C38.0087935,37.2499958 39.2880775,36.8300781 40.9677734,36.8300781 C42.5888753,36.8300781 43.8437456,37.2597613 44.7324219,38.1191406 C45.6210982,38.9785199 46.0654297,40.2089764 46.0654297,41.8105469 C46.0654297,43.3535233 45.6162154,44.5693315 44.7177734,45.4580078 C43.8193314,46.3466841 42.5693439,46.7910156 40.9677734,46.7910156 C39.3271402,46.7910156 38.0576217,46.3564497 37.1591797,45.4873047 C36.2607377,44.6181597 35.8115234,43.392586 35.8115234,41.8105469 Z M63.1162109,46 L54.1806641,46 L54.1806641,0.4140625 L63.1162109,0.4140625 L63.1162109,46 Z M95.6943359,46 L94.4931641,41.8105469 L94.0244141,41.8105469 C93.067378,43.333992 91.7099697,44.510738 89.9521484,45.3408203 C88.1943271,46.1709026 86.192394,46.5859375 83.9462891,46.5859375 C80.0986136,46.5859375 77.198252,45.5556744 75.2451172,43.4951172 C73.2919824,41.43456 72.3154297,38.4707225 72.3154297,34.6035156 L72.3154297,13.2460938 L81.2509766,13.2460938 L81.2509766,32.3769531 C81.2509766,34.7402462 81.6708942,36.5126894 82.5107422,37.6943359 C83.3505901,38.8759825 84.6884674,39.4667969 86.5244141,39.4667969 C89.0244266,39.4667969 90.8310491,38.6318443 91.9443359,36.9619141 C93.0576228,35.2919838 93.6142578,32.5234568 93.6142578,28.65625 L93.6142578,13.2460938 L102.549805,13.2460938 L102.549805,46 L95.6943359,46 Z"/>
  </g>
</svg>
