<svg xmlns="http://www.w3.org/2000/svg" width="164" height="75" viewBox="0 0 164 75">
  <path fill="#3f57ff" fill-rule="nonzero" d="M152.39,72.94 L150.47,66.24 L149.72,66.24 C148.14328,68.7181059 145.877191,70.6818176 143.2,71.89 C140.185499,73.2637631 136.902278,73.9470556 133.59,73.89 C127.436667,73.89 122.796667,72.24 119.67,68.94 C116.543333,65.64 114.986667,60.8933333 115,54.7 L114.999915,20.53 L129.3,20.53 L129.3,51.14 C129.3,54.92 129.966667,57.7566667 131.3,59.65 C132.633333,61.5433333 134.773333,62.49 137.72,62.49 C141.72,62.49 144.61,61.1566667 146.39,58.49 C148.17,55.8233333 149.06,51.3933333 149.06,45.2 L149.06,20.53 L163.36,20.53 L163.36,72.94 L152.39,72.94 Z M100.27,72.94 L86,72.94 L86,0 L100.3,0 L100.27,72.94 Z"/>
  <path fill="#ff674a" fill-rule="nonzero" d="M56.58,66.6 C56.58,63.9733333 57.2833333,61.9733333 58.69,60.6 C60.0966667,59.2266667 62.1433333,58.56 64.83,58.6 C67.0237192,58.4662218 69.1811011,59.2069229 70.83,60.66 C72.3552315,62.247512 73.1427285,64.4031491 73,66.6 C73.1170535,68.7613766 72.3353108,70.8749773 70.84,72.44 C69.2109239,73.9331506 67.045909,74.7017309 64.84,74.57 C62.6131305,74.7087596 60.4223886,73.9569286 58.75,72.48 C57.236373,70.9096039 56.4494108,68.7771902 56.58,66.6 Z M28.69,7.35 C28.69,2.68333333 31.2833333,0.35 36.47,0.35 C41.6566667,0.35 44.25,2.68333333 44.25,7.35 C44.3626327,9.274863 43.6540113,11.157252 42.3,12.53 C41,13.7633333 39.0533333,14.38 36.46,14.38 C31.28,14.38 28.69,12.0366667 28.69,7.35 Z M43.6,73.35 L29.3,73.35 L29.3,20.9 L43.6,20.9 L43.6,73.35 Z M14.3,73.3 L0,73.3 L0,0.37 L14.3,0.37 L14.3,73.3 Z"/>
</svg>
