<?xml version="1.0" encoding="UTF-8"?>
<svg width="50px" height="34px" viewBox="0 0 50 34" version="1.1" xmlns="http://www.w3.org/2000/svg" xmlns:xlink="http://www.w3.org/1999/xlink">
    <!-- Generator: Sketch 48.2 (47327) - http://www.bohemiancoding.com/sketch -->
    <title>sound_on</title>
    <desc>Created with Sketch.</desc>
    <defs></defs>
    <g id="Symbols" stroke="none" stroke-width="1" fill="none" fill-rule="evenodd">
        <g id="sound_on" fill="#FFFFFF">
            <g id="Page-1">
                <path d="M23.2373,0.1734 C22.7713,-0.0766 22.2073,-0.0546 21.7633,0.2354 L10.6233,7.5174 L3.2563,7.5174 C1.4583,7.5174 0.0003,8.9754 0.0003,10.7734 L0.0003,22.7824 C0.0003,24.5804 1.4583,26.0384 3.2563,26.0384 L10.6233,26.0384 L21.7633,33.3204 C22.0023,33.4774 22.2763,33.5554 22.5513,33.5554 C22.7873,33.5554 23.0223,33.4984 23.2373,33.3824 C23.7023,33.1304 23.9923,32.6444 23.9923,32.1154 L23.9923,1.4404 C23.9923,0.9114 23.7023,0.4254 23.2373,0.1734" id="Fill-1"></path>
                <path d="M32.3623,33.5557 C31.5663,33.5557 30.9223,32.9107 30.9223,32.1157 C30.9223,31.3197 31.5663,30.6747 32.3623,30.6747 C40.0243,30.6747 46.2583,24.4407 46.2583,16.7777 C46.2583,9.1157 40.0243,2.8807 32.3623,2.8807 C31.5663,2.8807 30.9223,2.2357 30.9223,1.4407 C30.9223,0.6447 31.5663,-0.0003 32.3623,-0.0003 C41.6133,-0.0003 49.1393,7.5267 49.1393,16.7777 C49.1393,26.0297 41.6133,33.5557 32.3623,33.5557" id="Fill-3"></path>
                <path d="M32.8623,26.5313 C32.0663,26.5313 31.4223,25.8863 31.4223,25.0913 C31.4223,24.2953 32.0663,23.6503 32.8623,23.6503 C36.6513,23.6503 39.7343,20.5673 39.7343,16.7783 C39.7343,12.9883 36.6513,9.9053 32.8623,9.9053 C32.0663,9.9053 31.4223,9.2603 31.4223,8.4653 C31.4223,7.6693 32.0663,7.0243 32.8623,7.0243 C38.2403,7.0243 42.6153,11.4003 42.6153,16.7783 C42.6153,22.1563 38.2403,26.5313 32.8623,26.5313" id="Fill-5"></path>
            </g>
        </g>
    </g>
</svg>