<?xml version="1.0" encoding="UTF-8"?>
<svg width="44px" height="35px" viewBox="0 0 44 35" version="1.1" xmlns="http://www.w3.org/2000/svg" xmlns:xlink="http://www.w3.org/1999/xlink">
    <!-- Generator: Sketch 48.2 (47327) - http://www.bohemiancoding.com/sketch -->
    <title>sound_off</title>
    <desc>Created with Sketch.</desc>
    <defs>
        <polygon id="path-1" points="0.0004 0.445 23.9924 0.445 23.9924 33.9997 0.0004 33.9997"></polygon>
        <polygon id="path-3" points="0.5684 0.7729 13.468 0.7729 13.468 13.6724 0.5684 13.6724"></polygon>
    </defs>
    <g id="Symbols" stroke="none" stroke-width="1" fill="none" fill-rule="evenodd">
        <g id="sound_off">
            <g id="Page-1">
                <g id="Group-3" transform="translate(0.000000, 0.555300)">
                    <mask id="mask-2" fill="white">
                        <use xlink:href="#path-1"></use>
                    </mask>
                    <g id="Clip-2"></g>
                    <path d="M23.2374,0.6177 C22.7714,0.3677 22.2074,0.3897 21.7634,0.6797 L10.6234,7.9617 L3.2554,7.9617 C1.4574,7.9617 0.0004,9.4197 0.0004,11.2177 L0.0004,23.2267 C0.0004,25.0247 1.4574,26.4827 3.2554,26.4827 L10.6234,26.4827 L21.7634,33.7647 C22.0024,33.9217 22.2764,33.9997 22.5514,33.9997 C22.7874,33.9997 23.0224,33.9427 23.2374,33.8267 C23.7024,33.5747 23.9924,33.0887 23.9924,32.5597 L23.9924,1.8847 C23.9924,1.3557 23.7024,0.8697 23.2374,0.6177" id="Fill-1" fill="#FFFFFF" mask="url(#mask-2)"></path>
                </g>
                <g id="Group-6" transform="translate(30.000000, 10.555300)">
                    <mask id="mask-4" fill="white">
                        <use xlink:href="#path-3"></use>
                    </mask>
                    <g id="Clip-5"></g>
                    <path d="M2.0089,13.6724 C1.6399,13.6724 1.2719,13.5314 0.9899,13.2504 C0.4279,12.6884 0.4279,11.7764 0.9899,11.2134 L11.0089,1.1944 C11.5719,0.6324 12.4839,0.6324 13.0459,1.1944 C13.6089,1.7574 13.6089,2.6694 13.0459,3.2324 L3.0279,13.2504 C2.7459,13.5314 2.3779,13.6724 2.0089,13.6724" id="Fill-4" fill="#FFFFFF" mask="url(#mask-4)"></path>
                </g>
                <path d="M42.0275,24.2277 C41.6585,24.2277 41.2905,24.0867 41.0085,23.8057 L30.9905,13.7877 C30.4275,13.2247 30.4275,12.3127 30.9905,11.7497 C31.5525,11.1877 32.4645,11.1877 33.0275,11.7497 L43.0465,21.7687 C43.6085,22.3317 43.6085,23.2437 43.0465,23.8057 C42.7645,24.0867 42.3965,24.2277 42.0275,24.2277" id="Fill-7" fill="#FFFFFF"></path>
            </g>
        </g>
    </g>
</svg>