<svg xmlns="http://www.w3.org/2000/svg" width="347" height="347" viewBox="0 0 347 347">
  <g fill="none" transform="translate(124 40)">
    <path fill="#FF674A" d="M94.6168691,2.28727605 C76.8869689,2.28727605 63.2615887,9.0881961 54.9091686,14.8084162 C53.2164286,13.5629362 51.1449086,12.8032362 48.8829286,12.8032362 C46.6166685,12.8032362 44.5472885,13.5629362 42.8545485,14.8084162 C34.5021284,9.0881961 20.8767482,2.28727605 3.14684803,2.28727605 C3.14684803,2.28727605 2.21594801,29.4866764 38.8848485,25.1317763 C39.8585485,29.7627364 43.9609285,33.2423764 48.8829286,33.2423764 C53.8027886,33.2423764 57.9051687,29.7627364 58.8767287,25.1317763 C95.5456291,29.4866764 94.6168691,2.28727605 94.6168691,2.28727605"/>
    <path fill="#2C00B9" d="M84.999495,18.1367442 C79.5660349,22.4809443 71.6030948,24.1929443 61.2262347,23.2534843 C61.2454947,23.1678843 61.2454947,23.1015443 61.2454947,23.0159443 C61.2454947,22.2241443 61.1812947,21.4772843 61.0100947,20.7261443 C65.5468948,19.1639442 70.8562348,17.7964842 75.2860349,17.9441442 C76.3966949,18.0297442 77.4474349,17.0667442 77.4880949,15.8683442 C77.5308949,14.6934842 76.6106949,13.7090842 75.4336949,13.6641442 C70.3212348,13.4522842 64.3912948,14.9502842 59.4500347,16.6622842 C59.1482947,16.1272842 58.7844947,15.6115442 58.3800347,15.1214842 C66.1910348,10.1973441 77.8112349,4.97788407 92.3396951,4.46214406 C91.9544951,7.6314841 90.4992951,13.7283442 84.999495,18.1367442 M48.8762946,31.1072844 C45.8374945,31.1072844 43.1860345,29.4166844 41.7950345,26.9128843 C41.1744345,25.7572843 40.8106345,24.4283443 40.8106345,23.0159443 C40.8106345,22.9089443 40.8106345,22.8233443 40.8298945,22.7184843 C40.8298945,22.0315443 40.9582945,21.3702843 41.1508945,20.7261443 C41.4932945,19.5277442 42.1160345,18.4384842 42.9698945,17.5396842 C43.1196945,17.3470842 43.3144345,17.1758842 43.5048945,17.0046842 C44.5106945,16.1058842 45.7304945,15.4617442 47.0786945,15.1621442 C47.6586346,15.0123442 48.2556946,14.9502842 48.8762946,14.9502842 C49.4968946,14.9502842 50.0960946,15.0123442 50.6760346,15.1621442 C52.2810346,15.5259442 53.7148346,16.3605442 54.8062346,17.5396842 C54.9966946,17.7515442 55.1892946,17.9655442 55.3412346,18.2009442 C56.2186347,19.3565442 56.7750347,20.7261443 56.9248347,22.2241443 C56.9462347,22.3953443 56.9462347,22.5472843 56.9462347,22.7184843 C56.9654947,22.8233443 56.9654947,22.9089443 56.9654947,23.0159443 C56.9654947,24.4283443 56.6016947,25.7572843 55.9596947,26.9128843 C54.5900946,29.4166844 51.9150946,31.1072844 48.8762946,31.1072844 M12.7958941,18.1602842 C7.29609407,13.7946842 5.81949406,7.6528841 5.43429405,4.46214406 C19.9648942,4.97788407 31.5850944,10.1973441 39.3960945,15.1214842 C39.2698345,15.2691442 39.1606945,15.4189442 39.0536945,15.5708842 C34.9662944,14.3917442 30.5600344,13.5378842 26.6010343,13.6641442 C25.4218943,13.7090842 24.5016943,14.6934842 24.5444943,15.8683442 C24.5894343,17.0667442 25.6358943,18.0511442 26.7700943,17.9441442 C29.9586943,17.8178842 33.5966944,18.4791442 37.0656344,19.4421442 C36.7210944,20.5784843 36.5306344,21.7747443 36.5306344,23.0159443 C36.5306344,23.0822843 36.5306344,23.1678843 36.5498944,23.2320843 C26.2136943,24.1929443 18.2550342,22.4809443 12.7958941,18.1602842 M96.7480951,2.21728404 C96.7074351,1.06168402 95.7636951,0.14148401 94.6080951,0.14148401 C77.0836349,0.14148401 63.4924947,6.49728409 54.8254946,12.2089442 C53.0706946,11.2266841 51.0398346,10.6702841 48.8762946,10.6702841 C46.7148945,10.6702841 44.7032945,11.2266841 42.9270945,12.2089442 C34.2600944,6.49728409 20.6710942,0.14148401 3.14449403,0.14148401 C1.99103401,0.14148401 1.049434,1.06168402 1.004494,2.21728404 C0.983094,2.68594404 0.704893996,13.9872842 10.0780941,21.4772843 C15.3424942,25.6716843 22.4258943,27.7667443 31.2854944,27.7667443 C33.2350344,27.7667443 35.2444944,27.6597443 37.3630944,27.4478843 C39.1392945,32.0916844 43.6332945,35.3872844 48.8762946,35.3872844 C54.1406946,35.3872844 58.6346947,32.0916844 60.4108947,27.4478843 C62.5294947,27.6597443 64.5410948,27.7667443 66.4906348,27.7667443 C75.3480949,27.7667443 82.433635,25.6716843 87.674495,21.4772843 C97.0498351,13.9872842 96.7694951,2.68594404 96.7480951,2.21728404"/>
  </g>
</svg>
