<svg xmlns="http://www.w3.org/2000/svg" width="347" height="347" viewBox="0 0 347 347">
  <path fill="#2C00B9" d="M98.4639458,4.41973995 C90.9161659,4.41973995 84.7765059,10.5593999 84.7765059,18.1071798 L84.7765059,35.5845596 C84.7765059,43.1323395 90.9161659,49.2719995 98.4639458,49.2719995 L137.961925,49.2719995 C145.509705,49.2719995 151.651505,43.1323395 151.651505,35.5845596 L151.651505,18.1071798 C151.651505,10.5593999 145.509705,4.41973995 137.961925,4.41973995 L98.4639458,4.41973995 Z M137.961925,53.5519994 L98.4639458,53.5519994 C88.5557459,53.5519994 80.496506,45.4906195 80.496506,35.5845596 L80.496506,18.1071798 C80.496506,8.20111991 88.5557459,0.139739999 98.4639458,0.139739999 L137.961925,0.139739999 C147.870125,0.139739999 155.931505,8.20111991 155.931505,18.1071798 L155.931505,35.5845596 C155.931505,45.4906195 147.870125,53.5519994 137.961925,53.5519994 Z M58.4664894,53.5519994 L18.9663698,53.5519994 C9.06030991,53.5519994 0.99893,45.4906195 0.99893,35.5845596 L0.99893,18.1071798 C0.99893,8.20111991 9.06030991,0.139739999 18.9663698,0.139739999 L58.4664894,0.139739999 C68.3746893,0.139739999 76.4339292,8.20111991 76.4339292,18.1071798 L76.4339292,35.5845596 C76.4339292,45.4906195 68.3746893,53.5519994 58.4664894,53.5519994 Z M18.9663698,4.41973995 C11.4207299,4.41973995 5.27892995,10.5593999 5.27892995,18.1071798 L5.27892995,35.5845596 C5.27892995,43.1323395 11.4207299,49.2719995 18.9663698,49.2719995 L58.4664894,49.2719995 C66.0142693,49.2719995 72.1539292,43.1323395 72.1539292,35.5845596 L72.1539292,18.1071798 C72.1539292,10.5593999 66.0142693,4.41973995 58.4664894,4.41973995 L18.9663698,4.41973995 Z" transform="translate(94 106)"/>
</svg>
