<?xml version="1.0" encoding="UTF-8"?>
<svg width="67px" height="67px" viewBox="0 0 67 67" version="1.1" xmlns="http://www.w3.org/2000/svg" xmlns:xlink="http://www.w3.org/1999/xlink">
    <!-- Generator: Sketch 48.2 (47327) - http://www.bohemiancoding.com/sketch -->
    <title>emojis_waou</title>
    <desc>Created with Sketch.</desc>
    <defs></defs>
    <g id="Symbols" stroke="none" stroke-width="1" fill="none" fill-rule="evenodd">
        <g id="emojis_waou">
            <g id="Page-1">
                <path d="M56.0957,64.3687 L2.4997,64.3687 L2.4997,10.7727 C2.4997,6.2037 6.2027,2.4997 10.7727,2.4997 L56.0957,2.4997 C60.6637,2.4997 64.3677,6.2037 64.3677,10.7727 L64.3677,56.0967 C64.3677,60.6647 60.6637,64.3687 56.0957,64.3687" id="Fill-1" fill="#FFFFFF"></path>
                <path d="M5,61.8687 L56.096,61.8687 C59.278,61.8687 61.868,59.2797 61.868,56.0967 L61.868,10.7727 C61.868,7.5897 59.278,4.9997 56.096,4.9997 L10.772,4.9997 C7.59,4.9997 5,7.5897 5,10.7727 L5,61.8687 Z M56.096,66.8687 L0,66.8687 L0,10.7727 C0,4.8327 4.832,-0.0003 10.772,-0.0003 L56.096,-0.0003 C62.036,-0.0003 66.868,4.8327 66.868,10.7727 L66.868,56.0967 C66.868,62.0357 62.036,66.8687 56.096,66.8687 Z" id="Fill-3" fill="#3F57FF"></path>
                <path d="M23.4961,25.5572 C23.4961,27.1932 20.1531,28.5202 16.0301,28.5202 C11.9061,28.5202 8.5631,27.1932 8.5631,25.5572 C8.5631,23.9202 11.9061,22.5942 16.0301,22.5942 C20.1531,22.5942 23.4961,23.9202 23.4961,25.5572" id="Fill-5" fill="#8896FB"></path>
                <path d="M58.3037,25.5572 C58.3037,27.1932 54.9607,28.5202 50.8377,28.5202 C46.7137,28.5202 43.3707,27.1932 43.3707,25.5572 C43.3707,23.9202 46.7137,22.5942 50.8377,22.5942 C54.9607,22.5942 58.3037,23.9202 58.3037,25.5572" id="Fill-7" fill="#8896FB"></path>
                <path d="M16.0303,54.9424 C16.0303,42.9434 20.6453,23.5214 33.4333,23.5214 C46.2213,23.5214 50.8383,42.9434 50.8383,54.9424 C39.3703,57.2944 27.4973,57.2944 16.0303,54.9424" id="Fill-9" fill="#FFFFFF"></path>
                <path d="M17.5449,53.7129 C17.7029,47.2579 19.0859,40.4699 21.3129,35.3279 C21.9449,33.8669 22.7449,32.3179 23.7359,30.8789 C27.0199,32.0859 30.4709,32.6919 33.9249,32.6919 C37.0959,32.6919 40.2629,32.1619 43.3049,31.1429 C44.2139,32.5079 44.9599,33.9559 45.5549,35.3289 C47.7809,40.4699 49.1649,47.2579 49.3229,53.7129 C38.7729,55.7209 28.0959,55.7209 17.5449,53.7129 M41.3039,28.6259 C36.2289,30.0949 30.8219,30.0119 25.7879,28.3889 C27.7699,26.4119 30.2819,25.0209 33.4339,25.0209 C36.7079,25.0209 39.2889,26.5259 41.3039,28.6259 M48.3079,34.1359 C44.8749,26.2109 39.7319,22.0209 33.4339,22.0209 C27.1359,22.0209 21.9919,26.2109 18.5599,34.1359 C16.0369,39.9629 14.5299,47.7409 14.5299,54.9419 C14.5299,55.6549 15.0309,56.2689 15.7289,56.4119 C21.6039,57.6169 27.5179,58.2189 33.4339,58.2189 C39.3489,58.2189 45.2659,57.6169 51.1399,56.4119 C51.8369,56.2689 52.3379,55.6549 52.3379,54.9419 C52.3379,47.7409 50.8309,39.9629 48.3079,34.1359" id="Fill-11" fill="#3F57FF"></path>
                <path d="M55.8389,19.4766 L50.2509,24.0186 C49.5599,24.5806 48.5319,24.4086 48.0609,23.6536 L44.1729,17.4286 C43.1279,15.7556 43.0329,13.6586 43.9239,11.8976 C44.8189,10.1266 47.2419,9.8656 48.4939,11.4056 L50.2949,13.6196 C50.5559,13.9396 51.0239,13.9986 51.3569,13.7516 L53.4659,12.1856 C55.1019,10.9716 57.4429,11.9026 57.7979,13.9096 L57.8349,14.1216 C58.1919,16.1366 57.4269,18.1856 55.8389,19.4766" id="Fill-13" fill="#FF674A"></path>
                <path d="M11.0283,19.4766 L16.6173,24.0186 C17.3083,24.5806 18.3363,24.4086 18.8073,23.6536 L22.6943,17.4286 C23.7393,15.7556 23.8343,13.6586 22.9443,11.8976 C22.0493,10.1266 19.6253,9.8656 18.3733,11.4056 L16.5723,13.6196 C16.3113,13.9396 15.8433,13.9986 15.5113,13.7516 L13.4013,12.1856 C11.7653,10.9716 9.4243,11.9026 9.0693,13.9096 L9.0323,14.1216 C8.6753,16.1366 9.4403,18.1856 11.0283,19.4766" id="Fill-15" fill="#FF674A"></path>
            </g>
        </g>
    </g>
</svg>