<svg xmlns="http://www.w3.org/2000/svg" width="67" height="74" viewBox="0 0 67 74">
  <g fill="none" transform="translate(0 7)">
    <path fill="#FFF" d="M56.0957,64.3687 L2.4997,64.3687 L2.4997,10.7727 C2.4997,6.2037 6.2027,2.4997 10.7727,2.4997 L56.0957,2.4997 C60.6637,2.4997 64.3677,6.2037 64.3677,10.7727 L64.3677,56.0967 C64.3677,60.6647 60.6637,64.3687 56.0957,64.3687"/>
    <path fill="#8896FB" d="M23.4961,25.5572 C23.4961,27.1932 20.1531,28.5202 16.0301,28.5202 C11.9061,28.5202 8.5631,27.1932 8.5631,25.5572 C8.5631,23.9202 11.9061,22.5942 16.0301,22.5942 C20.1531,22.5942 23.4961,23.9202 23.4961,25.5572 Z M58.3037,25.5572 C58.3037,27.1932 54.9607,28.5202 50.8377,28.5202 C46.7137,28.5202 43.3707,27.1932 43.3707,25.5572 C43.3707,23.9202 46.7137,22.5942 50.8377,22.5942 C54.9607,22.5942 58.3037,23.9202 58.3037,25.5572 Z"/>
    <path fill="#3F57FF" d="M56.096,66.8687 L0,66.8687 L0,10.7727 C0,4.8327 4.832,-0.0003 10.772,-0.0003 L56.096,-0.0003 C62.036,-0.0003 66.868,4.8327 66.868,10.7727 L66.868,56.0967 C66.868,62.0357 62.036,66.8687 56.096,66.8687 Z M5,61.8687 L56.096,61.8687 C59.278,61.8687 61.868,59.2797 61.868,56.0967 L61.868,10.7727 C61.868,7.5897 59.278,4.9997 56.096,4.9997 L10.772,4.9997 C7.59,4.9997 5,7.5897 5,10.7727 L5,61.8687 Z M48.3079,34.1359 C50.8309,39.9629 52.3379,47.7409 52.3379,54.9419 C52.3379,55.6549 51.8369,56.2689 51.1399,56.4119 C45.2659,57.6169 39.3489,58.2189 33.4339,58.2189 C27.5179,58.2189 21.6039,57.6169 15.7289,56.4119 C15.0309,56.2689 14.5299,55.6549 14.5299,54.9419 C14.5299,47.7409 16.0369,39.9629 18.5599,34.1359 C21.9919,26.2109 27.1359,22.0209 33.4339,22.0209 C39.7319,22.0209 44.8749,26.2109 48.3079,34.1359 Z M17.5449,53.7129 C28.0959,55.7209 38.7729,55.7209 49.3229,53.7129 C49.1649,47.2579 47.7809,40.4699 45.5549,35.3289 C44.9599,33.9559 44.2139,32.5079 43.3049,31.1429 C40.2629,32.1619 37.0959,32.6919 33.9249,32.6919 C30.4709,32.6919 27.0199,32.0859 23.7359,30.8789 C22.7449,32.3179 21.9449,33.8669 21.3129,35.3279 C19.0859,40.4699 17.7029,47.2579 17.5449,53.7129 Z M41.3039,28.6259 C39.2889,26.5259 36.7079,25.0209 33.4339,25.0209 C30.2819,25.0209 27.7699,26.4119 25.7879,28.3889 C30.8219,30.0119 36.2289,30.0949 41.3039,28.6259 Z"/>
    <path fill="#FF674A" d="M55.8389,19.4766 L50.2509,24.0186 C49.5599,24.5806 48.5319,24.4086 48.0609,23.6536 L44.1729,17.4286 C43.1279,15.7556 43.0329,13.6586 43.9239,11.8976 C44.8189,10.1266 47.2419,9.8656 48.4939,11.4056 L50.2949,13.6196 C50.5559,13.9396 51.0239,13.9986 51.3569,13.7516 L53.4659,12.1856 C55.1019,10.9716 57.4429,11.9026 57.7979,13.9096 L57.8349,14.1216 C58.1919,16.1366 57.4269,18.1856 55.8389,19.4766 Z M11.0283,19.4766 C9.4403,18.1856 8.6753,16.1366 9.0323,14.1216 L9.0693,13.9096 C9.4243,11.9026 11.7653,10.9716 13.4013,12.1856 L15.5113,13.7516 C15.8433,13.9986 16.3113,13.9396 16.5723,13.6196 L18.3733,11.4056 C19.6253,9.8656 22.0493,10.1266 22.9443,11.8976 C23.8343,13.6586 23.7393,15.7556 22.6943,17.4286 L18.8073,23.6536 C18.3363,24.4086 17.3083,24.5806 16.6173,24.0186 L11.0283,19.4766 Z"/>
  </g>
</svg>
