<svg xmlns="http://www.w3.org/2000/svg" width="67" height="74" viewBox="0 0 67 74">
  <g fill="none" transform="translate(0 7)">
    <path fill="#FFF" d="M56.0957,64.3687 L2.4997,64.3687 L2.4997,10.7727 C2.4997,6.2037 6.2037,2.4997 10.7727,2.4997 L56.0957,2.4997 C60.6647,2.4997 64.3677,6.2037 64.3677,10.7727 L64.3677,56.0967 C64.3677,60.6647 60.6647,64.3687 56.0957,64.3687"/>
    <path fill="#FF674A" d="M23.4971,32.4341 C23.4971,34.0711 20.1541,35.3971 16.0301,35.3971 C11.9071,35.3971 8.5631,34.0711 8.5631,32.4341 C8.5631,30.7981 11.9071,29.4711 16.0301,29.4711 C20.1541,29.4711 23.4971,30.7981 23.4971,32.4341 Z M58.3047,32.4341 C58.3047,34.0711 54.9617,35.3971 50.8377,35.3971 C46.7137,35.3971 43.3707,34.0711 43.3707,32.4341 C43.3707,30.7981 46.7137,29.4711 50.8377,29.4711 C54.9617,29.4711 58.3047,30.7981 58.3047,32.4341 Z"/>
    <path fill="#3F57FF" d="M56.096,66.8687 L-3.55271368e-15,66.8687 L-3.55271368e-15,10.7727 C-3.55271368e-15,4.8327 4.832,-0.0003 10.772,-0.0003 L56.096,-0.0003 C62.036,-0.0003 66.868,4.8327 66.868,10.7727 L66.868,56.0967 C66.868,62.0357 62.036,66.8687 56.096,66.8687 Z M5,61.8687 L56.096,61.8687 C59.278,61.8687 61.868,59.2797 61.868,56.0967 L61.868,10.7727 C61.868,7.5897 59.278,4.9997 56.096,4.9997 L10.772,4.9997 C7.59,4.9997 5,7.5897 5,10.7727 L5,61.8687 Z M43.3711,35.8306 C44.1991,35.8306 44.8711,36.5016 44.8711,37.3306 C44.8711,43.6396 42.0901,48.3966 38.4021,48.3966 C36.3611,48.3966 34.6011,46.9356 33.4341,44.5656 C32.2671,46.9356 30.5061,48.3966 28.4661,48.3966 C24.7781,48.3966 21.9971,43.6396 21.9971,37.3306 C21.9971,36.5016 22.6691,35.8306 23.4971,35.8306 C24.3251,35.8306 24.9971,36.5016 24.9971,37.3306 C24.9971,41.8736 26.8611,45.3966 28.4661,45.3966 C30.0701,45.3966 31.9341,41.8736 31.9341,37.3306 C31.9341,36.5016 32.6061,35.8306 33.4341,35.8306 C34.2631,35.8306 34.9341,36.5016 34.9341,37.3306 C34.9341,41.8736 36.7991,45.3966 38.4021,45.3966 C40.0071,45.3966 41.8711,41.8736 41.8711,37.3306 C41.8711,36.5016 42.5431,35.8306 43.3711,35.8306 Z M56.8262,24.0303 C56.8262,28.1803 53.4622,31.5453 49.3112,31.5453 C45.1612,31.5453 41.7972,28.1803 41.7972,24.0303 C41.7972,19.8803 45.1612,16.5153 49.3112,16.5153 C53.4622,16.5153 56.8262,19.8803 56.8262,24.0303 Z M25.6504,24.0303 C25.6504,28.1803 22.2864,31.5453 18.1354,31.5453 C13.9854,31.5453 10.6214,28.1803 10.6214,24.0303 C10.6214,19.8803 13.9854,16.5153 18.1354,16.5153 C22.2864,16.5153 25.6504,19.8803 25.6504,24.0303 Z"/>
    <path fill="#FFF" d="M53.0615,21.0621 C53.0615,22.4421 51.9415,23.5621 50.5615,23.5621 C49.1805,23.5621 48.0615,22.4421 48.0615,21.0621 C48.0615,19.6811 49.1805,18.5621 50.5615,18.5621 C51.9415,18.5621 53.0615,19.6811 53.0615,21.0621 Z M54.8506,26.0181 C54.8506,26.8561 54.1706,27.5361 53.3316,27.5361 C52.4936,27.5361 51.8136,26.8561 51.8136,26.0181 C51.8136,25.1801 52.4936,24.5001 53.3316,24.5001 C54.1706,24.5001 54.8506,25.1801 54.8506,26.0181 Z M21.8857,21.0621 C21.8857,22.4421 20.7667,23.5621 19.3857,23.5621 C18.0047,23.5621 16.8857,22.4421 16.8857,21.0621 C16.8857,19.6811 18.0047,18.5621 19.3857,18.5621 C20.7667,18.5621 21.8857,19.6811 21.8857,21.0621 Z M23.6748,26.0181 C23.6748,26.8561 22.9948,27.5361 22.1558,27.5361 C21.3188,27.5361 20.6378,26.8561 20.6378,26.0181 C20.6378,25.1801 21.3188,24.5001 22.1558,24.5001 C22.9948,24.5001 23.6748,25.1801 23.6748,26.0181 Z"/>
  </g>
</svg>
