<?xml version="1.0" encoding="UTF-8"?>
<svg width="67px" height="67px" viewBox="0 0 67 67" version="1.1" xmlns="http://www.w3.org/2000/svg" xmlns:xlink="http://www.w3.org/1999/xlink">
    <!-- Generator: Sketch 48.2 (47327) - http://www.bohemiancoding.com/sketch -->
    <title>emojis_mmh</title>
    <desc>Created with Sketch.</desc>
    <defs></defs>
    <g id="Symbols" stroke="none" stroke-width="1" fill="none" fill-rule="evenodd">
        <g id="emojis_mmh">
            <g id="Page-1">
                <path d="M56.0967,64.3687 L2.4997,64.3687 L2.4997,10.7727 C2.4997,6.2037 6.2037,2.4997 10.7737,2.4997 L56.0967,2.4997 C60.6647,2.4997 64.3687,6.2037 64.3687,10.7727 L64.3687,56.0967 C64.3687,60.6647 60.6647,64.3687 56.0967,64.3687" id="Fill-1" fill="#FFFFFF"></path>
                <path d="M5,61.8687 L56.097,61.8687 C59.279,61.8687 61.869,59.2797 61.869,56.0967 L61.869,10.7727 C61.869,7.5897 59.279,4.9997 56.097,4.9997 L10.773,4.9997 C7.59,4.9997 5,7.5897 5,10.7727 L5,61.8687 Z M56.097,66.8687 L0,66.8687 L0,10.7727 C0,4.8327 4.833,-0.0003 10.773,-0.0003 L56.097,-0.0003 C62.037,-0.0003 66.869,4.8327 66.869,10.7727 L66.869,56.0967 C66.869,62.0357 62.037,66.8687 56.097,66.8687 Z" id="Fill-3" fill="#3F57FF"></path>
                <path d="M23.4971,23.4346 C23.4971,25.0706 20.1541,26.3976 16.0311,26.3976 C11.9071,26.3976 8.5641,25.0706 8.5641,23.4346 C8.5641,21.7976 11.9071,20.4716 16.0311,20.4716 C20.1541,20.4716 23.4971,21.7976 23.4971,23.4346" id="Fill-5" fill="#FF674A"></path>
                <path d="M58.3047,23.4346 C58.3047,25.0706 54.9617,26.3976 50.8387,26.3976 C46.7147,26.3976 43.3717,25.0706 43.3717,23.4346 C43.3717,21.7976 46.7147,20.4716 50.8387,20.4716 C54.9617,20.4716 58.3047,21.7976 58.3047,23.4346" id="Fill-7" fill="#FF674A"></path>
                <path d="M33.7891,32.7642 C31.2071,32.7642 28.6261,32.2772 26.1741,31.3032 L25.6711,31.1032 C24.9011,30.7972 24.5241,29.9252 24.8301,29.1552 C25.1371,28.3852 26.0091,28.0092 26.7781,28.3152 L27.2811,28.5142 C31.4051,30.1532 35.9601,30.1802 40.1081,28.5892 C40.8801,28.2932 41.7501,28.6782 42.0461,29.4522 C42.3431,30.2252 41.9561,31.0932 41.1831,31.3902 C38.7961,32.3062 36.2921,32.7642 33.7891,32.7642" id="Fill-9" fill="#3F57FF"></path>
                <path d="M20.1494,16.9336 C20.1494,19.4596 18.1014,21.5076 15.5764,21.5076 C13.0494,21.5076 11.0034,19.4596 11.0034,16.9336 C11.0034,14.4086 13.0494,12.3606 15.5764,12.3606 C18.1014,12.3606 20.1494,14.4086 20.1494,16.9336" id="Fill-11" fill="#3F57FF"></path>
                <path d="M56.0166,16.9336 C56.0166,19.4596 53.9686,21.5076 51.4436,21.5076 C48.9166,21.5076 46.8696,19.4596 46.8696,16.9336 C46.8696,14.4086 48.9166,12.3606 51.4436,12.3606 C53.9686,12.3606 56.0166,14.4086 56.0166,16.9336" id="Fill-13" fill="#3F57FF"></path>
            </g>
        </g>
    </g>
</svg>