<svg xmlns="http://www.w3.org/2000/svg" width="67" height="74" viewBox="0 0 67 74">
  <g fill="none" transform="translate(0 7)">
    <path fill="#FFF" d="M56.0967,64.3687 L2.4997,64.3687 L2.4997,10.7727 C2.4997,6.2037 6.2037,2.4997 10.7727,2.4997 L56.0967,2.4997 C60.6647,2.4997 64.3687,6.2037 64.3687,10.7727 L64.3687,56.0967 C64.3687,60.6647 60.6647,64.3687 56.0967,64.3687"/>
    <path fill="#FF674A" d="M51.1494,22.6426 C51.1494,24.2796 47.8054,25.6056 43.6824,25.6056 C39.5584,25.6056 36.2154,24.2796 36.2154,22.6426 C36.2154,21.0066 39.5584,19.6796 43.6824,19.6796 C47.8054,19.6796 51.1494,21.0066 51.1494,22.6426 Z M22.6533,22.6426 C22.6533,24.2796 19.3103,25.6056 15.1863,25.6056 C11.0633,25.6056 7.7193,24.2796 7.7193,22.6426 C7.7193,21.0066 11.0633,19.6796 15.1863,19.6796 C19.3103,19.6796 22.6533,21.0066 22.6533,22.6426 Z"/>
    <path fill="#3F57FF" d="M56.097,66.8687 L0,66.8687 L0,10.7727 C0,4.8327 4.832,-0.0003 10.772,-0.0003 L56.097,-0.0003 C62.037,-0.0003 66.869,4.8327 66.869,10.7727 L66.869,56.0967 C66.869,62.0357 62.037,66.8687 56.097,66.8687 Z M5,61.8687 L56.097,61.8687 C59.279,61.8687 61.869,59.2797 61.869,56.0967 L61.869,10.7727 C61.869,7.5897 59.279,4.9997 56.097,4.9997 L10.772,4.9997 C7.59,4.9997 5,7.5897 5,10.7727 L5,61.8687 Z M19.7607,12.2242 C19.7607,14.7502 17.7127,16.7982 15.1867,16.7982 C12.6607,16.7982 10.6137,14.7502 10.6137,12.2242 C10.6137,9.6982 12.6607,7.6502 15.1867,7.6502 C17.7127,7.6502 19.7607,9.6982 19.7607,12.2242 Z M40.79,12.2242 C40.79,14.7502 38.742,16.7982 36.216,16.7982 C33.69,16.7982 31.643,14.7502 31.643,12.2242 C31.643,9.6982 33.69,7.6502 36.216,7.6502 C38.742,7.6502 40.79,9.6982 40.79,12.2242 Z M45.4932,38.4444 C44.8532,38.4444 44.2612,38.0324 44.0602,37.3894 C44.0472,37.3464 42.5102,32.6334 39.0042,32.6334 C38.3082,32.6334 37.7522,32.8524 37.3012,33.3004 C36.6242,33.9734 36.4082,34.9224 36.4062,34.9314 C36.2282,35.7364 35.4362,36.2554 34.6282,36.0804 C33.8222,35.9094 33.3052,35.1274 33.4692,34.3204 C33.5062,34.1354 33.8742,32.4774 35.1852,31.1734 C36.1982,30.1664 37.5182,29.6334 39.0042,29.6334 C44.7232,29.6334 46.8382,36.2174 46.9262,36.4984 C47.1722,37.2894 46.7292,38.1304 45.9382,38.3764 C45.7902,38.4224 45.6402,38.4444 45.4932,38.4444 Z"/>
  </g>
</svg>
