<?xml version="1.0" encoding="UTF-8"?>
<svg width="67px" height="67px" viewBox="0 0 67 67" version="1.1" xmlns="http://www.w3.org/2000/svg" xmlns:xlink="http://www.w3.org/1999/xlink">
    <!-- Generator: Sketch 48.2 (47327) - http://www.bohemiancoding.com/sketch -->
    <title>emojis_haha</title>
    <desc>Created with Sketch.</desc>
    <defs></defs>
    <g id="Symbols" stroke="none" stroke-width="1" fill="none" fill-rule="evenodd">
        <g id="emojis_haha">
            <g id="Page-1">
                <path d="M56.0967,64.3687 L2.4997,64.3687 L2.4997,10.7727 C2.4997,6.2037 6.2037,2.4997 10.7727,2.4997 L56.0967,2.4997 C60.6647,2.4997 64.3687,6.2037 64.3687,10.7727 L64.3687,56.0967 C64.3687,60.6647 60.6647,64.3687 56.0967,64.3687" id="Fill-1" fill="#FFFFFF"></path>
                <path d="M5,61.8687 L56.097,61.8687 C59.279,61.8687 61.869,59.2797 61.869,56.0967 L61.869,10.7727 C61.869,7.5897 59.279,4.9997 56.097,4.9997 L10.772,4.9997 C7.59,4.9997 5,7.5897 5,10.7727 L5,61.8687 Z M56.097,66.8687 L0,66.8687 L0,10.7727 C0,4.8327 4.832,-0.0003 10.772,-0.0003 L56.097,-0.0003 C62.037,-0.0003 66.869,4.8327 66.869,10.7727 L66.869,56.0967 C66.869,62.0357 62.037,66.8687 56.097,66.8687 Z" id="Fill-3" fill="#3F57FF"></path>
                <path d="M23.4971,32.4341 C23.4971,34.0711 20.1541,35.3971 16.0311,35.3971 C11.9071,35.3971 8.5641,34.0711 8.5641,32.4341 C8.5641,30.7981 11.9071,29.4711 16.0311,29.4711 C20.1541,29.4711 23.4971,30.7981 23.4971,32.4341" id="Fill-5" fill="#FF674A"></path>
                <path d="M58.3047,32.4341 C58.3047,34.0711 54.9617,35.3971 50.8377,35.3971 C46.7147,35.3971 43.3717,34.0711 43.3717,32.4341 C43.3717,30.7981 46.7147,29.4711 50.8377,29.4711 C54.9617,29.4711 58.3047,30.7981 58.3047,32.4341" id="Fill-7" fill="#FF674A"></path>
                <path d="M10.1572,31.3453 C9.5592,31.3453 8.9942,30.9853 8.7612,30.3943 C8.4582,29.6243 8.8372,28.7533 9.6072,28.4493 L20.0112,24.3503 L9.6072,20.2513 C8.8372,19.9473 8.4582,19.0763 8.7612,18.3053 C9.0652,17.5333 9.9382,17.1573 10.7072,17.4603 L24.6522,22.9543 C25.2252,23.1803 25.6022,23.7343 25.6022,24.3503 C25.6022,24.9663 25.2252,25.5203 24.6522,25.7453 L10.7072,31.2403 C10.5262,31.3113 10.3412,31.3453 10.1572,31.3453" id="Fill-9" fill="#3F57FF"></path>
                <path d="M56.7119,31.3453 C56.5279,31.3453 56.3429,31.3113 56.1619,31.2403 L42.2169,25.7453 C41.6439,25.5203 41.2669,24.9663 41.2669,24.3503 C41.2669,23.7343 41.6439,23.1803 42.2169,22.9543 L56.1619,17.4603 C56.9329,17.1573 57.8039,17.5333 58.1079,18.3053 C58.4109,19.0763 58.0319,19.9473 57.2619,20.2513 L46.8579,24.3503 L57.2619,28.4493 C58.0319,28.7533 58.4109,29.6243 58.1079,30.3943 C57.8749,30.9853 57.3099,31.3453 56.7119,31.3453" id="Fill-11" fill="#3F57FF"></path>
                <path d="M53.7246,35.232 C53.7246,46.439 44.6406,55.523 33.4346,55.523 C22.2286,55.523 13.1446,46.439 13.1446,35.232 L53.7246,35.232 Z" id="Fill-13" fill="#FFFFFF"></path>
                <path d="M14.7041,36.732 C15.4711,46.395 23.5781,54.023 33.4341,54.023 C43.2911,54.023 51.3981,46.395 52.1651,36.732 L14.7041,36.732 Z M33.4341,57.023 C21.4201,57.023 11.6441,47.247 11.6441,35.232 C11.6441,34.403 12.3161,33.732 13.1441,33.732 L53.7251,33.732 C54.5531,33.732 55.2251,34.403 55.2251,35.232 C55.2251,47.247 45.4491,57.023 33.4341,57.023 Z" id="Fill-15" fill="#3F57FF"></path>
            </g>
        </g>
    </g>
</svg>