<svg xmlns="http://www.w3.org/2000/svg" width="67" height="74" viewBox="0 0 67 74">
  <g fill="none">
    <path fill="#FFF" d="M56.0957,71.0563 L2.4997,71.0563 L2.4997,17.4603 C2.4997,12.8913 6.2027,9.1873 10.7727,9.1873 L56.0957,9.1873 C60.6637,9.1873 64.3677,12.8913 64.3677,17.4603 L64.3677,62.7843 C64.3677,67.3523 60.6637,71.0563 56.0957,71.0563"/>
    <path fill="#8896FB" d="M23.4971,40.1217 C23.4971,41.7587 20.1541,43.0847 16.0301,43.0847 C11.9061,43.0847 8.5631,41.7587 8.5631,40.1217 C8.5631,38.4857 11.9061,37.1587 16.0301,37.1587 C20.1541,37.1587 23.4971,38.4857 23.4971,40.1217 Z M58.3037,40.1217 C58.3037,41.7587 54.9607,43.0847 50.8377,43.0847 C46.7137,43.0847 43.3707,41.7587 43.3707,40.1217 C43.3707,38.4857 46.7137,37.1587 50.8377,37.1587 C54.9607,37.1587 58.3037,38.4857 58.3037,40.1217 Z"/>
    <path fill="#3F57FF" d="M56.096,73.5563 L0,73.5563 L0,17.4603 C0,11.5203 4.832,6.6873 10.772,6.6873 L56.096,6.6873 C62.036,6.6873 66.868,11.5203 66.868,17.4603 L66.868,62.7843 C66.868,68.7233 62.036,73.5563 56.096,73.5563 Z M5,68.5563 L56.096,68.5563 C59.278,68.5563 61.868,65.9673 61.868,62.7843 L61.868,17.4603 C61.868,14.2773 59.278,11.6873 56.096,11.6873 L10.772,11.6873 C7.59,11.6873 5,14.2773 5,17.4603 L5,68.5563 Z M33.4337,63.4864 C25.3367,63.4864 18.7487,56.8984 18.7487,48.8014 C18.7487,47.9724 19.4207,47.3014 20.2487,47.3014 L46.6187,47.3014 C47.4477,47.3014 48.1187,47.9724 48.1187,48.8014 C48.1187,56.8984 41.5317,63.4864 33.4337,63.4864 Z M21.8447,50.3014 C22.5827,56.0384 27.4987,60.4864 33.4337,60.4864 C39.3687,60.4864 44.2847,56.0384 45.0237,50.3014 L21.8447,50.3014 Z M20.8799,31.8693 C20.8799,34.3953 18.8329,36.4423 16.3069,36.4423 C13.7809,36.4423 11.7339,34.3953 11.7339,31.8693 C11.7339,29.3433 13.7809,27.2953 16.3069,27.2953 C18.8329,27.2953 20.8799,29.3433 20.8799,31.8693 Z M55.1348,31.8693 C55.1348,34.3953 53.0868,36.4423 50.5608,36.4423 C48.0348,36.4423 45.9878,34.3953 45.9878,31.8693 C45.9878,29.3433 48.0348,27.2953 50.5608,27.2953 C53.0868,27.2953 55.1348,29.3433 55.1348,31.8693 Z"/>
    <path fill="#FF674A" d="M57.2959,10.3844 L50.7559,16.8654 C49.9459,17.6674 48.6179,17.5784 47.9229,16.6764 L42.1929,9.2434 C40.6539,7.2464 40.2709,4.5904 41.1819,2.2384 C42.0989,-0.1276 45.1499,-0.7646 46.9369,1.0374 L49.5049,3.6274 C49.8779,4.0034 50.4809,4.0194 50.8719,3.6634 L53.3599,1.4054 C55.2889,-0.3456 58.3859,0.5454 59.0889,3.0534 L59.1629,3.3194 C59.8689,5.8384 59.1539,8.5424 57.2959,10.3844"/>
  </g>
</svg>
