<?xml version="1.0" encoding="UTF-8"?>
<svg width="67px" height="75px" viewBox="0 0 67 75" version="1.1" xmlns="http://www.w3.org/2000/svg" xmlns:xlink="http://www.w3.org/1999/xlink">
    <!-- Generator: Sketch 48.2 (47327) - http://www.bohemiancoding.com/sketch -->
    <title>emojis_aime</title>
    <desc>Created with Sketch.</desc>
    <defs>
        <polygon id="path-1" points="0.694683963 0.444 19.4303983 0.444 19.4303983 17.8578467 0.694683963 17.8578467"></polygon>
    </defs>
    <g id="Symbols" stroke="none" stroke-width="1" fill="none" fill-rule="evenodd">
        <g id="emojis_aime">
            <g id="Page-1">
                <path d="M56.0957,72.0563 L2.4997,72.0563 L2.4997,18.4603 C2.4997,13.8913 6.2027,10.1873 10.7727,10.1873 L56.0957,10.1873 C60.6637,10.1873 64.3677,13.8913 64.3677,18.4603 L64.3677,63.7843 C64.3677,68.3523 60.6637,72.0563 56.0957,72.0563" id="Fill-1" fill="#FFFFFF"></path>
                <path d="M5,69.5563 L56.096,69.5563 C59.278,69.5563 61.868,66.9673 61.868,63.7843 L61.868,18.4603 C61.868,15.2773 59.278,12.6873 56.096,12.6873 L10.772,12.6873 C7.59,12.6873 5,15.2773 5,18.4603 L5,69.5563 Z M56.096,74.5563 L0,74.5563 L0,18.4603 C0,12.5203 4.832,7.6873 10.772,7.6873 L56.096,7.6873 C62.036,7.6873 66.868,12.5203 66.868,18.4603 L66.868,63.7843 C66.868,69.7233 62.036,74.5563 56.096,74.5563 Z" id="Fill-3" fill="#3F57FF"></path>
                <path d="M20.8799,32.8693 C20.8799,35.3953 18.8329,37.4423 16.3069,37.4423 C13.7809,37.4423 11.7339,35.3953 11.7339,32.8693 C11.7339,30.3433 13.7809,28.2953 16.3069,28.2953 C18.8329,28.2953 20.8799,30.3433 20.8799,32.8693" id="Fill-5" fill="#3F57FF"></path>
                <path d="M55.1348,32.8693 C55.1348,35.3953 53.0868,37.4423 50.5608,37.4423 C48.0348,37.4423 45.9878,35.3953 45.9878,32.8693 C45.9878,30.3433 48.0348,28.2953 50.5608,28.2953 C53.0868,28.2953 55.1348,30.3433 55.1348,32.8693" id="Fill-7" fill="#3F57FF"></path>
                <g id="Group-11" transform="translate(40.000000, 0.556300)">
                    <mask id="mask-2" fill="white">
                        <use xlink:href="#path-1"></use>
                    </mask>
                    <g id="Clip-10"></g>
                    <path d="M17.2959,10.8281 L10.7559,17.3091 C9.9459,18.1111 8.6179,18.0221 7.9229,17.1201 L2.1929,9.6871 C0.6539,7.6901 0.2709,5.0341 1.1819,2.6821 C2.0989,0.3161 5.1499,-0.3209 6.9369,1.4811 L9.5049,4.0711 C9.8779,4.4471 10.4809,4.4631 10.8719,4.1071 L13.3599,1.8491 C15.2889,0.0981 18.3859,0.9891 19.0889,3.4971 L19.1629,3.7631 C19.8689,6.2821 19.1539,8.9861 17.2959,10.8281" id="Fill-9" fill="#FF674A" mask="url(#mask-2)"></path>
                </g>
                <path d="M23.4971,41.1217 C23.4971,42.7587 20.1541,44.0847 16.0301,44.0847 C11.9061,44.0847 8.5631,42.7587 8.5631,41.1217 C8.5631,39.4857 11.9061,38.1587 16.0301,38.1587 C20.1541,38.1587 23.4971,39.4857 23.4971,41.1217" id="Fill-12" fill="#8896FB"></path>
                <path d="M58.3037,41.1217 C58.3037,42.7587 54.9607,44.0847 50.8377,44.0847 C46.7137,44.0847 43.3707,42.7587 43.3707,41.1217 C43.3707,39.4857 46.7137,38.1587 50.8377,38.1587 C54.9607,38.1587 58.3037,39.4857 58.3037,41.1217" id="Fill-14" fill="#8896FB"></path>
                <path d="M46.6191,49.8014 C46.6191,57.0834 40.7161,62.9864 33.4331,62.9864 C26.1511,62.9864 20.2491,57.0834 20.2491,49.8014 L46.6191,49.8014 Z" id="Fill-16" fill="#FFFFFF"></path>
                <path d="M21.8447,51.3014 C22.5827,57.0384 27.4987,61.4864 33.4337,61.4864 C39.3687,61.4864 44.2847,57.0384 45.0237,51.3014 L21.8447,51.3014 Z M33.4337,64.4864 C25.3367,64.4864 18.7487,57.8984 18.7487,49.8014 C18.7487,48.9724 19.4207,48.3014 20.2487,48.3014 L46.6187,48.3014 C47.4477,48.3014 48.1187,48.9724 48.1187,49.8014 C48.1187,57.8984 41.5317,64.4864 33.4337,64.4864 Z" id="Fill-18" fill="#3F57FF"></path>
            </g>
        </g>
    </g>
</svg>