<svg xmlns="http://www.w3.org/2000/svg" width="347" height="347" viewBox="0 0 347 347">
  <path fill="#2C00B9" d="M192.427472,32.2187805 L184.602396,32.2187805 C170.841057,12.7382927 148.119642,-0.000426829268 122.397972,-0.000426829268 L106.745679,-0.000426829268 C80.8462642,-0.000426829268 57.989934,12.9132927 44.2585755,32.62 L44.2585755,32.2187805 L34.0671321,32.2187805 C15.2518302,32.2187805 0.00214150943,47.4181707 0.00214150943,66.1666463 L0.00214150943,149.961768 C0.00214150943,162.141341 9.90876415,172.013902 22.1303585,172.013902 C33.8208585,172.013902 43.3698491,162.975793 44.1771981,151.528232 C55.4222642,165.509024 72.6913962,174.468171 92.0699151,174.468171 L137.075877,174.468171 C155.171632,174.468171 171.429972,166.659329 182.660047,154.245 C184.662358,164.373659 193.616009,172.013902 204.364245,172.013902 C216.58584,172.013902 226.494604,162.141341 226.494604,149.961768 L226.494604,66.1666463 C226.494604,47.4181707 211.240632,32.2187805 192.427472,32.2187805" transform="translate(60 36)"/>
</svg>
