<svg xmlns="http://www.w3.org/2000/svg" width="347" height="347" viewBox="0 0 347 347">
  <path fill="#2C00B9" d="M279.600361,150.845695 C278.086783,150.845695 276.6096,150.999868 275.179515,151.284662 C276.577487,147.545945 277.378163,143.51601 277.378163,139.291216 C277.378163,124.993727 268.617825,112.754032 256.179515,107.619184 C258.836304,101.936162 260.364868,95.6193141 260.364868,88.9320207 C260.364868,64.527575 240.5856,44.7440641 216.186389,44.7440641 C215.529149,44.7440641 214.891177,44.8125859 214.242501,44.8425641 C204.546614,19.2218576 179.802727,0.999357609 150.792135,0.999357609 C121.736586,0.999357609 96.9584451,19.2796728 87.2946704,44.9646185 C85.8688676,44.8232924 84.4237972,44.7440641 82.9594592,44.7440641 C58.5623887,44.7440641 38.7831211,64.527575 38.7831211,88.9320207 C38.7831211,96.096825 40.525769,102.839792 43.5507831,108.824738 C32.4976,114.50776 24.9211493,126.002282 24.9211493,139.291216 C24.9211493,143.51601 25.7239662,147.545945 27.121938,151.284662 C25.6897127,150.999868 24.2146704,150.845695 22.6989521,150.845695 C10.1643042,150.845695 -0.000428169014,161.010466 -0.000428169014,173.549945 C-0.000428169014,186.089423 10.1643042,196.254195 22.6989521,196.254195 C35.2357408,196.254195 45.3983324,186.089423 45.3983324,173.549945 C45.3983324,172.526401 45.3084169,171.524271 45.1756845,170.534988 C49.453093,172.457879 54.1822197,173.549945 59.1746704,173.549945 C78.0911775,173.549945 93.4281915,158.20964 93.4281915,139.291216 C93.4281915,136.794455 93.1434592,134.368358 92.6382197,132.023629 C99.2898254,130.533282 105.374107,127.552586 110.518558,123.434858 C121.781544,131.76239 135.709882,136.693814 150.792135,136.693814 C165.324192,136.693814 178.777262,132.10714 189.8176,124.323499 C195.495121,128.565423 202.217375,131.458325 209.539065,132.567521 C209.108755,134.740945 208.873262,136.987173 208.873262,139.291216 C208.873262,158.20964 224.208135,173.549945 243.124642,173.549945 C248.117093,173.549945 252.84622,172.457879 257.123628,170.534988 C256.993037,171.524271 256.90098,172.526401 256.90098,173.549945 C256.90098,186.089423 267.065713,196.254195 279.600361,196.254195 C292.137149,196.254195 302.299741,186.089423 302.299741,173.549945 C302.299741,161.010466 292.137149,150.845695 279.600361,150.845695" transform="translate(21 40)"/>
</svg>
