<svg xmlns="http://www.w3.org/2000/svg" xmlns:xlink="http://www.w3.org/1999/xlink" width="347" height="347" viewBox="0 0 347 347">
  <defs>
    <polygon id="hair_07-a" points="0 0 206.879 0 206.879 264.902 0 264.902"/>
  </defs>
  <g fill="none" fill-rule="evenodd" transform="translate(101 34)">
    <mask id="hair_07-b" fill="#fff">
      <use xlink:href="#hair_07-a"/>
    </mask>
    <path fill="#2C00B9" d="M192.968825,207.824169 C201.153078,204.234624 206.880741,196.069996 206.880741,186.558467 C206.880741,178.111318 202.352909,170.73731 195.61152,166.676897 C201.790215,160.356318 205.610846,151.720822 205.610846,142.183012 C205.610846,125.358798 193.750467,111.315988 177.938088,107.93231 C181.303309,101.607351 183.225667,94.3975992 183.225667,86.7345 C183.225667,62.0522686 163.437204,42.0261529 138.86912,41.5815661 C127.126973,16.9913182 102.042173,-0.00153305785 72.9790989,-0.00153305785 C32.6752674,-0.00153305785 -0.000437894737,32.6832603 -0.000437894737,72.9983017 C-0.000437894737,113.317723 32.6752674,146.000326 72.9790989,146.000326 C91.1320253,146.000326 107.719478,139.357806 120.488488,128.387682 C125.607478,130.551483 131.219099,131.758219 137.093457,131.880864 C136.092867,135.139707 135.549878,138.597847 135.549878,142.183012 C135.549878,158.871442 147.224152,172.811318 162.841667,176.337351 C161.324362,179.425368 160.448573,182.885698 160.448573,186.558467 C160.448573,196.069996 166.174046,204.234624 174.358299,207.824169 C168.685373,211.063302 164.853794,217.160492 164.853794,224.162186 C164.853794,230.022847 167.533709,235.254955 171.73312,238.706525 C165.948531,240.151979 161.657162,245.368756 161.657162,251.599541 C161.657162,258.947269 167.61472,264.902103 174.958215,264.902103 C182.306088,264.902103 188.261457,258.947269 188.261457,251.599541 C188.261457,248.274996 187.033162,245.241731 185.016657,242.911483 C194.770762,242.212847 202.47552,234.096401 202.47552,224.162186 C202.47552,217.160492 198.641752,211.063302 192.968825,207.824169" mask="url(#hair_07-b)"/>
  </g>
</svg>
