<svg xmlns="http://www.w3.org/2000/svg" xmlns:xlink="http://www.w3.org/1999/xlink" width="347" height="347" viewBox="0 0 347 347">
  <defs>
    <polygon id="hair_21a-a" points=".001 .321 162.084 .321 162.084 190.714 .001 190.714"/>
  </defs>
  <g fill="none" fill-rule="evenodd" transform="translate(92 20.823)">
    <mask id="hair_21a-b" fill="#fff">
      <use xlink:href="#hair_21a-a"/>
    </mask>
    <path fill="#2C00B9" d="M89.9616303,20.8853571 C91.7760776,16.6125 95.5851303,6.97821429 93.0457618,6.9525 C91.0940513,6.93107143 87.0254855,12.3675 84.0700382,16.7346429 C82.0883013,9.60964286 79.4652882,1.74964286 77.2562092,0.481071429 C73.9661829,-1.41107143 75.0471303,13.9425 75.6562355,20.5703571 C33.4134987,23.4846429 0.000643421053,60.3996429 0.000643421053,105.536786 C0.000643421053,152.578929 36.2853013,190.715357 81.0416697,190.715357 C125.800183,190.715357 162.084841,152.578929 162.084841,105.536786 C162.084841,61.6660714 130.520749,25.5546429 89.9616303,20.8853571" mask="url(#hair_21a-b)"/>
  </g>
</svg>
