<svg xmlns="http://www.w3.org/2000/svg" width="347" height="347" viewBox="0 0 347 347">
  <path fill="#2C00B9" d="M167.689708,40.5329067 C168.607588,37.59744 169.100841,34.4785067 169.100841,31.2443733 C169.100841,13.98784 155.040986,-0.000426666667 137.695636,-0.000426666667 C128.027877,-0.000426666667 119.39166,4.35157333 113.629178,11.1825067 C107.926745,5.36704 99.9725036,1.74250667 91.1561422,1.74250667 C81.8100699,1.74250667 73.4419253,5.82784 67.6858771,12.2747733 C61.9469855,4.82517333 52.937612,-0.000426666667 42.7723108,-0.000426666667 C25.4269614,-0.000426666667 11.3628169,13.98784 11.3628169,31.2443733 C11.3628169,34.2737067 11.819612,37.20064 12.6302627,39.9697067 C5.54028675,45.69984 0.99806988,54.4337067 0.99806988,64.22784 C0.99806988,81.4843733 15.0622145,95.47264 32.4075639,95.47264 C49.7550578,95.47264 63.8149133,81.4843733 63.8149133,64.22784 C63.8149133,61.1985067 63.3602627,58.2737067 62.549612,55.5025067 C63.8813952,54.4273067 65.1038048,53.2305067 66.2404313,51.9547733 C71.9814675,59.4065067 80.990841,64.22784 91.1561422,64.22784 C100.821757,64.22784 109.460118,59.8779733 115.2226,53.0449067 C115.872407,53.7083733 116.554383,54.3377067 117.262094,54.94144 C116.346359,57.8747733 115.850961,60.99584 115.850961,64.22784 C115.850961,81.4843733 129.912961,95.47264 147.258311,95.47264 C164.605805,95.47264 178.66566,81.4843733 178.66566,64.22784 C178.66566,54.74304 174.400094,46.26304 167.689708,40.5329067" transform="translate(82 41)"/>
</svg>
