<svg xmlns="http://www.w3.org/2000/svg" xmlns:xlink="http://www.w3.org/1999/xlink" width="347" height="347" viewBox="0 0 347 347">
  <defs>
    <polygon id="hair_09-a" points="0 0 177.665 0 177.665 95.472 0 95.472"/>
  </defs>
  <g fill="none" fill-rule="evenodd" transform="translate(83 42)">
    <mask id="hair_09-b" fill="#fff">
      <use xlink:href="#hair_09-a"/>
    </mask>
    <path fill="#2C00B9" d="M166.689708,40.5329067 C167.607588,37.59744 168.100841,34.4785067 168.100841,31.2443733 C168.100841,13.98784 154.040986,-0.000426666667 136.695636,-0.000426666667 C127.027877,-0.000426666667 118.39166,4.35157333 112.629178,11.1825067 C106.926745,5.36704 98.9725036,1.74250667 90.1561422,1.74250667 C80.8100699,1.74250667 72.4419253,5.82784 66.6858771,12.2747733 C60.9469855,4.82517333 51.937612,-0.000426666667 41.7723108,-0.000426666667 C24.4269614,-0.000426666667 10.3628169,13.98784 10.3628169,31.2443733 C10.3628169,34.2737067 10.819612,37.20064 11.6302627,39.9697067 C4.54028675,45.69984 -0.00193012048,54.4337067 -0.00193012048,64.22784 C-0.00193012048,81.4843733 14.0622145,95.47264 31.4075639,95.47264 C48.7550578,95.47264 62.8149133,81.4843733 62.8149133,64.22784 C62.8149133,61.1985067 62.3602627,58.2737067 61.549612,55.5025067 C62.8813952,54.4273067 64.1038048,53.2305067 65.2404313,51.9547733 C70.9814675,59.4065067 79.990841,64.22784 90.1561422,64.22784 C99.8217566,64.22784 108.460118,59.8779733 114.2226,53.0449067 C114.872407,53.7083733 115.554383,54.3377067 116.262094,54.94144 C115.346359,57.8747733 114.850961,60.99584 114.850961,64.22784 C114.850961,81.4843733 128.912961,95.47264 146.258311,95.47264 C163.605805,95.47264 177.66566,81.4843733 177.66566,64.22784 C177.66566,54.74304 173.400094,46.26304 166.689708,40.5329067" mask="url(#hair_09-b)"/>
  </g>
</svg>
