<svg xmlns="http://www.w3.org/2000/svg" width="347" height="347" viewBox="0 0 347 347">
  <path fill="#2C00B9" fill-rule="evenodd" d="M71.2223652,123.196006 C67.1784286,116.933069 60.9706126,112.218249 53.6488467,110.099997 C69.276154,108.374647 81.4357057,95.1270297 81.4357057,79.030876 C81.4357057,75.9965653 80.9811629,73.0690213 80.1766436,70.2973567 C81.4997258,69.2190127 82.7182417,68.0210898 83.8492636,66.746295 C89.5619908,74.2028841 98.5290733,79.030876 108.642116,79.030876 C118.260069,79.030876 126.855835,74.6747931 132.589902,67.837451 C133.236505,68.5015402 133.915119,69.1314639 134.61934,69.7336283 C133.705986,72.671849 133.215165,75.7937085 133.215165,79.030876 C133.215165,94.9860976 145.163451,108.124813 160.59443,110.038073 C153.289736,112.085859 147.064848,116.700317 142.973963,122.87357 C132.903601,115.726604 120.611741,111.509318 107.325436,111.509318 C93.8406677,111.509318 81.3738196,115.852589 71.2223652,123.196006 M195.212234,157.173453 C198.411105,152.266453 200.28476,146.419907 200.28476,140.12494 C200.28476,124.169718 188.334341,111.031003 172.905496,109.117743 C186.059493,105.43002 195.720126,93.3717845 195.720126,79.030876 C195.720126,69.5371775 191.475594,61.0470864 184.800431,55.3115771 C185.71165,52.3754918 186.204605,49.251497 186.204605,46.0143295 C186.204605,28.7437417 172.211944,14.7423514 154.949991,14.7423514 C149.414386,14.7423514 144.222355,16.1986497 139.711072,18.7247508 C133.236505,7.54200249 121.172984,0 107.325436,0 C93.6165974,0 81.664044,7.39679972 75.1403955,18.3937739 C70.7699564,16.0705297 65.7891924,14.7423514 60.4968638,14.7423514 C43.2370439,14.7423514 29.2443833,28.7437417 29.2443833,46.0143295 C29.2443833,49.0486402 29.698926,51.9740489 30.5034453,54.7499841 C23.4462959,60.483358 18.9307446,69.227554 18.9307446,79.030876 C18.9307446,93.2842358 28.46974,105.286953 41.5020991,109.055819 C25.8747918,110.783304 13.7152402,124.028786 13.7152402,140.12494 C13.7152402,146.419907 15.5910292,152.266453 18.7877664,157.173453 C7.59918629,163.24421 0,175.097453 0,188.727295 C0,208.538931 16.0498399,224.598784 35.84699,224.598784 C45.7103539,224.598784 54.6390243,220.609979 61.1221268,214.161268 C72.4238091,226.936976 88.9303258,235 107.325436,235 C125.562629,235 141.947508,227.077908 153.242788,214.492245 C159.69388,220.738099 168.466768,224.598784 178.150876,224.598784 C197.95016,224.598784 214,208.538931 214,188.727295 C214,175.097453 206.400814,163.24421 195.212234,157.173453" transform="translate(66 42)"/>
</svg>
