<svg xmlns="http://www.w3.org/2000/svg" xmlns:xlink="http://www.w3.org/1999/xlink" width="347" height="347" viewBox="0 0 347 347">
  <defs>
    <polygon id="hair_03-a" points=".001 0 158.138 0 158.138 227.487 .001 227.487"/>
  </defs>
  <g fill="none" fill-rule="evenodd" transform="translate(94 25)">
    <mask id="hair_03-b" fill="#fff">
      <use xlink:href="#hair_03-a"/>
    </mask>
    <path fill="#2C00B9" d="M110.45888,28.0255336 C109.189547,12.3401037 96.12288,-0.000214018692 80.16128,-0.000214018692 L77.9767467,-0.000214018692 C62.0151467,-0.000214018692 48.94848,12.3401037 47.6791467,28.0255336 C19.7474133,39.216571 0.00128,66.5895617 0.00128,98.6067579 L0.00128,126.880767 C0.00128,152.006562 15.06688,173.590347 36.6242133,183.064954 L34.2946133,215.604356 C33.8338133,222.024917 38.90048,227.486674 45.3154133,227.486674 L112.822613,227.486674 C119.237547,227.486674 124.304213,222.024917 123.843413,215.604356 L121.513813,183.064954 C143.071147,173.590347 158.13888,152.006562 158.13888,126.880767 L158.13888,98.6067579 C158.13888,66.5895617 138.392747,39.216571 110.45888,28.0255336" mask="url(#hair_03-b)"/>
  </g>
</svg>
