<svg xmlns="http://www.w3.org/2000/svg" width="347" height="347" viewBox="0 0 347 347">
  <path fill="#2C00B9" d="M197.348544,53.820625 C207.389515,49.7628533 214.480777,39.9257011 214.480777,28.407625 C214.480777,13.2707446 202.241942,0.998929348 187.145243,0.998929348 C172.285631,0.998929348 160.221942,12.8917337 159.839612,27.6945707 C144.764272,21.2813641 127.655534,17.6368641 109.500194,17.6368641 C91.3405825,17.6368641 74.2318447,21.2813641 59.1586408,27.6945707 C58.7763107,12.8895924 46.7126214,0.998929348 31.8551456,0.998929348 C16.7541748,0.998929348 4.51533981,13.2707446 4.51533981,28.407625 C4.51533981,39.9257011 11.6108738,49.7628533 21.6475728,53.820625 C8.05242718,68.7797772 0,87.3277554 0,107.419614 C0,157.005799 49.0258252,197.206647 109.500194,197.206647 C169.974563,197.206647 219.000388,157.005799 219.000388,107.419614 C219.000388,87.3277554 210.945825,68.7797772 197.348544,53.820625" transform="translate(63 20)"/>
</svg>
