<svg xmlns="http://www.w3.org/2000/svg" xmlns:xlink="http://www.w3.org/1999/xlink" width="347" height="347" viewBox="0 0 347 347">
  <defs>
    <polygon id="hair_04-a" points="0 .001 163.594 .001 163.594 193.154 0 193.154"/>
  </defs>
  <g fill="none" fill-rule="evenodd" transform="translate(89 19)">
    <mask id="hair_04-b" fill="#fff">
      <use xlink:href="#hair_04-a"/>
    </mask>
    <path fill="#2C00B9" d="M87.5072143,27.3552857 L84.5072143,27.3552857 C77.9800714,11.3181429 62.2579286,-0.000428571429 43.8765,-0.000428571429 C19.6429286,-0.000428571429 -0.000642857143,19.6431429 -0.000642857143,43.8745714 C-0.000642857143,55.0602857 4.22078571,65.2345714 11.1100714,72.9831429 C7.02792857,82.311 4.75221429,92.6074286 4.75221429,103.441714 L4.75221429,131.755286 C4.75221429,165.663857 32.2407857,193.154571 66.1493571,193.154571 L102.194357,193.154571 C136.107214,193.154571 163.595786,165.663857 163.595786,131.755286 L163.595786,103.441714 C163.595786,61.4202857 129.528643,27.3552857 87.5072143,27.3552857" mask="url(#hair_04-b)"/>
  </g>
</svg>
