<svg xmlns="http://www.w3.org/2000/svg" xmlns:xlink="http://www.w3.org/1999/xlink" width="347" height="347" viewBox="0 0 347 347">
  <defs>
    <polygon id="hair_13-a" points="0 0 218.998 0 218.998 196.206 0 196.206"/>
  </defs>
  <g fill="none" fill-rule="evenodd" transform="translate(63 22)">
    <mask id="hair_13-b" fill="#fff">
      <use xlink:href="#hair_13-a"/>
    </mask>
    <path fill="#2C00B9" d="M197.348544,52.820625 C207.389515,48.7628533 214.480777,38.9257011 214.480777,27.407625 C214.480777,12.2707446 202.241942,-0.00107065217 187.145243,-0.00107065217 C172.285631,-0.00107065217 160.221942,11.8917337 159.839612,26.6945707 C144.764272,20.2813641 127.655534,16.6368641 109.500194,16.6368641 C91.3405825,16.6368641 74.2318447,20.2813641 59.1586408,26.6945707 C58.7763107,11.8895924 46.7126214,-0.00107065217 31.8551456,-0.00107065217 C16.7541748,-0.00107065217 4.51533981,12.2707446 4.51533981,27.407625 C4.51533981,38.9257011 11.6108738,48.7628533 21.6475728,52.820625 C8.05242718,67.7797772 0,86.3277554 0,106.419614 C0,156.005799 49.0258252,196.206647 109.500194,196.206647 C169.974563,196.206647 219.000388,156.005799 219.000388,106.419614 C219.000388,86.3277554 210.945825,67.7797772 197.348544,52.820625" mask="url(#hair_13-b)"/>
  </g>
</svg>
