<svg xmlns="http://www.w3.org/2000/svg" xmlns:xlink="http://www.w3.org/1999/xlink" width="347" height="347" viewBox="0 0 347 347">
  <defs>
    <polygon id="hair_08-a" points="0 .001 166.07 .001 166.07 212.572 0 212.572"/>
  </defs>
  <g fill="none" fill-rule="evenodd" transform="translate(90 52)">
    <mask id="hair_08-b" fill="#fff">
      <use xlink:href="#hair_08-a"/>
    </mask>
    <path fill="#2C00B9" d="M101.445649,-0.000214 L64.6264308,-0.000214 C28.9333923,-0.000214 -0.000428205128,25.975106 -0.000428205128,58.017326 L-0.000428205128,187.724866 C-0.000428205128,201.448686 12.3918282,212.572406 27.6787513,212.572406 C42.9656744,212.572406 55.3579308,201.448686 55.3579308,187.724866 C55.3579308,201.448686 67.7501872,212.572406 83.0349692,212.572406 C98.3218923,212.572406 110.714149,201.448686 110.714149,187.724866 C110.714149,201.448686 123.104264,212.572406 138.393328,212.572406 C153.67811,212.572406 166.070367,201.448686 166.070367,187.724866 L166.070367,58.017326 C166.070367,25.975106 137.136546,-0.000214 101.445649,-0.000214" mask="url(#hair_08-b)"/>
  </g>
</svg>
