<svg xmlns="http://www.w3.org/2000/svg" xmlns:xlink="http://www.w3.org/1999/xlink" width="347" height="347" viewBox="0 0 347 347">
  <defs>
    <polygon id="hair_01-a" points="0 .001 206.694 .001 206.694 171.382 0 171.382"/>
    <polygon id="hair_01-c" points="0 .001 56.648 .001 56.648 28.254 0 28.254"/>
  </defs>
  <g fill="none" fill-rule="evenodd">
    <g transform="translate(70 49)">
      <mask id="hair_01-b" fill="#fff">
        <use xlink:href="#hair_01-a"/>
      </mask>
      <path fill="#2C00B9" d="M190.511703,171.382557 L16.1819711,171.382557 C5.64473402,171.382557 -2.07914227,161.50447 0.500486598,151.327372 L23.7536,59.6031988 C34.0034969,24.3005198 66.4536412,0.00149506173 103.348981,0.00149506173 C140.244322,0.00149506173 172.692322,24.3005198 182.942219,59.6031988 L206.193188,151.327372 C208.774961,161.50447 201.051085,171.382557 190.511703,171.382557" mask="url(#hair_01-b)"/>
    </g>
    <g transform="translate(145 178)">
      <mask id="hair_01-d" fill="#fff">
        <use xlink:href="#hair_01-c"/>
      </mask>
      <path fill="#2C00B9" d="M56.6481704,-0.000428571429 C56.6481704,15.6038571 43.9676519,28.2552857 28.3226889,28.2552857 C12.6798741,28.2552857 -0.000644444444,15.6038571 -0.000644444444,-0.000428571429" mask="url(#hair_01-d)"/>
    </g>
  </g>
</svg>
