<svg xmlns="http://www.w3.org/2000/svg" width="347" height="347" viewBox="0 0 347 347">
  <path fill="#2C00B9" d="M105.8587,9.23381538 C105.696269,8.94950769 101.74021,2.30704615 92.3897196,2.30704615 C82.9922098,2.30704615 78.9656216,9.16273846 78.9250137,9.23166154 L77.0720137,8.15473846 C77.2600922,7.82950769 81.7697,0.1532 92.3897196,0.1532 C103.011877,0.1532 107.521484,7.82950769 107.709563,8.15473846 L105.8587,9.23381538 Z M80.2009137,18.0298923 C82.2313059,14.9111231 84.2638353,13.2914308 86.2963647,12.1240462 C88.3288941,10.9846615 90.3592863,10.5129692 92.3896784,10.4935846 C94.4222078,10.4935846 96.4526,10.9652769 98.4872667,12.1025077 C100.517659,13.2655846 102.548051,14.8917385 104.58058,18.0298923 C102.548051,21.1702 100.517659,22.7942 98.4872667,23.9572769 C96.4526,25.0945077 94.4222078,25.5662 92.3896784,25.5683538 C90.3592863,25.5489692 88.3288941,25.0772769 86.2963647,23.9378923 C84.2638353,22.7683538 82.2313059,21.1508154 80.2009137,18.0298923 Z M28.7841216,9.23381538 C28.6216902,8.94950769 24.6656314,2.30704615 15.3172784,2.30704615 C5.96678824,2.30704615 2.01500392,8.94950769 1.85043529,9.23381538 L-0.00042745098,8.15689231 C0.18765098,7.82950769 4.69512157,0.1532 15.3172784,0.1532 C25.937298,0.1532 30.4469059,7.82950769 30.6349843,8.15473846 L28.7841216,9.23381538 Z M3.12847255,18.0298923 C5.15886471,14.9111231 7.18925686,13.2914308 9.22392353,12.1240462 C11.2543157,10.9846615 13.2847078,10.5129692 15.3172373,10.4935846 C17.3476294,10.4935846 19.3801588,10.9652769 21.4126882,12.1025077 C23.4430804,13.2655846 25.4756098,14.8917385 27.506002,18.0298923 C25.4756098,21.1702 23.4430804,22.7942 21.4126882,23.9572769 C19.3801588,25.0945077 17.3476294,25.5662 15.3172373,25.5683538 C13.2847078,25.5489692 11.2543157,25.0772769 9.22392353,23.9378923 C7.18925686,22.7683538 5.15886471,21.1508154 3.12847255,18.0298923 Z" transform="translate(119 120)"/>
</svg>
