<svg xmlns="http://www.w3.org/2000/svg" xmlns:xlink="http://www.w3.org/1999/xlink" width="347" height="347" viewBox="0 0 347 347">
  <defs>
    <polygon id="oeil_05-a" points=".131 .431 30.768 .431 30.768 9.512 .131 9.512"/>
    <polygon id="oeil_05-c" points="1.123 .003 25.503 .003 25.503 15.077 1.123 15.077"/>
    <polygon id="oeil_05-e" points="0 .431 30.635 .431 30.635 9.512 0 9.512"/>
    <polygon id="oeil_05-g" points=".991 .003 25.369 .003 25.369 15.077 .991 15.077"/>
  </defs>
  <g fill="none" fill-rule="evenodd" transform="translate(119 119)">
    <g transform="translate(76.941 1.722)">
      <mask id="oeil_05-b" fill="#fff">
        <use xlink:href="#oeil_05-a"/>
      </mask>
      <path fill="#2C00B9" d="M28.9177,9.51181538 C28.7552686,9.22750769 24.7992098,2.58504615 15.4487196,2.58504615 C6.0512098,2.58504615 2.02462157,9.44073846 1.98401373,9.50966154 L0.131013725,8.43273846 C0.319092157,8.10750769 4.8287,0.4312 15.4487196,0.4312 C26.0708765,0.4312 30.5804843,8.10750769 30.7685627,8.43273846 L28.9177,9.51181538 Z" mask="url(#oeil_05-b)"/>
    </g>
    <g transform="translate(79.078 12.491)">
      <mask id="oeil_05-d" fill="#fff">
        <use xlink:href="#oeil_05-c"/>
      </mask>
      <path fill="#2C00B9" d="M1.12291373,7.53889231 C3.15330588,4.42012308 5.18583529,2.80043077 7.21836471,1.63304615 C9.25089412,0.493661538 11.2812863,0.0219692308 13.3116784,0.00258461538 C15.3442078,0.00258461538 17.3746,0.474276923 19.4092667,1.61150769 C21.4396588,2.77458462 23.470051,4.40073846 25.5025804,7.53889231 C23.470051,10.6792 21.4396588,12.3032 19.4092667,13.4662769 C17.3746,14.6035077 15.3442078,15.0752 13.3116784,15.0773538 C11.2812863,15.0579692 9.25089412,14.5862769 7.21836471,13.4468923 C5.18583529,12.2773538 3.15330588,10.6598154 1.12291373,7.53889231" mask="url(#oeil_05-d)"/>
    </g>
    <g transform="translate(0 1.722)">
      <mask id="oeil_05-f" fill="#fff">
        <use xlink:href="#oeil_05-e"/>
      </mask>
      <path fill="#2C00B9" d="M28.7841216,9.51181538 C28.6216902,9.22750769 24.6656314,2.58504615 15.3172784,2.58504615 C5.96678824,2.58504615 2.01500392,9.22750769 1.85043529,9.51181538 L-0.00042745098,8.43489231 C0.18765098,8.10750769 4.69512157,0.4312 15.3172784,0.4312 C25.937298,0.4312 30.4469059,8.10750769 30.6349843,8.43273846 L28.7841216,9.51181538 Z" mask="url(#oeil_05-f)"/>
    </g>
    <g transform="translate(2.137 12.491)">
      <mask id="oeil_05-h" fill="#fff">
        <use xlink:href="#oeil_05-g"/>
      </mask>
      <path fill="#2C00B9" d="M0.991472549,7.53889231 C3.02186471,4.42012308 5.05225686,2.80043077 7.08692353,1.63304615 C9.11731569,0.493661538 11.1477078,0.0219692308 13.1802373,0.00258461538 C15.2106294,0.00258461538 17.2431588,0.474276923 19.2756882,1.61150769 C21.3060804,2.77458462 23.3386098,4.40073846 25.369002,7.53889231 C23.3386098,10.6792 21.3060804,12.3032 19.2756882,13.4662769 C17.2431588,14.6035077 15.2106294,15.0752 13.1802373,15.0773538 C11.1477078,15.0579692 9.11731569,14.5862769 7.08692353,13.4468923 C5.05225686,12.2773538 3.02186471,10.6598154 0.991472549,7.53889231" mask="url(#oeil_05-h)"/>
    </g>
  </g>
</svg>
