<svg xmlns="http://www.w3.org/2000/svg" xmlns:xlink="http://www.w3.org/1999/xlink" width="347" height="347" viewBox="0 0 347 347">
  <defs>
    <polygon id="oeil_03-a" points="1.687 .352 22.77 .352 22.77 21.818 1.687 21.818"/>
    <polygon id="oeil_03-c" points="0 .351 21.084 .351 21.084 21.818 0 21.818"/>
  </defs>
  <g fill="none" fill-rule="evenodd" transform="translate(121 123)">
    <g transform="translate(81.429 1.83)">
      <mask id="oeil_03-b" fill="#fff">
        <use xlink:href="#oeil_03-a"/>
      </mask>
      <path fill="#2C00B9" d="M22.77,1.89490909 L21.255,0.352363636 L14.8778571,6.84327273 C11.6571429,4.32545455 7.04142857,4.53490909 4.09285714,7.53709091 C0.885,10.8032727 0.885,16.1007273 4.09285714,19.3690909 C7.30071429,22.6352727 12.5035714,22.6352727 15.7135714,19.3690909 C18.6621429,16.3647273 18.8678571,11.6672727 16.3928571,8.38581818 L22.77,1.89490909 Z" mask="url(#oeil_03-b)"/>
    </g>
    <g transform="translate(0 1.83)">
      <mask id="oeil_03-d" fill="#fff">
        <use xlink:href="#oeil_03-c"/>
      </mask>
      <path fill="#2C00B9" d="M7.89128571,6.8424 L1.51414286,0.351490909 L-0.000857142857,1.89403636 L6.37628571,8.38494545 C3.90342857,11.6664 4.107,16.3638545 7.05557143,19.3682182 C10.2655714,22.6344 15.4684286,22.6344 18.6762857,19.3682182 C21.8862857,16.0998545 21.8862857,10.8024 18.6762857,7.53621818 C15.7277143,4.53185455 11.1141429,4.32676364 7.89128571,6.8424" mask="url(#oeil_03-d)"/>
    </g>
  </g>
</svg>
