<svg xmlns="http://www.w3.org/2000/svg" width="347" height="347" viewBox="0 0 347 347">
  <path fill="#2C00B9" d="M105.199,1.72490909 L98.8218571,8.21581818 C101.296857,11.4972727 101.091143,16.1947273 98.1425714,19.1990909 C94.9325714,22.4652727 89.7297143,22.4652727 86.5218571,19.1990909 C83.314,15.9307273 83.314,10.6332727 86.5218571,7.36709091 C89.4704286,4.36490909 94.0861429,4.15545455 97.3068571,6.67327273 L103.684,0.182363636 L105.199,1.72490909 Z M8.89128571,6.6724 C12.1141429,4.15676364 16.7277143,4.36185455 19.6762857,7.36621818 C22.8862857,10.6324 22.8862857,15.9298545 19.6762857,19.1982182 C16.4684286,22.4644 11.2655714,22.4644 8.05557143,19.1982182 C5.107,16.1938545 4.90342857,11.4964 7.37628571,8.21494545 L0.999142857,1.72403636 L2.51414286,0.181490909 L8.89128571,6.6724 Z" transform="translate(120 124)"/>
</svg>
