<svg xmlns="http://www.w3.org/2000/svg" width="347" height="347" viewBox="0 0 347 347">
  <path fill="#2C00B9" d="M108.242154,8.38492222 L110.95525,11.4143667 L109.358558,12.8161444 L106.645461,9.7867 C103.923827,6.75303333 100.956711,4.60603333 97.8743269,3.39214444 C98.9202885,4.68414444 99.5713462,6.30336667 99.5713462,8.08725556 C99.5713462,12.2651444 96.1474231,15.6492556 91.9230192,15.6492556 C87.70075,15.6492556 84.2768269,12.2651444 84.2768269,8.08725556 C84.2768269,6.30336667 84.9278846,4.68625556 85.9738462,3.39214444 C82.8914615,4.60814444 79.9243461,6.75303333 77.2048461,9.7867 L74.4874808,12.8161444 L72.8907885,11.4143667 L75.6081538,8.38492222 C80.4622692,2.97203333 86.1061923,0.11147778 91.9251538,0.11147778 C97.7441154,0.11147778 103.388038,2.97203333 108.242154,8.38492222 Z M19.0303096,0.11168889 C24.8514058,0.11168889 30.4931942,2.97013333 35.3494442,8.38513333 L38.0625404,11.4145778 L36.4658481,12.8163556 L33.7506173,9.7869111 C31.0311173,6.75324444 28.0640019,4.60624444 24.9816173,3.39235556 C26.0254442,4.68435556 26.6765019,6.30357778 26.6765019,8.08746667 C26.6765019,12.2653556 23.2547135,15.6494667 19.0303096,15.6494667 C14.8080404,15.6494667 11.3841173,12.2653556 11.3841173,8.08746667 C11.3841173,6.30357778 12.0373096,4.68435556 13.0811365,3.39235556 C9.99875192,4.60624444 7.03163654,6.75324444 4.31000192,9.7869111 L1.59690577,12.8163556 L0.000213461538,11.4145778 L2.71330962,8.38513333 C7.56955962,2.97013333 13.2113481,0.11168889 19.0303096,0.11168889 Z" transform="translate(117 127)"/>
</svg>
