<svg xmlns="http://www.w3.org/2000/svg" xmlns:xlink="http://www.w3.org/1999/xlink" width="347" height="347" viewBox="0 0 347 347">
  <defs>
    <polygon id="oeil_01-a" points="0 1.351 38.063 1.351 38.063 16.888 0 16.888"/>
    <polygon id="oeil_01-c" points=".314 1.351 38.378 1.351 38.378 16.888 .314 16.888"/>
  </defs>
  <g fill="none" fill-rule="evenodd" transform="translate(117 126)">
    <g transform="translate(0 .761)">
      <mask id="oeil_01-b" fill="#fff">
        <use xlink:href="#oeil_01-a"/>
      </mask>
      <path fill="#2C00B9" d="M19.0303096,1.35068889 C13.2113481,1.35068889 7.56955962,4.20913333 2.71330962,9.62413333 L0.000213461538,12.6535778 L1.59690577,14.0553556 L4.31000192,11.0259111 C7.03163654,7.99224444 9.99875192,5.84524444 13.0811365,4.63135556 C12.0373096,5.92335556 11.3841173,7.54257778 11.3841173,9.32646667 C11.3841173,13.5043556 14.8080404,16.8884667 19.0303096,16.8884667 C23.2547135,16.8884667 26.6765019,13.5043556 26.6765019,9.32646667 C26.6765019,7.54257778 26.0254442,5.92335556 24.9816173,4.63135556 C28.0640019,5.84524444 31.0311173,7.99224444 33.7506173,11.0259111 L36.4658481,14.0553556 L38.0625404,12.6535778 L35.3494442,9.62413333 C30.4931942,4.20913333 24.8514058,1.35068889 19.0303096,1.35068889" mask="url(#oeil_01-b)"/>
    </g>
    <g transform="translate(72.577 .761)">
      <mask id="oeil_01-d" fill="#fff">
        <use xlink:href="#oeil_01-c"/>
      </mask>
      <path fill="#2C00B9" d="M35.6651538,9.62392222 C30.8110385,4.21103333 25.1671154,1.35047778 19.3481538,1.35047778 C13.5291923,1.35047778 7.88526923,4.21103333 3.03115385,9.62392222 L0.313788462,12.6533667 L1.91048077,14.0551444 L4.62784615,11.0257 C7.34734615,7.99203333 10.3144615,5.84714444 13.3968462,4.63114444 C12.3508846,5.92525556 11.6998269,7.54236667 11.6998269,9.32625556 C11.6998269,13.5041444 15.12375,16.8882556 19.3460192,16.8882556 C23.5704231,16.8882556 26.9943462,13.5041444 26.9943462,9.32625556 C26.9943462,7.54236667 26.3432885,5.92314444 25.2973269,4.63114444 C28.3797115,5.84503333 31.3468269,7.99203333 34.0684615,11.0257 L36.7815577,14.0551444 L38.37825,12.6533667 L35.6651538,9.62392222 Z" mask="url(#oeil_01-d)"/>
    </g>
  </g>
</svg>
