<svg xmlns="http://www.w3.org/2000/svg" width="347" height="347" viewBox="0 0 347 347">
  <path fill="#2C00B9" d="M90.9200714,9.699825 L88.7772143,9.699825 C88.7772143,5.590075 85.4086429,2.249575 81.2643571,2.249575 C77.1222143,2.249575 73.7515,5.590075 73.7515,9.699825 L71.6086429,9.699825 C71.6086429,4.421325 75.9415,0.124575 81.2643571,0.124575 C86.5893571,0.124575 90.9200714,4.421325 90.9200714,9.699825 Z M87.1578571,21.499525 C87.1578571,26.518775 84.52,30.58815 81.265,30.58815 C78.01,30.58815 75.3721429,26.518775 75.3721429,21.499525 C75.3721429,16.4824 78.01,12.413025 81.265,12.413025 C84.52,12.413025 87.1578571,16.4824 87.1578571,21.499525 Z M20.3129286,9.699825 L18.1700714,9.699825 C18.1700714,5.590075 14.7993571,2.249575 10.6550714,2.249575 C6.51292857,2.249575 3.14221429,5.590075 3.14221429,9.699825 L0.999357143,9.699825 C0.999357143,4.421325 5.33221429,0.124575 10.6550714,0.124575 C15.9822143,0.124575 20.3129286,4.421325 20.3129286,9.699825 Z M16.5483571,21.499525 C16.5483571,26.518775 13.9126429,30.58815 10.6555,30.58815 C7.4005,30.58815 4.76264286,26.518775 4.76264286,21.499525 C4.76264286,16.4824 7.4005,12.413025 10.6555,12.413025 C13.9126429,12.413025 16.5483571,16.4824 16.5483571,21.499525 Z" transform="translate(126 114)"/>
</svg>
