<svg xmlns="http://www.w3.org/2000/svg" xmlns:xlink="http://www.w3.org/1999/xlink" width="347" height="347" viewBox="0 0 347 347">
  <defs>
    <polygon id="oeil_04-a" points="2.038 1.411 21.349 1.411 21.349 10.986 2.038 10.986"/>
    <polygon id="oeil_04-c" points="0 1.411 19.313 1.411 19.313 10.986 0 10.986"/>
  </defs>
  <g fill="none" fill-rule="evenodd" transform="translate(127 113)">
    <g transform="translate(68.571 .714)">
      <mask id="oeil_04-b" fill="#fff">
        <use xlink:href="#oeil_04-a"/>
      </mask>
      <path fill="#2C00B9" d="M21.3490714,10.985825 L19.2062143,10.985825 C19.2062143,6.876075 15.8376429,3.535575 11.6933571,3.535575 C7.55121429,3.535575 4.1805,6.876075 4.1805,10.985825 L2.03764286,10.985825 C2.03764286,5.707325 6.3705,1.410575 11.6933571,1.410575 C17.0183571,1.410575 21.3490714,5.707325 21.3490714,10.985825" mask="url(#oeil_04-b)"/>
    </g>
    <path fill="#2C00B9" d="M86.1578571,23.499525 C86.1578571,28.518775 83.52,32.58815 80.265,32.58815 C77.01,32.58815 74.3721429,28.518775 74.3721429,23.499525 C74.3721429,18.4824 77.01,14.413025 80.265,14.413025 C83.52,14.413025 86.1578571,18.4824 86.1578571,23.499525"/>
    <g transform="translate(0 .714)">
      <mask id="oeil_04-d" fill="#fff">
        <use xlink:href="#oeil_04-c"/>
      </mask>
      <path fill="#2C00B9" d="M19.3129286,10.985825 L17.1700714,10.985825 C17.1700714,6.876075 13.7993571,3.535575 9.65507143,3.535575 C5.51292857,3.535575 2.14221429,6.876075 2.14221429,10.985825 L-0.000642857143,10.985825 C-0.000642857143,5.707325 4.33221429,1.410575 9.65507143,1.410575 C14.9822143,1.410575 19.3129286,5.707325 19.3129286,10.985825" mask="url(#oeil_04-d)"/>
    </g>
    <path fill="#2C00B9" d="M15.5483571,23.499525 C15.5483571,28.518775 12.9126429,32.58815 9.6555,32.58815 C6.4005,32.58815 3.76264286,28.518775 3.76264286,23.499525 C3.76264286,18.4824 6.4005,14.413025 9.6555,14.413025 C12.9126429,14.413025 15.5483571,18.4824 15.5483571,23.499525"/>
  </g>
</svg>
