<svg xmlns="http://www.w3.org/2000/svg" xmlns:xlink="http://www.w3.org/1999/xlink" width="347" height="347" viewBox="0 0 347 347">
  <defs>
    <polygon id="oeil_08-a" points=".4 1.775 26.487 1.775 26.487 15.077 .4 15.077"/>
    <polygon id="oeil_08-c" points="1.418 1.516 25.673 1.516 25.673 9.037 1.418 9.037"/>
    <polygon id="oeil_08-e" points="0 1.775 26.089 1.775 26.089 15.077 0 15.077"/>
  </defs>
  <g fill="none" fill-rule="evenodd" transform="translate(121 119)">
    <g transform="translate(77.143 11.407)">
      <mask id="oeil_08-b" fill="#fff">
        <use xlink:href="#oeil_08-a"/>
      </mask>
      <path fill="#2C00B9" d="M0.601714286,10.6923385 C1.58957143,14.1492615 5.92671429,15.9326462 10.2895714,14.6726462 C14.6502857,13.4148 26.4874286,3.21633846 26.4874286,3.21633846 C26.4874286,3.21633846 11.0717143,0.890184615 6.711,2.14803077 C2.346,3.40803077 -0.386142857,7.23326154 0.601714286,10.6923385" mask="url(#oeil_08-b)"/>
    </g>
    <g transform="translate(77.143 .638)">
      <mask id="oeil_08-d" fill="#fff">
        <use xlink:href="#oeil_08-c"/>
      </mask>
      <path fill="#2C00B9" d="M24.3467143,9.03710769 C13.1738571,0.169723077 2.77457143,4.91249231 2.33742857,5.11926154 L1.41814286,3.17003077 C1.90028571,2.94387692 13.4245714,-2.37612308 25.6731429,7.34633846 L24.3467143,9.03710769 Z" mask="url(#oeil_08-d)"/>
    </g>
    <g transform="translate(0 11.407)">
      <mask id="oeil_08-f" fill="#fff">
        <use xlink:href="#oeil_08-e"/>
      </mask>
      <path fill="#2C00B9" d="M25.887,10.6923385 C24.897,14.1492615 20.562,15.9326462 16.1991429,14.6726462 C11.8362857,13.4148 -0.000857142857,3.21633846 -0.000857142857,3.21633846 C-0.000857142857,3.21633846 15.417,0.890184615 19.7777143,2.14803077 C24.1405714,3.40803077 26.8748571,7.23326154 25.887,10.6923385" mask="url(#oeil_08-f)"/>
    </g>
    <path fill="#2C00B9" d="M2.14178571,9.67529231 L0.815357143,7.98452308 C13.0660714,-1.73578462 24.5860714,3.58421538 25.0703571,3.80821538 L24.1510714,5.75744615 C23.7139286,5.55067692 13.3146429,0.8036 2.14178571,9.67529231"/>
  </g>
</svg>
