<svg xmlns="http://www.w3.org/2000/svg" width="347" height="347" viewBox="0 0 347 347">
  <path fill="#2C00B9" d="M102.489714,7.67510769 C91.3168571,-1.19227692 80.9175714,3.55049231 80.4804286,3.75726154 L79.5611429,1.80803077 C80.0432857,1.58187692 91.5675714,-3.73812308 103.816143,5.98433846 L102.489714,7.67510769 Z M78.7447143,20.0993385 C77.7568571,16.6402615 80.489,12.8150308 84.854,11.5550308 C89.2147143,10.2971846 104.630429,12.6233385 104.630429,12.6233385 C104.630429,12.6233385 92.7932857,22.8218 88.4325714,24.0796462 C84.0697143,25.3396462 79.7325714,23.5562615 78.7447143,20.0993385 Z M3.14178571,7.67529231 L1.81535714,5.98452308 C14.0660714,-3.73578462 25.5860714,1.58421538 26.0703571,1.80821538 L25.1510714,3.75744615 C24.7139286,3.55067692 14.3146429,-1.1964 3.14178571,7.67529231 Z M26.887,20.0993385 C25.897,23.5562615 21.562,25.3396462 17.1991429,24.0796462 C12.8362857,22.8218 0.999142857,12.6233385 0.999142857,12.6233385 C0.999142857,12.6233385 16.417,10.2971846 20.7777143,11.5550308 C25.1405714,12.8150308 27.8748571,16.6402615 26.887,20.0993385 Z" transform="translate(120 120)"/>
</svg>
