<svg xmlns="http://www.w3.org/2000/svg" xmlns:xlink="http://www.w3.org/1999/xlink" width="347" height="347" viewBox="0 0 347 347">
  <defs>
    <polygon id="oeil_02-a" points="1.582 .119 33.614 .119 33.614 2.452 1.582 2.452"/>
    <polygon id="oeil_02-c" points="0 .119 32.032 .119 32.032 2.452 0 2.452"/>
  </defs>
  <g fill="none" fill-rule="evenodd" transform="translate(117 121)">
    <path fill="#2C00B9" d="M105.705087,17.3948923 C105.705087,23.1844308 101.051625,27.8798154 95.3137788,27.8798154 C89.5737981,27.8798154 84.9224712,23.1844308 84.9224712,17.3948923 C84.9224712,11.6053538 89.5737981,6.90996923 95.3137788,6.90996923 C101.051625,6.90996923 105.705087,11.6053538 105.705087,17.3948923"/>
    <g transform="translate(76.846 2.035)">
      <mask id="oeil_02-b" fill="#fff">
        <use xlink:href="#oeil_02-a"/>
      </mask>
      <polygon fill="#2C00B9" points="1.595 2.452 1.582 .298 33.601 .119 33.614 2.273" mask="url(#oeil_02-b)"/>
    </g>
    <g transform="translate(0 2.035)">
      <mask id="oeil_02-d" fill="#fff">
        <use xlink:href="#oeil_02-c"/>
      </mask>
      <polygon fill="#2C00B9" points=".013 2.452 0 .298 32.019 .119 32.032 2.273" mask="url(#oeil_02-d)"/>
    </g>
    <path fill="#2C00B9" d="M5.62428462,17.3948923 C5.62428462,23.1844308 10.2777462,27.8798154 16.0155923,27.8798154 C21.7555731,27.8798154 26.4069,23.1844308 26.4069,17.3948923 C26.4069,11.6053538 21.7555731,6.90996923 16.0155923,6.90996923 C10.2777462,6.90996923 5.62428462,11.6053538 5.62428462,17.3948923"/>
  </g>
</svg>
