<svg xmlns="http://www.w3.org/2000/svg" width="347" height="347" viewBox="0 0 347 347">
  <path fill="#2C00B9" d="M78.441,2.487 L78.428,0.333 L110.447,0.154 L110.46,2.308 L78.441,2.487 Z M105.705087,15.3948923 C105.705087,21.1844308 101.051625,25.8798154 95.3137788,25.8798154 C89.5737981,25.8798154 84.9224712,21.1844308 84.9224712,15.3948923 C84.9224712,9.6053538 89.5737981,4.90996923 95.3137788,4.90996923 C101.051625,4.90996923 105.705087,9.6053538 105.705087,15.3948923 Z M0.013,2.487 L0,0.333 L32.019,0.154 L32.032,2.308 L0.013,2.487 Z M5.62428462,15.3948923 C5.62428462,9.6053538 10.2777462,4.90996923 16.0155923,4.90996923 C21.7555731,4.90996923 26.4069,9.6053538 26.4069,15.3948923 C26.4069,21.1844308 21.7555731,25.8798154 16.0155923,25.8798154 C10.2777462,25.8798154 5.62428462,21.1844308 5.62428462,15.3948923 Z" transform="translate(117 122)"/>
</svg>
