<svg xmlns="http://www.w3.org/2000/svg" xmlns:xlink="http://www.w3.org/1999/xlink" width="347" height="347" viewBox="0 0 347 347">
  <defs>
    <polygon id="oeil_07-a" points=".152 .71 16.567 .71 16.567 17.143 .152 17.143"/>
    <polygon id="oeil_07-c" points="0 1.882 35.98 1.882 35.98 19.893 0 19.893"/>
    <polygon id="oeil_07-e" points="1.221 .71 17.635 .71 17.635 17.143 1.221 17.143"/>
  </defs>
  <g fill="none" fill-rule="evenodd" transform="translate(111 120)">
    <path fill="#2C00B9" d="M120.526368,20.1542143 L118.386018,20.1542143 C118.386018,11.4049286 111.275772,4.28635714 102.536719,4.28635714 C93.7976667,4.28635714 86.6852807,11.4049286 86.6852807,20.1542143 L84.5449298,20.1542143 C84.5449298,10.2220714 92.616193,2.1435 102.536719,2.1435 C112.455105,2.1435 120.526368,10.2220714 120.526368,20.1542143"/>
    <g transform="translate(94.175 10.976)">
      <mask id="oeil_07-b" fill="#fff">
        <use xlink:href="#oeil_07-a"/>
      </mask>
      <path fill="#2C00B9" d="M16.5667439,8.92564286 C16.5667439,13.4642143 12.8917614,17.1435 8.3606386,17.1435 C3.82737544,17.1435 0.152392982,13.4642143 0.152392982,8.92564286 C0.152392982,4.38921429 3.82737544,0.709928571 8.3606386,0.709928571 C12.8917614,0.709928571 16.5667439,4.38921429 16.5667439,8.92564286" mask="url(#oeil_07-b)"/>
    </g>
    <g transform="translate(0 .261)">
      <mask id="oeil_07-d" fill="#fff">
        <use xlink:href="#oeil_07-c"/>
      </mask>
      <path fill="#2C00B9" d="M35.9803684,19.893 L33.8400175,19.893 C33.8400175,11.1437143 26.7297719,4.02514286 17.9907193,4.02514286 C9.25166667,4.02514286 2.1392807,11.1437143 2.1392807,19.893 L-0.00107017544,19.893 C-0.00107017544,9.96085714 8.07019298,1.88228571 17.9907193,1.88228571 C27.9091053,1.88228571 35.9803684,9.96085714 35.9803684,19.893" mask="url(#oeil_07-d)"/>
    </g>
    <g transform="translate(8.561 10.976)">
      <mask id="oeil_07-f" fill="#fff">
        <use xlink:href="#oeil_07-e"/>
      </mask>
      <path fill="#2C00B9" d="M17.634993,8.92564286 C17.634993,13.4642143 13.9600105,17.1435 9.42888772,17.1435 C4.89562456,17.1435 1.22064211,13.4642143 1.22064211,8.92564286 C1.22064211,4.38921429 4.89562456,0.709928571 9.42888772,0.709928571 C13.9600105,0.709928571 17.634993,4.38921429 17.634993,8.92564286" mask="url(#oeil_07-f)"/>
    </g>
  </g>
</svg>
