<svg xmlns="http://www.w3.org/2000/svg" width="347" height="347" viewBox="0 0 347 347">
  <path fill="#2C00B9" d="M121.526368,18.1542143 L119.386018,18.1542143 C119.386018,9.4049286 112.275772,2.28635714 103.536719,2.28635714 C94.7976667,2.28635714 87.6852807,9.4049286 87.6852807,18.1542143 L85.5449298,18.1542143 C85.5449298,8.2220714 93.616193,0.1435 103.536719,0.1435 C113.455105,0.1435 121.526368,8.2220714 121.526368,18.1542143 Z M111.741744,17.9016429 C111.741744,22.4402143 108.066761,26.1195 103.535639,26.1195 C99.0023754,26.1195 95.327393,22.4402143 95.327393,17.9016429 C95.327393,13.3652143 99.0023754,9.68592857 103.535639,9.68592857 C108.066761,9.68592857 111.741744,13.3652143 111.741744,17.9016429 Z M36.9803684,18.154 L34.8400175,18.154 C34.8400175,9.4047143 27.7297719,2.28614286 18.9907193,2.28614286 C10.2516667,2.28614286 3.1392807,9.4047143 3.1392807,18.154 L0.998929825,18.154 C0.998929825,8.22185714 9.07019298,0.14328571 18.9907193,0.14328571 C28.9091053,0.14328571 36.9803684,8.22185714 36.9803684,18.154 Z M27.195993,17.9016429 C27.195993,22.4402143 23.5210105,26.1195 18.9898877,26.1195 C14.4566246,26.1195 10.7816421,22.4402143 10.7816421,17.9016429 C10.7816421,13.3652143 14.4566246,9.68592857 18.9898877,9.68592857 C23.5210105,9.68592857 27.195993,13.3652143 27.195993,17.9016429 Z" transform="translate(110 121)"/>
</svg>
